<mxfile host="app.diagrams.net" agent="Mozilla/5.0 (X11; Linux x86_64) AppleWebKit/537.36 (KHTML, like Gecko) Chrome/132.0.0.0 Safari/537.36" version="26.1.0">
  <diagram name="Page-1" id="A_GJRTAsdXMXQwvHNOab">
    <mxGraphModel dx="1364" dy="788" grid="1" gridSize="10" guides="1" tooltips="1" connect="1" arrows="1" fold="1" page="1" pageScale="1" pageWidth="827" pageHeight="1169" math="0" shadow="0">
      <root>
        <mxCell id="0" />
        <mxCell id="1" parent="0" />
        <mxCell id="cj_N3vQUKj-DD6KUi9ZY-1" value="Functions" style="outlineConnect=0;dashed=0;verticalLabelPosition=bottom;verticalAlign=top;align=center;html=1;shape=mxgraph.aws3.lambda_function;fillColor=#F58534;gradientColor=none;" parent="1" vertex="1">
          <mxGeometry x="30" y="131" width="69" height="72" as="geometry" />
        </mxCell>
        <mxCell id="cj_N3vQUKj-DD6KUi9ZY-2" value="&lt;div&gt;vpc-04892013f13bc9cda&lt;/div&gt;&lt;div&gt;vpc-lambda&lt;/div&gt;" style="outlineConnect=0;dashed=0;verticalLabelPosition=bottom;verticalAlign=top;align=center;html=1;shape=mxgraph.aws3.virtual_private_cloud;fillColor=#F58534;gradientColor=none;" parent="1" vertex="1">
          <mxGeometry x="264.75" y="140" width="79.5" height="54" as="geometry" />
        </mxCell>
        <mxCell id="cj_N3vQUKj-DD6KUi9ZY-4" value="" style="endArrow=classic;startArrow=classic;html=1;rounded=0;exitX=1;exitY=0.5;exitDx=0;exitDy=0;exitPerimeter=0;" parent="1" source="cj_N3vQUKj-DD6KUi9ZY-1" target="cj_N3vQUKj-DD6KUi9ZY-2" edge="1">
          <mxGeometry width="50" height="50" relative="1" as="geometry">
            <mxPoint x="390" y="430" as="sourcePoint" />
            <mxPoint x="440" y="380" as="targetPoint" />
          </mxGeometry>
        </mxCell>
        <mxCell id="cj_N3vQUKj-DD6KUi9ZY-5" value="Node&lt;div&gt;(Microservices)&lt;/div&gt;" style="image;aspect=fixed;perimeter=ellipsePerimeter;html=1;align=center;shadow=0;dashed=0;spacingTop=3;image=img/lib/active_directory/generic_node.svg;" parent="1" vertex="1">
          <mxGeometry x="39.5" y="415" width="50" height="49" as="geometry" />
        </mxCell>
        <mxCell id="cj_N3vQUKj-DD6KUi9ZY-6" value="&lt;div&gt;vpc-0490ff4f59d8186da&lt;/div&gt;&lt;div&gt;vpc-services-prod&lt;/div&gt;" style="outlineConnect=0;dashed=0;verticalLabelPosition=bottom;verticalAlign=top;align=center;html=1;shape=mxgraph.aws3.virtual_private_cloud;fillColor=#F58534;gradientColor=none;" parent="1" vertex="1">
          <mxGeometry x="264.75" y="410" width="79.5" height="54" as="geometry" />
        </mxCell>
        <mxCell id="cj_N3vQUKj-DD6KUi9ZY-7" value="" style="endArrow=classic;startArrow=classic;html=1;rounded=0;" parent="1" source="cj_N3vQUKj-DD6KUi9ZY-5" target="cj_N3vQUKj-DD6KUi9ZY-6" edge="1">
          <mxGeometry width="50" height="50" relative="1" as="geometry">
            <mxPoint x="390" y="500" as="sourcePoint" />
            <mxPoint x="440" y="450" as="targetPoint" />
          </mxGeometry>
        </mxCell>
        <mxCell id="cj_N3vQUKj-DD6KUi9ZY-9" value="" style="shape=image;verticalLabelPosition=bottom;labelBackgroundColor=default;verticalAlign=top;aspect=fixed;imageAspect=0;image=data:image/png,iVBORw0KGgoAAAANSUhEUgAABHUAAADiCAIAAABP3GySAAAACXBIWXMAAA7EAAAOxAGVKw4bAAAgAElEQVR4nOzdd1zT1/oH8IeRoUkzaJPwKyTKVCA4GEURrFAtWsXdSvWqrauOaqXVFq7WUa3YYbVYRx3U0VK0dVIHVcFeEaUMB0NlOBLsJaEFkhs0Q+H3B0NAwNGgUD/v1/3jNiQnJ/E85/k+33O+31jcumUgAAAAAAAA+Nssn3YHAAAAAAAA/iFQXwEAAAAAAJgH6isAAAAAAADzQH0FAAAAAABgHqivAAAAAAAAzAP1FQAAAAAAgHmgvgIAAAAAADAP1FcAAAAAAADmgfoKAAAAAADAPKxb+JulpaWVlYWlpaWlpcUT6xDAk1RZWVVZWXn3blVlZeUTfmvEF/zjIb4AWg/iC6D1/M34srh1y9DEoxYW1taW1tZWf7t7AO3DnTt379yprKqqegLvhfiCZw3iC6D1IL4AWs/jxVfT+wMZDCsEDzxTrK2tGIwnNOYRX/CsQXwBtB7EF0Drebz4aqK+srKytLLCdVnwzHkyIx/xBc8mxBdA60F8AbSexxj5TTwbZybgmfUEBj/iC55ZiC+A1oP4Amg9jzr4m6ivLCxwtSI8o57A4Ed8wTML8QXQehBfAK3nUQd/k/WVmfoC0N48gcGP+IJnFuILoPUgvgBaz6MOfuyjBQAAAAAAMA/UVwAAAAAAAOaB+goAAAAAAMA8UF8BAAAAAACYB+orAAAAAAAA80B9BQAAAAAAYB6orwAAAAAAAMwD9RUAAAAAAIB5oL4CAAAAAAAwD9RXAAAAAAAA5oH6CgAAAAAAwDxQXwEAAAAAAJgH6isAAAAAAADzQH0FAAAAAABgHmaor8Z52AlEbuN+VNY9ojoxt5vITuA0LjZfeXy2n0BkV/s/N99hEbFZmnsvVmXEzBsd6OUmEdlJPPoOmbB4T77+73cJ4B9Pr0jaMHu0r4ejQOTo2jt01OxvklUtPV9THZW9FydrWnpaK9GcXhwoshMErUjTkF6RsmFqaDcnR4HIrduwuTGn1USkOjyjm8iu07DNeZgA4KnTZCwJsruXuez9+k/d3HJ8PRXNB7U+bdkAgciu2+yjf6vXqqMzvewE9qM3ZOmJiDQ5exaM6yayE4h6zDysJiJ9/u5RTnYCjxl7FIhbeGi18dVpzI7aCV+ftWyAQOQ4ZFvB0xlJ+oINwxwbHcq2K/q8bZO6ObkFzvt7Id+CBrOBXnFixaigHhKRncSp75B5B/L0RJqc1QMdBaK+4SfUrdSF9sUM9dVgbx6RNi0xp/YfVZOfmKkg4vuE+EhZNY/xnDzlTmLS5qfsnBk2M6a6iNJkrJ72+vvbz2QptQYig7ow+ciBEwrt3+8SwD+cKilyzL8i487kq1kyqchQkHli34E05ZNKTHpl7Bg3gX1ozVHXg59fEPv57iziDZ423pOSIoe/Hrk/U2FgsUirSPnp/WmL9yj0kj5TRnqTJmXdykRMzdBW8KXunnJ7lqEoff+SURNXpD3euYlHjRciUh2d5PHUzobU0qRtWhWrJNmIKSM92aoTi/t7vTp500lFvWewXUJmjHAi9cGV32Y+zZ5C+6RJ3LLh9MNP+Pqsr0MlIrdR7bUEMq9G34ZBna9UaLV5+UpNqxwINJgN9Pm7w6etO5FdQmIRaQuTt8+c/EWKhu8x6p0QMRXGfrE7C9OBWeqrgEG9+UTq7JP51V+ovigto4iI5TnIX8aueY7nW6uPJf0nL/unuXIWqU/GHi7UkyYtOmJpioFYTiOXbz2VkVuszL2Y8nOEj/jvdwngn02VfeBEAZE4ZGvGuYuZqTdKCm9kxIyVsx/8SrMwKLMe5TyIPv/ongwtiXuP7CNl64ntEjJ30683ii7lJS4J4BGpz5zI1hLfY9QgL6KSE3EncSoc2gb7kWt/PpWUeiMx6hUeGTIOxKY/1lHDI8YLEenVSsVTP0DR5MQeziWyDxjuJSG9RlmgYLsPnjg+oEGK5vuOCHIhyj+yO63tre9Bm1cYG33goU87aBUFakOrdqc9afRt8AM+jvll+9bjm8a7tsaBQIPZQJP87boTWhIPX5+Wcf5i3BQXoqxtWw4p9DL/YQFiMmTsjs1+6vPX02eG+krcZ6APj6gg43i+hoj0ypzkfAOxvEb2sW/8ryzxCPAWEZFGqTFocvYeziUin/mrV78z0FPGZ7P5MhdnGf/v9wjgH45NNbFlqJlf2XyJVMIm0uesHmgnEPWYdFhNRJrTEY23D2lzYuaN9nWykzj1HbcsSaGn2q1EjoGzV0RODfV1chQ49R214EDNtg1VRsy80b5OjgL7Hr5jFsdmafT5uycFvb6hgMiQGRnsJLAfvSFLnbVv8biBfp1Ejp16h45bdrRhgaTPT0xINxBf3s9XTCQJitoVs2SEB5+IL/NwERMR6YmI2LI+vT2JNKePpmEFC9oStot3gAsRadVaLRFp8g9Ejhngam9XHRR7qk/VNhN6iZn3x4ue9Orkb2f093ITiBxdgyYtOdxgT5TqcMSAQUvSDUQFW4Y42wmCVqSp1cnbIsYN7OtqX7dZsd4rmgjq+9wXyESkSd8RPmZAN3s7iUffIVMbbzDWZCckFxCJvQbLxURs17D1F3OO/fDx641OgfKd+/lKiZRn9mYjbuGRsMQ8MqRs2dDEngW94vA346q3n3mFTvo6SVGes2HMq+Piioi0J+b0Eojcxu04tWGYY92WwprLUoIWp2mINCmRve0EIr/wE2rSq5O/ndvfy00gsuvkFTrp25R6Wc9t1Nc7lkwY0Mmpb/iZ/9V7d03a16ESkZ3Aa0bjK1b06rRtc4f0dpOIHLsFTVpyWKlvbkJQHRjnZCfwGhe5YO6oID+JyNE1aEb1Yl31tt5OwyKWzJvU38tNYO8WOGHF8Zq4ve+DVz+syYldMM7Xw1Fg3yNwTERsdmbjb+PHgqztM0dNnDxkfoKiup0T30wa6CcR2Qmc+g6ZvaPm9EfzvdKrUmquOLDvEThsbkzDc0kNZgNNwYnTRUSigBG9ZWyS+IT0dybSZh7P1pLEo783j6gwObEABZYZ6iu2uPdgHx5RYXpGkZ5Ik52UpSWWd0iA9L4iWpWTnF1CRHwpv0pdkKUkIntPH+cHl1S3bm/87o+u4TcsZit6fPe/66Y7R79XCpb9dfbW3+69ybjt6xuCrzXXTY3/ov+rYmOS7nITb3H37IE/uq4qPXvLfN0AeBR8eT8fKZE6YaZ/z8Cp3xx6+MV49Zm9iUoDm2XQFh6Knjwzru7AzpAVt+W4WuTZx4mvLTyxadV3GRrS5FTv4FXLeo8MlmoSt8ycsy7DyOJL7as3/oqd3X36ONuW/hI5e8uhDK1Y7iQ2KNNOn1HUP8eoL8lKKSAimdyD33BKUKUfrJ6y+8t5RMSXermIibQ5yUrMzNCWaJRZSiISycQ8ff7umcNnbkjMVRt4fCrJT9wyefjkmBbOwLMax4uMr01eNm7IwoPpBufBw/tJFAlrZkd8V78FFk8s5REREc9F7hUgd+brM2O/PZCsNPBd3D3F2vT9SyYtTLhXDTUb1HX9byKQ05QZq+dHfpeYq5e6u/IMWSkns9T1X6dXZGcqiFjOXi7VGZrNb/q0ON/Zx4VFVJSV/cQ2KMM/As9r7JwQMRXtid6dpmmwLqU6HDFkYtShbJbvoKEBrJy9y8MjDxazeNLq0p4ldffx7u1i1zkg2IPIkHe6QKPXKFJyFESUn5Ou1uurDy+lXv3lrORl44Ys/CldqWXxeBpl5t6Fr49amFQbO9oTyyPXHMnVaOu/u0Fx4qv3l2caWO5z1y4d5VJ/1GuSvxg3YP5PyQVaA09EmpzkDLWm5QlBeXLD/hxy9vKVGtTZB1dG39udoUnZ+d1prczby4W0WUfWrdxXqG/yg+9Tkj5nw4TRMzedzFcbWHyWJj8jTVnR+NsQs+r1k1SHI4aERe3NKDLweCxtYXJc5JD625ub6JUm+YvwyLgzCpa9pwtPlX3mRL62Xjg3nA00RQo1Vc+H1T1wEbOItIr8Ej2JPL2diSgvPUf1zE8H5rh/IFsUMMiLRYasxBy1XpN1OlNNLM/X7m0OJKKsbeEDgvq6er++JsNA4n5jX3Ni66v/8XgyFqu5hmtVXj5dNjfzbo9+wn1vCeZ2YwgYZuj1g1SVX9etPKY7f7vqvj9Zdu323Nx+Hbt2fALdAGiKpN+S5VM8WUSkzdofNS7YvduYuhNgLXKe8ktm6sWcc8fmeLHIkBZ3tO70nCxs/S8HYmI2rZkrJ6IShVqryT+wN8XA8l9y7MgPMTvWLxnEo/wzFytDVm/6d38eEcsrfFP88V0rg61vqAxE3rNi9h9Lyzyfd3RpQP1TJgZ1nlpLxBNL+Q0zQNKa5TvziTyHTxlcPVmwRTIxEWkVipJnfmaGtqAkfdtXkQvmjho+c6+axIPefdubpUjcfVxNJJ/1S8GlGzkHF3uzSHvmu8Sc5kYs035Yo3gZzMqJPZJL4pCtR376YfP6rR/2ZmlrzjxWk7zy75jlITIicn5j9f74X9a+4SobuP7MpRs5qWlJx47tigxgkbog894GwuaDulqTgZx+9U+1hojXO2JH/KkzqTdyfp7hWf9Q0qDKVxuI+GJpM3VVLTZPJhURkSq7BOdF4FGwZMGzZvizDBlb1hwuqjdmlSfiEhRk/3Zc/C87NsSsneJCJVlppsFrV4f7s4h4AfNjjh+NWfKKtHrLg7ogU6EpycouIiIy5CRnl2gUmQoDib0H+lBm7JFcItHg6N9uFJ67uGmojCj/yO66pVp+8JJfMnKLS1JX936u+hG9OmnJwi1ZJBq8fENEn4ZrtarM2H25RLyA5b/eKEy9mJl6/GMPTcsTAssrKi5+z+YNWz8eKibSqAtUdaWc85Qfjv4cs3n96jAnIlIr1YYmP3hKTn72gdgULbHc5+4/p8pJvZh5bPWgwEmNvw1RvY5Wt0OysK1Xci7dSKnd3ly3Z+/+Xmm1aqWWSDT44x9OJf0nrzD1hzfrr5A0mA30BoOeiFhsSXVGZxOfzyIyGLRExObLRHwig7oQWznNcn92tqxPiC+PNNlJWcqc5IwiYnkM9ndqMCdrC7OyC9UGnov/+PVx6ye5sInNYxMRaRWGB/8j6G9VEVWVk2VXt+fe8mYLiIhIU3o7IrrI9kPl8AO3yon0f91aub5IMPtG55Ul24qMJ+OK2ItLTmpNcZsU7GV/ntUat32tsP1aW7tOVVWc+9fAxTdsl5esuVn7SH5Z2DIFO1zZL+5/F66Xv7VLf+N/hjeXKMN+v7X/uyKL2TcsPiwKO3Cr2FR5PlUz96Du/L1lq8rLGX8OXHyDHa4cnmTAoSG0PrbstaWncs7+smnJjEHufCJF4rr3o8889BUQfNdgLxmRQV2kanxMxGLXnvLQKAsURIaUJS9J7QSiXjOPaMmgV90Xr3z50LH+PMqICnTuMWTe/Re2GjR6ImLx+bx7c4ImJ2Z++IZsYnlHfvWhf005xuJLWCwigwYTM7QJhqz9WzZs+ulEgYHlHfnD2jdc2QZFvtJAJPPu58kn4jsHeNsTkSq76OFLC71WqVATqRMmezsJRE4vLTxjIIPG0HLi0GRtm9Hfy1EgcuwyPCrZQKSn+wOxuaBuOpA57iMHuZP2zPv+7r5jVuzJb/QJDBqNgYjY9cO2GXwWi4gMWi2SHzwSNttj7Jw3ZFRyKHrnvU3sGnWeUktU9F1YT4HIrtOgdflEen0TSYHv0i/AmUiRk1WQk5xvcBn0ug9Pm3c6Jyu7UEE8z2AvfnWssZxf8bFnE1vmHeTCI1IXKGpTDF8sdZHVP4GgPfHFkr0FJAtb+dVbzo1Gfk3ksjxGBjvVnkJ86AmB19xCAuveEkMzH1yrLFAQkUvQYPnD3Z6gph2RT7CXhE1sqX9/FxZRiSL/vhOXdb1iiQLCQmRUsndar05Bk1afaLQW3WA2YLNYbCIy1P6b6KuvU2CxqlezeDwWERnUrXObjfbE2iytsKX+g+Ws5JTMQ4nivHxiyUP6N1hUJc85B4997F3/IbbY2UVKyQUlWekF+j7eLc7gll0D+NMv/fX18b/cjpe+3O/5uKEsImIxrIcPFXTO/DMs9X8ngxh08K+V2o77F3KLD6unf28ZH8LqnGk8e91w/WYV3TaeLTJeLqUeA9i21Wtf2ttLdunO2/D2h7FOfleykohu314Zpyvv9cJ5Z8PczdofvcVrBtzudcxy40eSsOerip3E/x1lWXzxz4EHNUd7iTo36uBtw8bDFcXdRNcHMPRk9aRuMgDPPL40YMTUgBHDXpk3evT2QlV+gUb/qLeHefAUyPef9dWH/STV/8ESu8jZ1Ch18L3Dd8S7bvsmZn/Cie3hgUeOrt+/fmy9GYBNRGQw3EuQ6kPLZrx/pISkQ9dvmuJ7b7HLoCcDEYvNfuCaNsATYP/2/l+X8HaPG74kOftkumKKr6f52hb3i/pilmftqQWxvPHBXH2a0+tmzj+YJe03N3pKACUsnbMzq6Wmmw7q+wJZKvH5+ZTPutXbjh5KXDfZ/+iJ7T+vf+3eBFIThgaDnqjlPfzVgc1isQjJDx4JiyR9pswNPvB+4s416kbTvv3IL1ZOcql5kC/1kFBJ45fznV/xsd8Ql3Pi8NE8tch3xDCx+uCGjKMn8guI5zHYR9T4+VT7Fs2fwROLRWpliSL9aLqi32DZUxnQjT84P+NA678pWzZi5TGx15ptBw8dSVgadnLvtO9/+dS/LvAbzAZ8kUxMpNXma7RE7NotKiKZi4hNpDHUzget3+k2zky/L8y2D3jNi0VFe6J3pxvIc1Bvlwef8vIYFexOZEj/IuL9b5OyVBoi0muUiqZqXvbz3DURsrKPXohys/gtuXybqpKI2M8xenVmdpZYsonIdOeyqlIgYXWVMHp0tqJS002bDv063D2aUXG+AztMUnn04u3zxBjuYl3dL/1t0/Xb1MOb08PG2rYDEZFBe+dyaWXCwRK3r7QJ/6ssN9XbFmi6c/bYn70W3+y1x6AyVelN9+0Y7MCaPoAjyCjpseqvuKK7z3zRDq1Pr7kXKJoSdfW5pXsXSGg1aq2e9JpmTyHp89IzFUQsqVcLd5ThS51lRJqCAgPPI6CPf0Af/wAfZ0n1e7CJ6h/H8Z0Hv7dmz5H4r/xZpM5Mrn+3NBZfzGcRGTQ1Z7c1WdsiwrcXknTo+u0rR9VPYAaNWkNELLGYheM0aCP4nm9EhDmR4czq6ASFniVzkbKIVNkn8zRE+qL07CIiksjta8OomdCrFy9snlQmJlIrswxin+qw6uPt2igM2fUjQK/Kz8wjkgVPCX8zKEDu1MyRSxNBrdcTtRTIfM8R/445EP/LHHeiwrTT9S98ZPF5LCLSaEoetJps0Ki1RMQW83B3KnhkbOdRc95wIbp3ERRf7CrlEZUo8snFuzpA/D1lfLpXHtWlHrHnIC8xlRyPS8hnOQfIPQLkIkP2wdgMLUse4itl18SaoaB6/60qOylfSyR2lkmbO/jn+c5ZudifRwU/hS/c3ejHGGtbyzl0um434wMnhEfRzAevjl/KP5PccJH5vm/jXjueUhFRSdbpHA2RXp2ZrDTU1T/NY0v6TIja/POx7eNlZMjLqH8BVcPZgO/8io89UdHxuDMKPanSDx7KJuJVX0et16i1BiLiix+wr/gZYKb6itgu/iGeLDKotUTuAX1aOhVXix8wZ+lcfx4ZcmMX/itQ7i4Q2dk6vzxzX9F9R4RV5UW3TubePq8lW54Fi2Fpy7Bo/BSGdVeJZfn1Wyev6Y9evEM2jM4i9sDOFr9l6sslHcOcLc9n3rrOY/ezqfm87A7WnTvQ5Yu3L2sry+8QEbF41l1tLF7uLy5b26nqs/9b6cIgayJT5fXSO8U3Ktak3uk6VHL57Y5dGlz6ZcEm0t+p1N+psnUXHl1ou8TGuPLIrftvlQFgXpqMr/pL7QQiR1cvv07Or87cX0Rk/0pYb7GAJxHziAwnFo5+ycu927SDjW/MVLBl3MABgUEvj16eaSD7Ue8EtXAvV7582Eh/FqkTZga7S7z6BgYN8A2asUdBxBbJeESGzKVhr/YfE7Fz57xAr76BA0P7D5q0MsVAPI8AGe9eK2yRp4uIyKDIVhqINOnrZs5PUBOxqCBm/r/6DwztPzB01IKjKiK9pihPTUT2ntL7zzsCPC18n3feHSwm9f5vNmQYXIdPGSUlQ8a60UEDAoNGR6YYSDx07ggPNrv50GsYL3u0HmMHuRMVxk572dbJLzBogG/v0PATDY+cePZiFlHBlnFBA4bM3v2HrbOMSLHvq/B5M4aELUlvVPE0FdR8KZ9FpD6yePK8o/omA/nsgUm9/XyDQvsPHD1zWy6RvW8fab2DQr5M7swn0igL7ttC3JC+JE9ZQsSSyZs9aAVoAd97Svig+nO+9JWwEBkZ0jf9q4u0h2/QgMDefYd8naGvCTHtiTmhgQPHRZ5QE5FEPtBXTAatgWS9PaU81z4efDJoDOQZ7O/CJpL0nvFObxaV7J0W6hs0YMC0nxTE8pk2pb+k+d6wPCZ9uXSwmNRHlsz8NqPB2Jf0njHRi0XaE/NffSkotH/QgCHLMiXNTQiP8000/cFZ8jfeDuaRIXPp8FcDg0IDg0LDD6up8bdRf3FP2v+dYZ5E+dsnBwYNCBwUfkhN/OBZM7ybL/oMBTFj+nbrPaD/wNDR83criFy9PST3PkOj2UAcMGfWYDGp98/09e7RLWxLPvEC5swaLGNX/wyXhkjs7IGbgZurviK2i/9gOYuISB402OXhvleJ/5Jdvx2LnjXS313MIpbYySd46Ej5/bu9q4ovlQ/cUBK04c+3U6uGDxIOl9xXX5H1wKHPR0iM078qWXO7w5p/CXp1tOrVjSUh6urG6uHOFNymzt06dK6rjngdI4Z2YF8q77lEtab6mpUOHZb8i9/5Uolw9g2Lj1Qbi6o6uz8XJrkTGV0cUcIYaF+VsFc98IChuMGbWvbw4/Qz3Y5IqIg9qOq6oHiJlrVkKKfrk7j9BjzTWNLe/YO9PJ15GmWRhmfvOWjW1sRfY0ZI2SR95Z3xPjwig4HEIYujlwxuuGFQHDxlpMyQl12kIdErC1dHvSZt6W3YHjM2fb94uJeYyKAsUulJ4uwl4xPxvd6eM9SFiNSF6dnKSpueLvyirIzM9OwStv/rX+1YPbbB+jVP5u3MIlLl5yj0NRsMiMigzE3PyKz+X3K2UqMnQ35mvpZI6uF5/61HAZ4etixk7jQvFuXGfr47jz8watf6GcHuLHVulpLlEjxla1z1MmzzodcwXgzEC/g45oc5IS48Im1RntrAFjv5Nrz9F9tlWHiYO4tIo8zNUmif7/3+6uVDPSlzb1wOP/j1gAcHNdt10KwZwU58Q1GeWmugpgLZzt7ThRTZmekZuWpxvxnRMVGvNWhXLPeSEZEiJ7/lCynUBelKIrL3kbd8dhygGWzp4DlveNaLAMlrS3/YNOUVZxZRSb5Cq+dLPWXi6sP6V8REVJKfUVCzD03sNVjOIyKZt4eMzRY79/ZkEZF7QM3vA7E9J67fs/x1H6khPztXI/YauXBrzDst1BlERHyXoVHLh8rIkL48fMmJ+qco2Z7vrF4/rZ8Ly6DIzkzP1vKlYpakuQnhcTT9wdnOY79Yv3iQO99QlJWdmaVmycSspr+Nuo/QJ/KHuMjB3iJVdm6+3ikgLOrn6Akt/S4WiyeTi/UFuekZmVkGp8Fztm790L/+t9RoNmC7TNh65PvFw70kei1fHjJ3088/vOfNJyJ9SV52ERHL9WFuDP5PZ3HrVuPF/w4dmE+lKwBtwe3bxlZt/xmML33+7nEDw08YekclfT+j2a3DmuQFoUM2FcrCvj+2NqiF04vQriG+2g19zurhoUszWIM3/frDiGZPxKgOzwiceFAtn3Vs/799cUj1tCG+oFU83GxwL9cf+b7h/Uj/IR4pvsy2fgUA0CS2S79Jr9mTIXPP4cJmz4SrMmOPFBK5j5zoheIK4OljOw2e2JtP2uS4pLzm4lavTI47oyZWQNgwTxRXAP9UDzMbkD4/cXeylsTBbwx+8D0Y/vmsFiz4uNFDDIbVU+kKQFtw587dVm3/mYwvjsxF/Ne1Iq2mY8+XvSVNTbyq1B93X7B2n/zvhSNduE+8f/DEIL7aD+vnZV356oI//qqQ9Orn+XwTdxvW/3HyuyOF3O5TFr8/sBMOqNoAxBe0jgfPBqS/cuiHk2pe7/BPZwVIzHNz8rbmkeIL+wMBGsD+CoDWg/gCaD2IL4DWg/2BAAAAAAAATwHqKwAAAAAAAPNAfQUAAAAAAGAeqK8AAAAAAADMA/UVAAAAAACAeaC+AgAAAAAAMA/UVwAAAAAAAOaB+goAAAAAAMA8Wqm+Kkv+Mvz9XVeMRETqpBXhEfuuPd6P3hkv7Zw25O1lKWVExoJdH731ZWopEZWmLpsw7v1fioxEuks7331v63nVlT1LPnpr8rvTZny0aN8VXTOt6dK2vr8isbhBV4zFaad+L36I3hmv/Tj/o82XKh6+87rC1KRLZQ///Hoqzkd/FLGvqHV/KRDaL90DBnzpyVXTlpwqfoQWHzoQ6veiNqDqhrpReTTivejfS+81m7vrk0Uthn/da+/rc/OvLT61aPLCPcrqvxgVv3wybcUp5YWtb418e+zkd8dOCK/9ToylaXsWzZg2dvK70+ZHJygRT/BQdDVjKfytyeHvf3m0oLmMUl/plaSUaw/zxNZoodl4f6g2Kwp+3Rjx3rvvbsgsSNmzbH74Wwt2xkcvXPRLMwnIWHb+ZKoCwQR/g1GZum7Bu2MnvDttxsLVKWqzN1+Xzpo66nucdh5e89nQHFpjloDWYd06zQpfGhGw98uE3wc49FCdild1CZvu8Fg/+l1RcPEK002sPJld6h9o282Vm5Kt0PkxVXkqI1N3+aZuiFh3+YpROpJ9YW8Cc8hXWwNtWmyO6xu20I1h06Ar5ZeOJZwf7PWSrdl/ldxYejEh3iju4ybED7WMNroAACAASURBVJ6DeRWnPNSAfxSPEwi1AWVU1A71+57CdB8xey61EAL3wuQRXmsrD3LaFZ+uDpXaM43qC2fKnAbLhZTHdRv54eJQmS5z9dKd8V0XhdKuRRuvBc1b/Ykb5+E/FAAR1YwlKopfuurHi34f+98/PhvQqX6P/1Xk5OPAfdzp/u+38Jhtll6JP6TuM++rUEl5/NJd3DeWb/PlkK4siNlM2OquJR1K7tHNT2a+2QeeLaWZ61bs1I2I2PaqfescHd1LZ00d9T1OOw/9khYymhm0xiwBrcRqwYKPGz3EYFiZoV2b/+NcPvDLn/9nlfKr0n/8m92trv26cdGKrd/vSc5lyLxdO5yP/nhtiVtfV/bNXz5dcPS5Xi9eWPr+5sNHD8Rffr6Xv32H6lZ01/bvKezxZn+r33+36ObfhU9Zx85YdPezuf7bBSsHbtldJz+Jcl+ixn94H6v0+JT/dfbpJuPW67yxaM+ixfEd/AKkHYp/XRWx664n+/CiLVpfP6v4BR9/e+jw7sQiRkVa7MGMC+czs0vF9tpt/46lPoGdrC7tnP/5Ram/7NrWT+evjYv/NfUa19VbWnkpMd3Y82VvUfW4rjgf/VHEwesl1y8cP5h0iePmbddBdyn+s883/rAv6bSK52B98duY45nn0s9eMlhe3r6xUBbkWnl8Wfjyiw79/TjVH9/r7m9fLlr17e6E08rn3Hp26vDH0QU1X4LQxSo/n+/Vh3vus4iN2RKfl+w6/P1/FHgYd+7cbdX2zRJfOmVygwGvu7J5wZo8pwBPG23Sin9/f9fvJTq3/2jqhVMJ239MyGV08XZl5jYerpUFv8Ysj/5hz8HkAq6DIG/Xup9rAkEuurT5843f/Xw8reL/fOViJhEVJy5asJf8fETXt707ey/5BThojy1YdJzBTV+9Tesuyqsd6uTQxSr7ZHrh1d/jY3/ac9HSraesOHbZmqvOffipi97ffOaP4rwzxw+kaqUeztUJT3fp8KrNNa+V2f6VmpF3Lf3YDzvjT+vte8kFBduWrbnqHNRZfTh6zaqd8QkXydXP2caKiDrwrS4d/o28Ap07qNLjTppCRvcTac8dz+H06deFz7XSpiZm2fUQpe45++K4WYNaKYXD42gX8WVU1Y4lneL4sXNWPV/27nApZvnnq7bvjU9Xv+Ahty07vGBR0guBPrbGzNXzN/8p7XB2208nLuZkphd2kPvY/nG4LhHI5fbVMVp6ctWMz367qbqelng4SSXs4Sam0szdn61Zu+twQnrFizJ9wuZdNS3Y6nas3H9/uPH8ZHnbopaujdv9a7ZRKve0Kf4xojqR/dfuRf3FP+yCulUmLP9kx58OveQvMImoNHP72po2Gc+XxSzaWp1hvSTZny/4fPO+hKSc2y+6vFDw8+YfkvOyM1OPH0r4z2VlXk7qf349/OP3e9N4fkGd9Wc2RS1aG3c4RS3x8bLrQGRUJ8Vs/jE5OzP1wk2R3Jtzpf7XUpt/K85Hf7QoNmnPz2duu7p1OLezdp5x9X7hv/VjmZkX/1m9DHj7VNT79VOwD+/4opoP2LmbfcHOup50uX0q5l6bne9m7VqzfN3e/b/lcd16OvDNMADar3YRX6XnYndc7jlrWi9RbWPG0syG8XVsQcN8QSkthk83d9vbmT9+9nlUzC+nCzsIyhO27K1JZ13uHli0Resb+H/FJ+ofgr6gaxyPjNzGo8hY8OvmtbVp0UtudXZTveizrT0kM6qT6j3uUJZUl9Huy4bOXF2DPjNTV7332eH4ffHnreS9XXlWjzJL3DX9vn5HuTxQpjn478kbtV6vuBtPrYqIvevl8deP9UOSqWhulvDiX9zYKNHDgzxSfLXS+hVVL2HFLVi1WRi4cI49FcavP0Rhn34TwMxevXTnj05zut//CqYgZPGykHrnCXSFyZcYPUPc5BJpQsJFddCrDi9JK5IuFUmuVkj9g2x+TSostM8tE7/kxLGVTJ5ZuHHL3HfWS+Sjpk8fVX26mmnf52VxUkpeqY/DhXS10wC5kM7Vts1wGrMo3F9IxiJ9epFi+PJwX07xyYTGH2HG8tgZZCyMj9iYVNAt4P4e2/oMmTjCXpcSHXHoXKibXfz32S/N+exj4bXNS3edf/X9CS8n62j6V5MdjBc0J3bnKV62y60Qck1XFMV0QSnoE6L5cX2yzaTPYrubkr6MWv+rw8LudV+C6Xz0YaMyefXJbOb4D6b6tsqJEGi/bP0bDnhpE8/hOgXPXBwqUyUuX7EzqftsacPhGmJTseU30cwvpstU8Yuik6six4R2rw4Eyt0apfKZ/s2IemvONvI+woTzheXSIjVTYspVlnfXnTM6hXRhJxMRp2tI3VAn5VFiivuM/yBEcvPHBRsTCv2C7nXILmTM+Je4RXsWrE0oDHTuziEirtu91+pOrmLa9HxzXqis7OiiFYnnB7hWnx8vvZSQoAv+5Ovg+ucQbboGOO1KuKAKpEuppU4h7jZEytq/lRblljFthQxdmYnrxkHagMegu7Q3YkaCsaxCNnj2Ql/6/cudl7pN3/SpQ/Evqz6PSXUe3/DZ/B5vvuGXtr/zwsUDZcYrmzfeSwSnVT1HSWvGIFMSMGpyoG1x4qKoxPMv29H3exWvRmzyZ/4e/Um8IjC8rgVSk/DE/eH2fPrWLaqAT7YMtCncs2jjLqfFIXWJrPTkKjLlxUfvvWQ/fuGYLtzq97PxquuVreroqXoZ9pMNA4nKkr9cufdi4Cdjxpy+/EuPyEUhNkV7lq5VvLEovDv9Hv3JXiLVya07ivwWrg915tZ+UqY46F9Dki79HvTpB0E2ZckNvxb3f99bUWd2m/TV5C7MwvhF9+aZpEyrsnuxrLuybmODDDiLS/ep+YDFv0Ytqu2JsWGbBTK7vSmcsE9XB2A9rX0w6korSCistwJT9nvMffHVMF+82XL4XOymS9+ZJp28aYmcS0RGl6LTNcd1urRkIjJeTWx4CBo5qlGD7vJfG48ipnO/MaG/1R4f/hr1Y/3o+3T6S1wiouKTWxs+Pqn5bOjZ/bf6fQ6cRUQ2fh8uDnWul6UedpbQpRacSC5UyY2XyJbyLqnUwvQyib9tQcz6BiE5z76ZWcK+eOvOxokezKoV72/BlAaGduXIXg1x55JOdU3HdXW2YZKNQw9JRbHqVlMv4AiZ9f+hKwpS8kor8uK37j1dWlGYkl1sFLr5iEvTk9NUHHdHByebsvMpqUqu3E3CJKY4YPKibXHffDLAGL9xb27t7lTbbgESVeqFS5m/l7kGNViuZXIfvGuv7Py+jctWRH+2MUFRWtHCDlwmg8hkpLKbhUr16X071+1MKuaI60/1XCc/J2P2hYvndI4hQZzrly6eK+T07N5RpTKKuzsJiSlw6ibUXVUbG3wJZbmH9l6Sjpnqj/MKcJ9GA77JqwIZAi6TmBIHN26FotR076UMIpPx1s1rxcU5e7Zu3bzvGlMiqjfGOO5jxvteWDV2wsLVJ2svwGAK3PwFyvTsC4WcoAGuFReyL1yskPZ2aOJwiIiYHCGHScRgEjUXNc1GE0PA5RKTwWHSvQ7b+I6fIE18f8K0iK2p93bC27gGOVWkXbhyIb3CqXfNAWVpeszboSNembCxrN+kN904NkKOsRSXicDj4LqNXPl1xNRuAqZEzDVWqFRMp672XGLKnOy5ZddVLVyHq2s2EdRikNFExgqVUq08uWvdhrjTOoENh3Hv702Hm8RQWM5162LLJK7UQUpqZbmpXiIzlqb/skflNWW8V7NVRm1yMSpPbf5y1WcrNu5IV7cYHrdKC9VMR1dZ03FOdN/XUnzvuhAm14bDJNKpGswzL/SsF8tlN5vIgPd1mitkElXU70mjNpnigJljmHEz335ryZ7z5r3WBVoFk2sjYFZUGOv+vR8UXw0HRlPhwzSpVCTp1kxKIrqlbnQIWtG4QVHLo6iitFH0lRlbfLzus9bLhqZbTYQ8Q9DMTr8HzRI2rn2kZb9fyM4leWg3Zu6F7LQyYYBjh6ZCsslZoqlED2bVeutXREwGh8vhcjhMIq7Egau7rtCRLfNmbhnHVtKRiIwmE5FJp2qmdNFdO31V/OYHc0JsiXTZ65bGp6kCQtzkzJi9adIhoTYcblfOpZhzNgNCbJlk1JXpmEIbJsdWKm4QYLbyIOkvcd/fZHad5NzMwSCTyEhGIg6TmGQ0GY2k01XojBxTUWrcrxVDPp3dQxW/aGP5gz8vRyyViGUjxofWnK00FnAZpDMaiZhcB1/H8i2HKtzGhHRXJa85lGkz4ANbYYWEm3hJVRFgY1RcruB2FTOp/lWeQvfhIZLLO9f9Kv6otfYoQ3vVeMAzmESmUqOJjOWldYnDVK4zkrG0qEAneMmG0aiFjmIHW1vjqPGjauLCqL5UGwjE7TJqyTdBaVsXfZ9U4DPenUtETFu3ntx98UmS4LndxYrf9iaQwwQnIRXWtMasG+qP/lnqXts84UuTl28bfOqzpfGnX61bDRC693bYEbM3geswpfbyKhufSSsXh8pqOyHzdzVG703oNyfUCddfwaNj2vcZ45UQvfd3//ESCaVdVRu72xUri3TCACGngshoNJLRWKGrHrtMIqOJiIjbKBE01zhHIhFLfcbM6ldz4k93obaFpsPNzqZMoEu/Vmp0sFHdVJK4T0dGYb3mbHxGjuJkro9xXTjd795Kb12v7qnI3bf3knTOyhGc019GJbXUxY42TmLdb3kKXZdG2ZNRPVUwOY2+Fpv7kixX0nCeIaK6WA54U8Itq58BOQ1TcL1mOPV70kSb/tO/8RkSv2LV3ouBPfqJW/pM0AbYdPWT6uJ+TOkZ3s+eSU0MJCHnQTcSaxw+ZckplHTxms5XziWqf1xX/fSO4kaHoBxSNW7RtolRVNeO0MapYfTVbIzg3P94s9mQ0bFRyJeefNA31dIsIXT3Ee/YlcT1Gf+mz7mEmASjZMibMk5BSyHZcJZoItGDObVmfVUP0yl45uCdW6IWxhFT8vL4WW5iY5m4+Muo91McpBxiNnXCrfRS8iWma2j1n7h2vpLyvRfUIa/K3YRxxdIutkwmU2rPNV5z8rFnEpUWJq6LSS7UmYwmTp/pEfUGirBHb4f1J6+FTnfgEjVx0xWmwHeAQ8LajyMGT//Q38Nm49aI+clOEgYxOQyhgxNz15r5H9kyTaXUk5gcW2HZupi9vovH92hyIHJdQwcwFy14dw+Hw+TKp0RO7uETIPly1fuqkR/OGejsY6f7rdzdUWzLsdPtMgZ1FzO5zImT/NZ9H/W+kbiOQ2a+as9UZTfomq3frBH2m6NWraYPwlFiQT26RgPehml0NC5aurCwq73QWPec+IgJ8VyhuPuIyUFSZm7DFpj2fkMkUYtmJnE5DK7TyA/n+NUGwsRhuiPfpauNZUabER/UnbpmSuTdubviJQ62ErE7U50mHONuQ7X1FVNWO9TDRz7qR7n32ne8mn6GKmXj6p1XSivKjY5jJkruxQHXLcCp4pML3cKaOXVC3O4jp/ivXD7zX5sldrZCu5Dpc0bhRhfwKLhuQ0Y6fbJ3n3rhpDHKjTsjUozE6TJhup+Me7M77fp8/kJnp5rjHq5TUBBzbcT8a1PnTWqUCF5qekVJ2GOw3y9RH43dyeFyhUGTPnjzXgvTg5oKN26/8RMKd36+IJGYwj6TJr1kU15Yvz1O56A5QTbRq5ZvpU8m+1Vf31jXq7fHOdU9z7abfXF01LspQiqrsPFp6eNL+o2fWLhx+cx4psRrwgeTAqrrNht5SLeENQsW5k7+YGrDr8X2vhaY0gbzzNsv5Xz3Y20sO3jYNMyANqoGKbh+O7b1ezJ7yBDJqro25440bf86XqmrKKUus7qiuGoPbHpOHXNu0ZezB0WLpBKh04jZ4Y0GkinxQU00Dp9R/xp/ae3GaRPIpuuQD+cF1x3XzXUkImI6NjoE5Rgb1lemm4nLlt43iuodHy4c0Sj6ap5i2zgqmcZms6GgUZ9DHvxNtThLdO1pW5bNcLOzkVYIyxJNI7rYktCmcUjebNDevVlCP8bqt53nGid6MCOLW7cMjR7q0AFH8vDsun27dZfKEV/wLEN8AbQexBdA63mk+MLvCwMAAAAAAJgH6isAAAAAAADzQH0FAAAAAABgHqivAAAAAAAAzAP1FQAAAAAAgHmgvgIAAAAAADAP1FcAAAAAAADmgfoKAAAAAADAPFBfAQAAAAAAmAfqKwAAAAAAAPNAfQUAAAAAAGAeqK8AAAAAAADMA/UVAAAAAACAeaC+AgAAAAAAMA/UVwAAAAAAAOaB+goAAAAAAMA8UF8BAAAAAACYB+orAAAAAAAA80B9BQAAAAAAYB6orwAAAAAAAMwD9RUAAAAAAIB5oL4CAAAAAAAwD9RXAAAAAAAA5oH6CgAAAAAAwDxQXwEAAAAAAJgH6isAAAAAAADzsP77TVRWVhqNd6uqqv5+UwBmZGVlYW1tbWlp8bQ7AgBtFPIXtE3IXwDtmhnWr0wmJCdoi+7erTIYTE+7FwDQdiF/QduE/AXQrpmhvqqsRHICAID2B/kLAADMDtdfAQAAAAAAmAfqKwAAAAAAAPNAfQUAAAAAD4CLFeGZ9aibyVFfAQAAAMAD4HpFeGb9k+or49X4pZOWnlQ9+it1V7bNnvX1mbJm/lyRvyk8/LPU8r/VOwAAeEaU5Rw/lX9/SnlArmneg15YkREdPntrvu6RGwZoRXfu3H3aXQB4Ou7efbTB35brKwBoM/Tq5G3frN6Xo2nu76qM2AXjuonsBPahG7L0T7RvAK1Mdy3lQHxamfFp9wPgqaqsrLp7t/Jp9wLgSbtz5+6jrl+Z4feFm3Ng4bv/6TkvalRnplF9POqTE17vvUXblsWTVEw6dYnJrt/UOaO9hcyy7MObtu4/e03DdB20cPFbnpwmmjKWnT+w9acj5wrKGJ16hU6cNsqDcWVbZNQFroOAykuUxhd7B3c2ZudfVZcwu4yeO72fkMhUcf1I9IJ12TdM4u5j50wd1kVAZTkHtm6PTS0RdnHhlJnERGRUn4nbHpt44VqFoEvgsFmTBzg29e4AQJozG76IOu7MGzzIg89u/Ee94sDkQTMPqZ9GxwBage7KtsUbNV3srh9J7fjGW//327ZTRSaa88YB+5GfRU/ozLz/BfdlE3HRoycpozojbsvmhFyd2N2RKkxyJCloc0ymu5aWFhYW+OFjeFZUVVWZTI+8ctuK61e9gl8sO5dbZCQqzz2rFgX2/D8GEQl8p0Z+uvab5WM5aZvjcnVl57dt2K92HRu16duN84Y7NJM5mJzOvcLeW/Xdrl3LB1QkHshQG4mImKLAyZFRq5fPcvgjI+/F0ZGL1y5+U5h9+MS1CiIiYkgC31q1bvnULn/Ebjx8uaL8P1s3HKjwX7ju2y+n+wuZNe06Bo9duC7mlx/m9So6/FM2dgxC+6BPXxEospOM2aHQkz5r8xB7O8HAb7L0+rx9K8YN9Otk79Zt4KQlJ5RNvFKTEzt7dDcnO4FT33HLjir0RKRO3hYxbqBfJ5GdxGNAzYOqlA2zx/l6OEo8+g6ZvSM9c/e4QTMPqcmQEvmS1C5wWUaj9Sk2SxQQtmRr3NYZ8obvtWBG/949JCJH197jwn9sdu0LoA2qKLtp8poZ88Onbw5+N2qOj9h1WPTuXRubLK6omWzyaEnKqEzcsjqVM3TRNzHLX6851YgkBW1MVVWVXm8yme5WVlbhdhfwD1ZVVVVZWWUy3dXrH+eXvltx/Uoif9lxz/Gsmy9zrqWpxP6eYqaJmEyOgMMhInEXL5Hx6PXrN29dNbm8PqpfV3HLjVVci1+/KbGggskg6uRdvUmDwRFymEQmLofBNAmETCIGh8Mgo4mIQQyOnVdPF4mQhKEvH4nKLfrjetY18pw8wFPMpAo7MYdRve+9Ivvn1TtTrhk7Mog8K7D5A9oz9cmVC9cdot5jJ3qw1GqD1qAnarDUpFfGzhs3cz9r8JyoufqDK6MjIuUePwwiVb6GpL1Hyg35iQcPRS8WB3tNSo+KjMtxGfTGJLFeZdDqeR6vBHslb8/UiHuPHd7PJ1jaeAVL4j/jY3/S5yhY9d9Onac2yHwGesoLThw5+d1yXkDwhlGS1v8e4BlQVVWl1f6vuFhVWlpmMBirqiof70gvOLhvc3+qTiLCpsupJjTOJoJHTFIV5XTuD6Hfe/27CJjEcBRz/tNkswBtwJ07d3EtFkALWrG+IrHHKw4HjmTnc66USAK7S5l09YEvKTu9PDz6bDkR8Xt9sHhs7cOq5Nht11zC1y32ZKR9vvD443aI0ShRGq/9tnlved/Ib1e5Vhz/5MvMx20XoC1hufQZPynYmc8mff7RJd8eVRuIiFjOA2e+ot2TWCIevvWrjwdKFPwT+2dmnS7QjAga9emGUUREesWP2sA5mWqFtrohNt9r5JyhvjI2EfmEhXy3PTPPeejcjye4GnJil32VrNYTEfE8xs6ZGtBk1SQJWrI5iIiI1IemvjruSJFarSfJfZsLAR5FWVnZf/+rVqtLKivvElkQkbW1tbU1k8GwsrS0vnPncU40Psrb109Sy+fWnhk0XzZh1P8PJCkAgPaoNesrEnQNdond+dMBsnt9spjISGQ0lucXlfWTMK+fTbzOdHitsx05Mk4eiD9tP9LXnmkiYZ+F2/rUvtyojCciExmNZUUlRqaHWMCsyLuhMpHnQ7y3qUJdpK4gIV05laYSeDi+IDIKK35OPK+S9xGW3VRXmBhExrLrKuooEXek8vwrZa2clQFam3hg1KYltPCrpRNfXspyH7s2ZrH45N7tPymq/+rMH9qdpdaSev/kLvtrXiEzEJE6+euIyE0ns9TE5xk0xNMTy/Ot1VvVEUs3hQ+ICxcHR/6w6d0GQadXHo/bubf6aitWoWfY+IAmqyZNRszCJWsOZyoMPD5piaSt99HhWaDVai9fztPpKqrLqueft3Fw6MTj8eo/p0OHh15vIiKi27cfbkWIySSTscJEDZMU6a4QmYgeK5s0TlIcAdl1VKceywqd6s0suaquMDmQCUkKAKAdatX6ioRd/LtW/HbGdbinsPahij8ORE1bfs0k8Ro2K6wHV0hvzXht3dbtc+KjSey/4LP3etc9k5hCh07MHdsX73xxRcgAx8Qtc6Yd69rlRSajybdqjMFhXo1bOib7D7L3nTh9mKOQI548/OzS6MlvRAvkPo4MBoeI22XAIPGKz2e969DFRfKQ7QK0HXpqdB2UpM/UmKQ3IvZ9NXPeltjonW/vX3mxZOW9p+fv4LOIJZ+yfn5IdUHEl3qx0r+KXJ6QJ389avlAfvq68E0FRER851Gf/jx4Tsp388Mjj2zZkDhsvTOx6vb+SQbG5NyMeVDn8vZFRcZlSgZFbg2TKr6NWJphro8Nz6LCwms3bigtLCyILBkMa3f3Ls8/b/PE3l3o2n+QYMOiccftxy9fNereJVhcsYc9ffl5VKdV8x45mzROUhwmhU4clPfl4rePM8TdvcVMBhEHSQoAoB2yuHXL0Oih1jr/R8ar8VHLM1+OWtwPl2DAE9Nq4/kxPWp/mqTP3zE6KDKZnF4Z5GHISEhWGsg78tQmj+PRCWo+j6UpOBSXoPBecmrXVNf6C0v6gthpo2ceIZ/hwwJkLINey/KZMkO6e/SgdXneU1ZPtE+LW/ddiuGV6PgltDMmg/h8UqcfiE1hjY2L/8rl5Lig8BMGp8FhA18ZMX5sn/suwSIifc7q4a8uzfaKOvLTDE/K+/ZfgQvPyMKiwr0L90RvOaGufhz7A59pjxdf168rr1691qFDB71ez2azevbsxmY3PZDaWrwD/B0YzwDtFH7/CqD9YUsHzghzIkNhenaJyzuRY52JRUTE0uQf3RC9bs32hHxxyJKP33BtdAjKdh679of1E53ViVvWRK/bsD1DTSy+fPzcMCdDxpaZyw9qxM7Vl5OwSJ0ct2VN9JbYFIPPtKURfcRsWb8ZYe4sQ+Gh7Vv2pmsfpo+uw2dN8mblx0VGbldKXOzN/R3As0KlKrl69VrHjh1MJiOTyfT27tlccQUAANAWPMn1K4CnoK2NZ7OsXwG0U48aXyaT6fTpVAbD2tLSymAweHv3eO45bgvPb2vxDvB3YDwDtFNYvwIAgDaqqOi/lZWVPB7v9u3bzs4OLRdXAAAAbQHqKwAAaKOKi4s7dGD/9Vcpj/ecvb3d0+4OAADAg6G+AgCAtshgMNy+rWex2JWVlV26uDzt7gAAADwUM9RXlqjRoK2ytLR42l0AgMf0559/VVWRVqt9/nmbVtoZiPwFbRbyF0D7ZYbcwmAwMAtAG2RpacFg4BdjANorne6WhQVVVlY6OMha6S2Qv6BtQv4CaNfM8PvClpYWLBZmAQAAMCeTyVRVRTwel8fjtdJbIH8BAIDZYW8EAAC0RXq93sKCJBLx0+4IAADAI0B9BQAAbZHJdIeIbG1RXwEAQHuC+goAANqcqqoqvf62lZUVk4mf5AYAgPYE9RUAALQ5f/5ZWlVFDIYZLhIGAAB4klBfAQBAm1NcXExE1ta4+QQAALQzODUI0KZVVlYajXerqqqedkcAGrCysrC2tm6lm5sbDIY//yy1traysMDN0wEAoJ3B+hVAm2YyobiCtuju3SqDwdRKjd+4oayqqmIyWa3UPgAAQOtBfQXQplVWoriCZ4vJdOePP4qFQoGVFTIUAAC0P8heAADQhly7dqOysrJTJ+nT7ggAAMDjQH0FAABthVb7v6KimzY2Qhsb4dPuCwAAwONo4v4WVVVVuKQYnk3tazPeNyk3Pzt5o+z2nUaPCztYLwjuPL3Xi0+lVwCP7e7dypycS5aWlm5uro/XAvIXPLPaV/4C+GdrYv0KIQrPrHY0+G8ZK5cev3Z/cUVEZbfvLDp2tcJ498n3CuDvyM29fPu23snJgcV6zDtbtKMQBjAvDH6AtqOJ+urOHRyWwTPq7t12M/g7QYsMxgAAEwlJREFUMi1vmyqb++stYyWHadUKb6s+vvTdD/ZcN5r7harELyZ9uF/56O3CP4ZCcbOk5E+R6AWp1O6xG0H+gmdWO8pfAP94TewPrKysunu3EjdugmfNnTt3cf4P4KnIyysoKvpDKBTI5W5/px3kL3g2IX8BtClN/76wyXTX0tICu9jh2VFVVWUytduTf889v36Gu9/l7OCDZZoWnzh91tcTl7/XW0i67G2RG26Nne9/9ov1V4V23IpyVUVHz7CpU4M7c6niauL2dXEpV9RkH/xe1Bzfpu4zUHE18adte1Kybpokcv+x0yf2tS8/vvST2IoX7ZkVarWG4ervzbl55dofKpNo0OSZr8uJyFh27qfFibmX1YyuwRNnTu4jZRqVp2LX7/ztsvFFT/tbRnIhIt2VY5t3Hj57pYTE7oMmTBnrJ2a2xjcGbcaff/519ep1na7Czu5FFxfHv593kL/gWdO+8xfAP1HT9VVVVZVeb7K2trKysrSwICQq+KeqqqqqqqK7dyvb87Yiy05Ook43/7puJ+knLDtQ1tJTvZjXz+aV9/ZjXEvNJflYTz6dJaZ96IyP/MS6K/sXr9r+H9fIvhUHVu/IdwyL/NDPjojRzE3cOGL5gKk9X5cI6cqGpZsS8r0mi4iI0+W18Mk9ONf2Ry5NoXmLo2YwLu9Y+Hl8Tn+5CxERw2V05ESxOmV99I/b5S5zxSlrtuY6Tl68wE9wbeeKz64QETHF3UfP8Z0qFphSv47ck9K353BHFFj/IGVl5XX/v7xcU1ysun1b36FDh+7d5c8/b2OWt0D+gmfEPyJ/AfwzNV1fVbtz5y6CFqCts2aHeLCvpBf8Ju8yxqnj0fRbhuaf27dnx3Wp18vknIwr5DnBhUv5RB2FHA4Rce09unCOZ93UeKrzK+wHjA72kLRY2JjUads3/Hz2JnEYxAk0VT/IFAg4RMTgMJkcsYBBREwhh66ZjERETKG8h6e9mGnfb6j8+Pbs/960v1Bm32+oX2cuk8QOIuaV6nb/OBK95Uh2OXGIBHyjiQj1VRt26NDxv/Py557jurg42du/aPYqCPkLAACelpbqKwBo+/gvisbYMcrvyIY9Z91d+HzX87cuNHFPwRqOgb7c6JSsbMEVZo+JDhx68P0kjFd3LPxg7w0TEcNhWNTy/jUPV+T/tPU4hS6PC35RHbf08/IW27gfk1FbNTEa/qE8I257pvjN6B98hVe2z4tDadXWyWSPdi8KKytrImIyGUwm67nnOGw2u3X6BQAA8NSgvgJo16x7yF8oP3Np7Cmdgc378F8uYzr990JhswUW0863l+DLA3sYTL+pjhwiIxlN5WVFJUY5pyL7ZGaFaKgdXyhw4ew59nOyy1sBnRgmk+OEz/dNqGtAXVRd8hjV6gqGUCzgUsnZmxriPExXjWXXbpYZOwvV509kmxzGd7ITvsjcc/LsNX9pF5P6WomRXMhYoVZXMFzFQo5JffMPnanT3/16oJV5ej7a7Shu38Y9IgEA4B8O9RVAu3bnt8MZv1X/X7328y0ZD3g6U+TlJ4jdahw7o1Pd2lBZ6vY5O/NVjE79J0ztb89k0rBZYeWbdywdH23i9JwRHdmv3kZBgaMr/+rOL1eL5w/yYyz/JDzDwaWLgPFQ9RWTyTGlrHl3Q1aZwHPgxLl+Ai69PtFvxecfTdrOeNHLqyOTScQU9QrpcSB66eTkTp4OTC4D61cAAADQzljcauliDQAwsw4dHq1maOF8P/fj/7TwQt2yvg9uvez86oWxnBmLp8kfagUKoBEzjuf7paVlEln4+vZ8xE4BAAA8TfiREID2apKPbZOPs60t5/R5/F9oBQAAAIDHhvUrgCeqVc/3AzxhWL8CAABoBOtXAAAAAAAA5oH6CgAAAAAAwDxQXwEAAAAAAJgH6iuANs0SMQptlaWlxdPuAgAAQJuDYzeANo3BYOAoFtogS0sLBoPxtHsBAADQ5uD3hQHaNEtLCxYLR7EAAAAA7QPWrwAAAAAAAMwD9RUAAAAAAIB5oL4CAAAAAAAwD9RXAAAAAAAA5oH6CgAAAAAAwDxQXwEAAAAAAJgH6isAAAAAAADzQH0FAAAAAABgHqivAAAAAAAAzAP11f+3d/dBUdx5Hse/A/QMMoQZtorByACigBuFRIkc8fGyRC942ZhdTbIclpKVkAskcfU22ZWKRoluMMmeJiRKnU8rWiFUDD7slaepGOPmOGJK8XYPtIJEUAhZafYKBwVmpoG5P8jldjG6kmuYGXi//uyHX3+BpqY/8/11NwAAAADog3wFAAAAAPogXwEYEs6aHfPsUZEZOy44vV0KAADAcCFfAbgNTrVyz9tbDp5z3Gx9a3XZi0vujoiy2h8uqSFRAQCAUSrI2wUA8AeOT0teLzoeH/bQgimW4IErnU2HcxbkH1G9URgAAIAvoX8F+B/nmVfmRERF/mRvk1OcNTt+aI+yZrxd43ReOPjKkoy0WPtdd2csX/9R87fs6ThX9tyjd0+Msk6cu2TDsSaniKiVe1YvyUiLjYiKnDL/64WtVSXPLUmdMiFyytwfPrf3zNn3lizIP6KKq6rgb6Kj5myoHtCfCjZFzM5cv6t8V17SwAO61JObsucn2ickZqwsq7lZ9wsAAGCEIF8BI4V6ctOarUeaox/KfvyBaJOrwzVwlp6zuez5JfnlzclPFG3OtJ0uXl1wtFmcrtZ6h0TPWJS9MNV0/kjxui3Vak15UUH5p3Lv48sXpNikwxk28YH0FIuI2GZkPVXw0/TogR2syJl5a3MXz4q2mW6s6gs1bMrseyPU6v35KzZXkrAAAMCIxvxAYIQxJcxaujw93hIszvpj6//lmOoSETHFZ+Q/0FFxos32o12b12ZENlk+OpRf8x9fOH78g8W/KlksIuJserdjzoqzalNH/0DBlpRFKxamxgSLyPTMB39TevZC/MKVa5clus6VbdhcqTpFRMKmZK3InR1582qSntz8Vm6ifJH6k78rqPr4SO0/zZ5lGepfAQAAgLeQr4CRwpZRtH29rNlcmP23habJWW/tXmc7eaB0f1P/2njLwntMaoeoh3ImHfp6jxiXiKiVb64u2H6yRhVLmMshYU4xJT+xZZe6unD7qvnlq2zpBe9sfzb5zw/kbD5evu9A/91WpovJmUtnR95wS9YAwWExtjCRjlaHS98fGgAAwKeQrwC/5ZQBMwAjZ+Xu/vjx1Qc35z+/s6x4308Pbfqvtk3/t3n9XotJTElPbnvhwf5AZIlOMZ3ZXLDxgwtJjxVtzLCc2bpq+xciIpb4xb96/6EVVb95YVXB0Z0lJx7ZFi+mb+b+RWbsPteye3CldrSqHSL2SMuNMwgBAABGDvIV4IcsdotJXNU7C5771FX9QWV/T0j9eEvxB6olzORodrjEFBYxIMsER8/MSo+oPHq4pFxmx5hczg7TdFtetIiImCwWZ/Pp2maXiIir5t11u6vFYhHV4RIxBYeZxGLrP2Lhmi8f+PHSrFk33IJ1E67a9wrXXDTVf3ygyiVJGYuSmBwIAABGMvIV4H+CozPyMndWll48U2tb9I8FMXvWV4iImBz1x0qq2kREoh8sWvt44oAMFByf9dY7smHdpoM73+gQMU3Omv6MJWnpysxjOeU785tTFs2Mt8k5ETGJWln+23qXiIRNf2rT6lm24OD78zInV24/f6R0pyP6kaxZt1uq7d54qT12oNqVkP7k6o3PpBKvAADAiGbo6uJ2CGD4jBlj9HYJgNd0d7tvf+PTp8+KGFJTpw1dPQAA6I7nswMAAACAPshXAAAAAKAP8hUAAAAA6IN8BQAAAAD6IF8BAAAAgD7IVwAAAACgD/IVAAAAAOiDfAUAAAAA+iBfAQB8UV9fX2AgH1IAAD/DRxcAwBdpmhYUFOTtKgAAGBzyFQDAF7ndmqIo3q4CAIDB4atBwKf19fW53b0ej8fbhQB/ITDQEBQUFBBgGKLxu7u7RURRAodofAAAhgj9K8CnaRrhCr6ot9fjcmlDN77DcU1EQkLMQ3cIAACGAvkK8Gl9fYQrjEYOR4eIfO97Vm8XAgDA4JCvAAC+xePxtLW1jRkzJjg42Nu1AAAwOOQrAIBvuXJFdbu1sWNt3i4EAIBBI18BAHzL5ctNgYGBdnuUtwsBAGDQeH4g4K/ermp59eTl9u6eAcvDxwS9mD7+6fvGeaUq4P/p0qWmrq7u2Fi7ovAJBQDwP/SvAL/U5e4rPN54Y7gSkfbunpc+bOh09w7BYdXjhc/+vOKSW+8dW0+8vvwXh5oHPy5GmNbWtoaGS2ZzyPjxsd6uBQCA74JvBwG/FGIM6Nb6bra2y91nNvLiIPiZpqYvL15sVBRl6tTkwEBOYACAXyJfAaPI08+8mb3xZzPC5XrtnoKSrqwXZp56fVtDeFRo59XWzpDkzNzc9PGh0tlwonRreVWdKvb0nxWtSA3/lpE6G07s31NRVdOiRSbNzHo6e6796vHCl8s6x9mNnarqUBJn3mtuqWv8qlWLWJCT/1iSiLjb/3P/uhPnP1eV76dn5+fMija6m/+9bNu+333uHpds73JLgohcr/twx75/O1XXJrbJC5Y9mZVmMw7z7wje0NFx7dKlpj/96b/vuOOO5OS7TCaTtysCAOA7Il8B/s0SE3sg09Z6udPZ4z72ScN7bTdtaolIivHSqQtXZ6QpjZ+dl6SsZIucEqP94bxfptmu1x1a98+lnyQWzO08vGVv/YTMgl+kRYko3xauRMRsS5qfO+2xyHCpKync/kF9Sk6EiJgn/f2qnKnmxkMFhVXy/LqiPOXzvWte+9dz85ISRESUhEcLsm1q1bbid0uTElbaqt7YdX5CzroX06yN+155tU5ExGi759EVqbk2q/bZmwUVVXOn/WgCAWuE8ng8HR3X2tuvtraqnZ1dBoMhJsY+cWKcwWDwdmkAAHx35CvA7znVK69W/FFmTH7p+yGH2667br7l3GkhWz+71J5krq6T5GUJoVIvEhJuNotIqH3KJPPxmhZHslrfaZ//aPqUyFsGG009XVry/qkWMStinqP1LzRarWYRUcxGo9lmVUTEGG6WRs0tImIMT5qabLcZ7fcvTDpeWvvHFvsf2u33L0wbH2oUW1yEsa5/3K+OFu88WntVzCJWi1sTIV+NIBcvNmqapmma291z7VpH/+uzFUWJi4sdN+5Ok4k/NgDA75GvAL8XbBv70uLwseOU3/3WeYtwJSIT5qSGFlfV1FrrjFOz48zy158n4W7Yu+bnBy5rIkrcI0Ub5329uLN+/67j8vDG8vRxannha1cHWbFR+d/UpPzliqvV5aVnbf9Q/E5qeF3p8+Vcbfu6I0eOD2r7gABDUJASFBQYFKRERtrCwu4IC7OEhobQswIAjBjkK8DvOdUrL1c0X4pNPPCDO++53PyHb3mm4NeMUan3WX99uEIxpuVOMIu4xa1dbf+yzZ1k7qw9ebYzYmGUJdyaYK748P3KhCdmxyqaNmHZaweXfTOA+mV/5HGraqcSbrOGStupFoeYb6dMd3tjS7t7fLj6+49qtbilsVHh44wVJ081zoyepKmNbW5JEHenqnYqibZws6a2fHVd4wlyvi4mZnCvqIqPnzhElQAA4CPIV4DfC7aNfWmxxRprkdrzV24erkREjBEpadayXe6svNhvekPtn5Wu2FffqsTOW5Y7z240yiPPZF7dsbdwabFmnpZXXHD/n00UtE5ItDTs+/UW2wsL0pSNL6+qjkuYZFVuK18ZjWat6o1nS2rarckZ2SvTrKHyWHbaK6/9cnmpMi4lJcRoFDFG3Pfg1MPFhTmVsclxxlCF/pWvS06+a1Dbd3fzDH4AwAhn6Oq69XwiAHoaM2ZwmeEW16Ohaz+5xY7XN8z966O3/37LmjJz3rqnkm6rAwUMoOP5DADAyMD7hQEAAABAH8wPBPzV8uljd5+5cuPy4KCAp9LuvK0hwqeu2jpV57IAAABGMeYHAsOK+VQYSTifAQAYgPmBAAAAAKAP8hUAAAAA6IN8Bfi0AP5H4asCAngpMAAAA3HtBvg0RVG4ioUPCggwKIri7SoAAPA5PD8Q8GkBAQaTiatYAAAA/0D/CgAAAAD0Qb4CAAAAAH2QrwAAAABAH+QrAAAAANAH+QoAAAAA9EG+AgAAAAB9kK8AAAAAQB/kKwAAAADQB/kKAAAAAPRBvgIAAAAAfZCvgGHl8Xi8XQLgHX19nPwAgJGPfAUMKy4xMWpx8gMARgPyFTCsenp6vV0C4B29vZz8AICRj3wFDKu+Pk9vb5+3qwCGW09PL/0rAMBoQL4Chpum9XIXFkYVj8ejaTSvAACjQpC3CwBGHY/H43RqQUGBgYEBBoMYDAZvVwQMCY/H4/FIb28f02IBAKMH+Qrwjp6eXi46AQAARhjmBwIAAACAPshXAAAAAKAP8hUAAAAA6IN8BQAAAAD6IF8BAAAAgD7IVwAAAACgD/IVAAAAAOiDfAUAAAAA+iBfAQAAAIA+yFcAAAAAoA/yFQAAAADo438AHgMrEE8XwXQAAAAASUVORK5CYII=;" parent="1" vertex="1">
          <mxGeometry x="520" y="50" width="1141" height="226" as="geometry" />
        </mxCell>
        <mxCell id="cj_N3vQUKj-DD6KUi9ZY-10" value="" style="endArrow=classic;startArrow=classic;html=1;rounded=0;" parent="1" source="cj_N3vQUKj-DD6KUi9ZY-2" target="cj_N3vQUKj-DD6KUi9ZY-9" edge="1">
          <mxGeometry width="50" height="50" relative="1" as="geometry">
            <mxPoint x="640" y="430" as="sourcePoint" />
            <mxPoint x="690" y="380" as="targetPoint" />
          </mxGeometry>
        </mxCell>
        <mxCell id="cj_N3vQUKj-DD6KUi9ZY-11" value="" style="shape=image;verticalLabelPosition=bottom;labelBackgroundColor=default;verticalAlign=top;aspect=fixed;imageAspect=0;image=data:image/png,iVBORw0KGgoAAAANSUhEUgAABIAAAADmCAIAAAAiKGlZAAAACXBIWXMAAA7EAAAOxAGVKw4bAAAgAElEQVR4nOzdZ1xTVxsA8AcxN8GkSaBvElqSKFOB4AhQlKGAWrCKu5Xq66iritWKVQuVKlYqdjiKdVSFOlqKtqCIi6qgFVHKcDBUhmiCfcmlBZIGzVB4P7BCGE4i6vP/9UNJ7j05N97nnPOce+6N0d27akAIIYQQQggh1Pm6Pe8KIIQQQgghhNCrAhMwhBBCCCGEEDIQTMAQQgghhBBCyEAwAUMIIYQQQgghA8EEDCGEEEIIIYQMBBMwhBBCCCGEEDIQTMAQQgghhBBCyEAwAUMIIYQQQgghA8EEDCGEEEIIIYQMBBMwhBBCCCGEEDIQTMAQQgghhBBCyEAwAUMIIYQQQgghA8EEDCGEEEIIIYQMpHubr3br1s3Y2Khbt27duhkZuEIIGUZtbV1tbe2DB3W1tbUG/miML/TSw/hCqPNgfCHUeQwTX0Z376pb/G1k1L17t+7djTvvIxHqUu7ff3D/fm1dXZ0BPgvjC71qML4Q6jwYXwh1nk6NL/0liBSKMUYXeqV0725MoRjonMf4Qq8ajC+EOg/GF0Kdp1Pjq0UCZmzczdgY7wpDrxzDnPkYX+jVhPGFUOfB+EKo83Temd+iUJzbQK8sA5z8GF/olYXxhVDnwfhCqPN00snfIgEzMsJbKtErygAnP8YXemVhfCHUeTC+EOo8nXTy6yVgnfERCL0ADHDyY3yhVxbGF0KdB+MLoc7TSSc/ruhFCCGEEEIIIQPBBAwhhBBCCCGEDAQTMIQQQgghhBAyEEzAEEIIIYQQQshAMAFDCCGEEEIIIQPBBAwhhBBCCCGEDAQTMIQQQgghhBAyEEzAEEIIIYQQQshAMAFDCCGEEEIIIQPBBAwhhBBCCCGEDAQTMIQQQgghhBAyEEzAEEIIIYQQQshAMAFDCCGEEEIIIQPBBAwhhBBCCCGEDOSpErApjhZsjv2UX6RNr8hOL+7LsWBbT4ktkp5a6MbmWDT+Z+86JiQ2V968syw7ZulEL7E9j2PBcxw8atqq+CLV01QGoVeESpK6beFEV0crNsfKblDAhIXfp8k62l5eH5WDVqXJO9qsk8jPr/LiWLB91mbKQSVJ3zYnoK+1FZtj33fM4pjzJADIjs3vy7HoOWZnITYA6LmTZ4f7WDT3XHy3YXN2dhxfz0X7Qa3KXDOczbHou/DEU9VadiJIbMHmT9yWqwJV8dE1M73E9myORc9BU4J/yZYDqIoOTLC2YDvOj5dg3KJH1hhfPSftbWzwVblrhrM5VqN2Fz+fM0lVvG2Mld5Q9oWiKtw9s6+1vdfSpwv5Dui2BgCgIjN/CRnmaMHmWLiuSJcDgDx/o78VmzM4+DTZSVV4KT1VAjbSmQmgyEzJb/xXlxel5EgAWC5+LgJqw2tMayeRNRcURen7ggKDYuqzLHn2xrnvLtlzIVeqUAOoyZK044mnJYqnqQxCrwRZauik/4bGXSgiqUIBR12cc/pgYqbUUD2XSho7yZ7ND2hoiB++fXHs1wdygTly7lQnSA0d+27ooRyJmkoFhST91yVzV8VLVDyP2eOdQZ6+ZV0Ktt2oq2AJHJxEfKq6LOtQ+ITpazOfbPLiceMFAGQnZjo+t+mSRvLMHetjpSAcN3u8kyJ+7sQpUcm5UjWLCvLiMz8uCg4/TdJs/eaPswby8Lofcp5nTdGLSZ6ya9v5R2/wVbnfBfA49hNe1Bzp2dL7NtRkkVSiUBQWSeWdMhDQbQ1oKklikM/A4Yv2Zen+67EcJ3zox4WS2G8O5GJz8MieKgHzHDGIBUDmnSmq/8ZVZZnZZQBUpxHuQlrDNk4zNp5M/aMw79fFIiqQZ2KPlahAnhkVsjpdDVTr8RHR57ILyqUFV9N/C3HhPu3RIPSyk+Ulni4G4PpFZ1+6mpNxu6LkdnbMZBHt4Xs+E2pp7uNMlKiKTsRnK4A7aLyHgKYCmq3f4h2/3y67VpgS7skEIC+czlMAy3HCCDFAxem4MziZjroG/vjNv51LzbidEjmUCersxNisJxpWPGa8AICKlEqe+whGnh97rACA7zlWzFOpgeU4PuynP4tv3s7/dbGIClCSllIsB5brOB9bgKLjBzK73hVC1OWVxEYlPvK8hEJSTKo7tTovEr1vg+X5ecyRPdGndky164yBgG5rAABkfqGC4zJ26mRnpu5WQvcxnlxQZx+IzXvu7dcL46kSMK6HvwsToDj7VJEcAFTS/LQiNVDF4z34+qcBz9HTmQMAcqlcLc9POFYAAC7LNm780N9JyKLRWEJbGyHraeqC0CuBBg2xpW5ogGksnoBHA1Dlb/S3YHP6zzxGAoD8fIj+CiVFfszSia7WFjzrwVPWpEpU0Lhaycpr4drQOQGu1lZs68ETViQ2rAyRZccsnehqbcXm93edtCo2V64qOjDT591txQDqnFBfazZ/4rZcMvfgqin+bj05Vj0HBUxZc6JlBqUqSknOUgNL5O3KBeD5RO6PCR/nyAJgCR1tuQAAKgAAmtBjkBOA/PyJTLwGhroSmq2zpy0AKEiFAgDkRYmhk4bb8S3qgyK+frK3ndBLyWkdLypQkWk/zB8mtmdzrOx8ZoYfa7HsSnYsZPiI8Cw1QPGuUTYWbJ+1mSSZtjtkiv9gO37TekidPdoI6lZaBTIAyLP2Bk8a3pdvwXMcPGqO/hpmeV5yWjEAVzxSxAWaYMLmn2M+9rFjAbBsnGyaR10sG29XAYD0QkIexi16LFQuE9Tpu7a1sepBJTn2/RSf/jyOBU8cMPO7VEl1/rZJb0+JKwNQnF40kM2xn7L33LYxVk2rFhvufPFZlSkHkKeHDrJgc9yCT5OgItN+WDysfumsOGDmD+k6vZ79hO/2hk8b3tN6cPCFf3U+XZ75XQCPY8EWz9e/KUZFZu5ePGqQPY9j1ddnZvgxqaq9BkGWOMXagi2eErpi8QQfNx7Hys5nfv3lvvqVwz3HhIQvnTlMbM/m23tNW3uqIW5bHXj9y/L82BVTXB2t2Pz+XpNCYvNy9L+NX4pz9wRNmD5r1LJkSX05p7+f6e/G41iwrQePWri3YX6k/VqpZOkNNzXw+3uNWRzTcrKpRWsAQBMtiM/OOLVzyXjbFgkY8ByHOTMbZ2fQI3mqBIzGHTTShQlQkpVdpgKQ56XmKoDq7OcpaJWGy/LT8ioAgCVg1ZHFuVIA4Du52Dw857p7b/uPf/UJvm20UNL/x39vae+f+EnKXvPPxbtPU3EAANBqdn93m/2d/JZW/x3VPzXbU5XX2/iIBxcT/+qzvvLi3WdXDYQeB0vk7SIAIJOD3Ad4zfn+6KNf7ycvJKRI1TSqWlFyNGpWUFzTyE+dG7frFMlx8rBmKUpO71j/Y7Yc5Pn1i4RJ4aDxvgJ5yq6gRVuyNVSWgF+/tphr4+DiYWNeeSR04a6j2QquyJqrlmaevyDRnaVUVeSmFwOAUOTIatkkyLIO17fpw0RMAGAJxLZcAEV+mhSbbtSVyKW5UgDgCLlMVdGBoLFB21IKSDWTBRVFKbtmjZ0V08EcPlU/XoQsRdqaKaPCDmepbUaO9eZJkjctDPlRtwQqkyuoH9YwbUViT5ENS5UT+0NimlTNsnVw4iqyDoXPDEtuTpfaDeqm+rcRyJnS7I3LQn9MKVAJHOyY6tz0M7mk7n4qSV6OBIBqI7bV66ElF46mVwDwXX1tWADAsnGxpQKU5eYZbA00eikwxZMX+XGhLD7qQKa8xZUt2bGQUdMjj+ZRXUeM9qTmJ0QEhx4upzIF9eujqAIHF+dBtha9PH0dAdSF54vlKrkkPV8CAEX5WaRKVT+8FIiHiahpa6aMCvs1S6qgMplyaU5C2LsTwlIbY0dxOiJ00/ECuUL309WS0xuWROSoqQ6LN6+eYKvbacnTvpkyfNmvacUKNZMD8vy0bFLecYMgPbPtUD7YiF0FajLv8Lqo5vUd8vR9P55XCJ3FtqDIPb5l3cESVZsHflAKqvxt0yYG7ThTRKqpLKq8KDtTWqP/bXCpOvUE2bGQUYGRCdllaiaTqihJiwsdpbuCuo1aydO+CQ6NuyCh8p1smbK8C6eLFDrh3Ko1oLFYbV9n4zg52wBAYVa+DJuDR/N0T0GkcTxHiKmgzk3JJ1Xy3PM5JFCd3mlefwgAubuDh/sMtnN+d1O2Grjek9+xpqnq/3WZQiq1vYIb1V4/X7U450F/b9ODM9iL+1LYlKeq76Opq76lXHdSefleXau3uvXp+9pi7x59ehigGgi1hecdHjHbiQoAitxDkVN8HfpOappC65DN7CM5GVfzL51cJKaCOjPuRNMEnzBw65HEmJgdmxaLAKBCQirkRYkJ6Wqqe/jJ4z/H7N0aPoIJRReu1vpt3PHZMCYAVRy8I+nU/nW+3W/L1ADOC2IOnczMuVx4YrWn7ohNTRaSCgAmV8Bq2UWkborYVwTgNHb2yPrGgsYRcgFAIZFUYNONuoCKrN0bQlcsnjA2KIEE7oiPPnCmSlIOnCIBRAuOFF+7nX94lTMVFBd+TMlv74wl+GP04mUkNT/2eAFw/aKP//rzzq3RywdRFQ1Tk/V4Qz+LifATAoDNexsPJR3Z/J6d0H/rhWu38zMyU0+e3B/qSQWyOKd5jWL7QV2vzUDOuvk3KQdgDgrZm3TuQsbt/N/mO+kOqdSyIlINwOIKWoy0VNL4b9YmkEB1nzrfgwsAQGMKBRwAkOVV4MQJehxUoe+C+e5UdfauTcfKdM5Z6em4ZAnwP4hLOrJ3W8zm2bZQkZupHbl5Y7A7FYDpuSzm1ImY8KGC+kUTZHGORF6Rm1cGAKDOT8urkEtyJGrgOvu7QE7s8QIAzsios7dLLl3dMVoIUHT8QNPFXpZv+JHsgvKKjI2DXqt/RUWmhoftygXOyIhtIR4t74iR5cQeLABgekb8frsk42pOxqnPHeUdNwhUcWRcUvzObdGfj+YCyMliWVOuZzP75xO/xezcujHQGgBIKalu88DT84vyEmPTFUB1WHzokiw/42rOyY0jvGbqfxscnYrWlwPCwOgb+ddupzeuoG5aFti6VgoFKVUAcEZ+/vO51D8KSzJ+fl/3Eko7rUEbaCwhhwWgJktwtegjesrH0NOEHn6uTJDnpeZK89Oyy4DqONLdusU/k6IkN6+EVDNt3adujds605YGNCYNAEAhUT/8X0l1tw6grhq69bF/bYYzjQ0AAPLKeyFRZebLpWMT71YDqP65u25rGXvh7V7rKnaXac7EldFWVZxRaON2SGhr/r6o0Oz+TmL+naLxSlddecE//qtum0dUbLrT+EpRVeAaCS1Y6h3375Vb1TP2q27/q34/XBr4591DP5YZLbxttLwsMPFuubb2coZ88WHl5eYLX7XXs//2X3WbFiwdm6rGsSPqfDThO6vP5V88siN8/ggHFoAkZcuSqAuPfBcGy85XLARQk2Uy/UETldY4JyKXFksA1Onhbwks2JyBQccVoFbJWsUrSzR6sjsTsiO9bPqPWtr67lu1XAUAVBaL2dwmyPNjlgVvywOqc+iG5e4N+RqVxaNSAdRybLlRl6DOPbRr245fTxerqc6hP29+z46mlhRJ1QBCZ28nFgDLxtOZDwCyvLJHzz1UCqmEBCCTZzlbsznWb4VdUINaru6445Dn7p4/TGzF5lj1HhuZpgZQQetAbC+o2w5kusP4EQ6guLDE3cF10tr4Ir0jUMvlagCg6YYtyDN/CF4SVwZc78iI2U35GotKBQC1QoGdH3osNJrj5EXvCaHiaNS+5nXycrJQqgAo+zFwAJtj0XPEliIAlaqNToFl6+1pAyDJzy3OTytS245414WpKDyfn5tXIgGmk6+YVR9rVJuhLnwa0ITOPrZMALJY0tjFsLgCW6FuTqE4/U14QjEIA9dtmGGjl2s0RC7VcbyvdeMc4yM3CMz2rjRQm69BtHPgCmmxBABsfeqX/z1cQzkcF18xjwY0gfswWypAhaSo1cxmU62oHM9APyFUJMwd2NNn5sbTelez22wN2jkeJpMKAGqyc54F8hLq/pT70wTuI0XUtPScoyncwiKgivyGtbhuC06LDp/83Fn3JRrXxlYAacUVuVnFKg/nDv9Ru/XxZM279s93p/6xP1U5xPv1uNFUAKBSuo8dze6V83dgxr9nfChw+J91ih6Hwhjlx8h5P3VL8qP2ytFcvKW+dacO7mkulmmuV0L/4TTz+qtninvh+5WXzZiHAqlnfqxYBwD37q2LU1YP/M9lG/XinYpfnLmbht8beLLb9k95ga/XlVtz/zehW/nVv/0Py08M5PTSq+A99fZjNeV9ObeGU1RgbKgnIaBXHkvgOW6O57gxQ5dOnLinRFZULFc97jNsHt5GstwXbFjuzav/g8q1FdFAr29hOQfvTbLb/X3MoeTTe4K9jp/YemjrZJ0WgAYAoFY396Dk0TXzlxyvAMHorTtmuzZfLlOrQA1ApdEeelUcIQPgf3Do93DmgSljw9PyzmRJZrs6Pbuyud6R3yxwapx74Ir0R3u65Oe3BC07nCvwXhw12xOSVy/al9tR0W0HdatAFvBcfjvnsmXj7hNHU7bMcj9xes9vW99pbkAawlCtVgGwAABUhb+ETIm4IAeH+VEbZ+pcLqsPbCqVCtj5ocdCBZ7H7MW+iUtS9m0i9Zp9/vhv1s20bXiRJXDkQYX+7iyboS78bXH5p4+dKCQ5ruPGcMnD27JPnC4qBqbjSBeO/vbQ+BHtT/FxuRxSWiHJOpEl8R4pfC4ntP6Bs7ITO/9DacJx605yxZt2Hz56PHl14JmEuT8d+dK9qXNu1Rq0T93YHnRibV8qT/1DzDS+5ztiKpTFRx3IUoPTiEG2Dz1vWY4TfB0A1FnfhCz5ITVXJgcAlVwqaStrpr3O2BQirPr0P5H2RmfTqnfLagGA9hplYC+iF68bDQC096/Latk8ah8epX8vY6jU3jEz8TZ5cCK75rIJLZBXe+LqvctAGWvbvb5eqnvaW/egvzO9v1l3cxMAALXi/vXK2uTDFfYbFMn/1lZrdVYeau9fPPn3wFV3BsarZdo6lbbVokQT6rzhdHZ2Rf/1/8SVPcC0H3U6lbw5UOQVZP3sFK1pJk8hJxUqUMnbnYRSFWblSACoAnEHj71hCWyEAPLiYjXT0dPD3dPD3dPFhlf/GTQA3YEey2bkx5vijydtcKcCmZOm+8w3KovLogKo5Q3z4/Lc3SHBe0pAMHrrnnUTdHs4tZyUAwCVy6XiQA51ESyn90ICrUF9YWNUskRFFdoKqACyvDOFcgBVWVZeGQDwRPzGMGon9HTihcYUCLkApDRXzXWpDysPZzu9MKS1WPYnK8opBBD6zg5+38dTZN3O0KaNoFapADoKZJbTuM9iEpOOLHIAKMk8r3vzJZXFpAKAXF5RP56Sn9+1JOwwSXX4YEfMqqG6Ez1qOakAABqXiY/QQo+NZjNh0Xu2AM03YrG4dgImQIWkCGyd6wPE3UnIgub8qanr4TqNEHOh4lRcchHVxlPk6CniqPMOx2YrqCI/VwGtIdbUxfVLfGV5qUUKAK6NUNBedsB0XbRulTsTin8NDjug96OUjaXlHz3ftGDyoQ3C42jnwOvjF4oupLW8TN3q22gux0nAAajIPZ8vB1CROWlSNQBHaMvpsGOl8TymRe787eSeqUJQF2br3sSl3xq0TyUnFWoAYHEftlgRNXjqBAxotu5+TlRQkwoAB0+PjibzGrE8F61e7M4EdUFs2H+9RA5sjoW5zZCgg2Wthox11WV3zxTcu6wAc6YRldLNnGKkvwmlex9et+pbd8+Uqk5cvQ9mlF4cmn8vo7M5qmpej0Cbbpdz7t5i0rzNGo6UZtK9lwlcv3rvuqK2+j4AAJXZvY+Z0ZBh3KrNPeu+emOdLQW6A2hrb1XeL79dsynjfp/RvOsf9Ojd4vYzIxqA6n6t6n6duYPpiTDzcDPNuuN3Wz/PA6FnS569YZjAgs2xshO79bR5O+hQGQB/aOAgLpvJ4zIB1KfDJr4ldug797D+46WKd03xH+7lM2RiRI4a+BM+9OngkbUs0Zjx7lQgk4N8HXjiwV4+w1195sdLAGgcIRNAnbM68O1hk0L27VvqJR7s5R8wbMTMdelqYDp6CnWejETjONlyANSSPKkaQJ61JWhZMglAheKYZf8d5h8wzD9gwooTMgCVvKyQBAC+k6D1zCVCzwvL5cOPRnKBPPT9tmy13djZEwSgzt4y0We4l8/E0HQ1cEcvHudIo7Ufei3jJV7hOHmEA0BJ7Nwh5tZuXj7DXQcFBJ9uObRi8rlUgOJdU3yGj1p44C9zGyGA5OCG4KXzRwWGZ+kNgtoKapaARQUgj6+atfSEqs1Avpg4c5Cbq0/AMP+JQbsLAPiuHgKdUSNLKLJhAcilxTI5gCw1dGFkmgKAqsj6IWiUf8Aw/4Bh09amyQBUFYXSCgCqUNTuqBahDrCcZweP0G3zBUMD/YSgztrx396C/q4+w70GDR71XbaqIcQUpxcFePlPCT1NAgBP5O/KBbVCDcJBTgKmnYcjC9RyNTj5utvSAHiD5n84iAoVCXMDXH2GD5/7qwSoLnNnD+O1Xxuq48xvV4/kAnk8POiH7BZhyRs0f7qYCorTy95+yydgmM/wUWtyeO01CE/yTbR94FTRex/4MkGds3rs214+AV4+AcHHSND/NnQvDwqGfTjGCaBozywvn+FeI4KPksDyXTDfuf2sUF0cM2lw30HDh/kHTFx2QAJg5+zIaz6Glq1BR9RkkVQOwLVxxEeaP6KnT8CAZus+UkQFABD5jNR/alI7eO7h+8+ejFow3t2BSwUq19rFd/R4Ues1pnXl16r9t1X4bPv7g4y6sSNMx/JaJWDQ3X/06yE8zbwNFZvumWz6L3tgD+OBfak8gD721P4OBPse9Opr0qspfWL2CBltQrtWPSBctqn+vhkTk/D/snpdqzBdeNvoU9n2srpeDq8F8u6HRpWHVFD8+XXJCaR/orq8xYd26+9G99beC0muiT0s67OiPFxBDR9N72OIZ4SgVxpVMGiYr9jJhimXlsmZfKcRC6JTfo8ZJ6CBYOiHU12YAGo1cP1WRYWPbLkmkes7e7xQXZhXJgfO0LCNke8IOvoYmuP8HT+tGivmAqilZTIV8GzEQhYAS/zBotG2AECWZOVJa80G2LLKcrNzsvIqaO7vbti7cXKLK+BMobMNFUBWlC9RNaxhAAC1tCArO6f+v7Q8qVwF6qKcIgWAwNGp9QNUEXp+aEK/xXPFVCiI/fpAIcs/cv/W+b4OVLIgV0q19Z0dHVd/Ibf90GsZL2pgen4e8/MiP1smgKKskFTTuNauLR9iRrMdExzoQAWQSwtyJYrXBy3ZGDHaCXIS4vJZvu96PjyoaXYjFsz3tWapywpJhRraCmQLvpMtSPJysrILSK73/KiYyHdalMsViYUAIMkvkqsAGlcQK8pyG8M263yxDADI4iwpAPBdRB3PryPUDppg5KL3nHQigPfO6p93zB5qQwWoKJIoVCyBk5ALwPVctGAoFwAqirKL5fVL3bjikSImAAidHYU0GtdmkBMVABw8G34GieY0fWt8xLsuAnVRXoGcKx4fFh3zYQeJCAAAy3Z0ZMRoIaizIoLDT+vOYdKcPty4da63LVUtycvJylOwBFwqr70G4Um0feA0m8nfbF01woGlLsvNy8klqUIute1vo+kQPEJ/jgsd6cyR5RUUqaw9AyN/i5rW0e+DUZlCEVdVXJCVnZOrth65KDp6ubvut9SyNWifqqIwrwyAavcojzdHAABgdPdu8z+eiQnxHKuC0PN1756mU8t/BeNLVXRgin/wafWgyNSf5re7OlmetiJg1I4SYeBPJzf7dDBBiV5oGF8vDFX+xrEBq7OpI3f8/vO4dmdqZMfme00/TIoWnDz0mSuOuZ43jC/UKR6tNWju64//1PKpqi+JzoivZ3AFDCGE2kSz9Z75Dh/UOfHHStqdPZPlxB4vAXAYP12M2RdCzx/NeuT0QSxQpMWlFrYXtyppWtwFEqiegWOcMPtC6GX1KK0BqIpSDqQpgOv73siHPwcCNTBeseLzpj8oFOPnWBWEnq/79x90avmvZHzRhbbcf0rLFPIeA4Y489pqmWUZvxy40t1h1mdh420ZBq8fMhiMrxdH99eFfVhk8V//1PAGeju93sbTklV/nfnxeAmj3+xVS/x74oirC8D4Qp3j4a0BqG4c/fkMyRwU/OUCT97TPly9a+qM+MIliAg1wCUcCHUejC+EOg/GF0KdB5cgIoQQQgghhNALDBMwhBBCCCGEEDIQTMAQQgghhBBCyEAwAUMIIYQQQgghA8EEDCGEEEIIIYQMBBMwhBBCCCGEEDIQTMAQQgghhBBCyEAwAUMIIYQQQgghA3nmCVhV2rfBS/bf0AAAkKlrg0MOlj7Zr5dpru2bO+qDNelVAJri/Z/O+DajEgAqM9ZMm7LkSJkGQHlt30cfR1+W3YgP/3TGrI/mzv905cEbynZKU2ZGL1mbUt6iKpryzHN/lj9C7TSlvyz7dOe1mkevvLIkI/Va1aNvr6PmctSnIQfLOvcnFdGLS/mQE77yzPq54efKH6PERw4E3Vo0BlTTqa6Rngj5OOrPyuZiC/Z/sbLD8G/at1Wd29+3/NzKWWHx0vp3NJIjX8xde056JXrG+A8mz/po8rTgxu9EU5kZv3L+3MmzPpq7LCpZivGEHomy4VwKnjEreMm3J4rb61F0Vd5ITS99lA07o4R24/2Ryqwp/n17yMcffbQtpzg9fs2y4Bkr9iVFha080k4HpKm6fCZDgsGEnoJGmrFlxUeTp300d37YxnTymRff1J21Nep7knIeXfu94bPQGa0Eeq66P+sCTd8a55nwbfKfwy37y84lyXoHzrN8op9Prym+eoOw50rP5FW6e5n3tWOk50mUboSsUKYhlNfvKEdxlddvaATjaVcSkolRG6K9zDosjuEaGGZPMWtRleprJ5MvjwjRAMwAACAASURBVBS/Zf7Mf99dU3k1OUnD9bA3xZ+OR89WefojnfCP40kCoTGgNJLGU73VJoTDuIWLoYMQaA6Tx9jXXORjvT8piwwQ8AkNeeVClfVIkSkUMuzHL18VIFTmbFy9L6nPygDYv3J7qc/SjV/Y0x/9oBACgIZzCcqSVq//5arb5+6tz88WlLI/k37nWLtYMp60uX/6Ep6wzMobSUdJj6UbAnjVSav3M96L2O1KB2WVD9FO2CpLU4+m9e/rJnx2rQ96tVTmbFm7TzkuZPfb/M4ZHTV3Z22N+p6knEfepYMe7RnojFYCPV/GK1Z83vQHhWL8DEo0e4N+PfHI328Yp/8udZ/6fj/j0t+3r1wb/VN8WgFF6Gxncjnq880V9oPtaHeOfLnixGsD37yyesnOYycSk66/PtCdb1JfirL0UHxJ//eHGf/5p1Ff994syD15waifm9mts1eMLRlVD6zdeNKDKXL3sR7GWUnp//Zy6Stk6FReUxa/clWSiZunwKT89/Uh+x840Y6t3KVwdTNOWvH5D0ePHUgpo9Rkxh7OvnI5J6+Sy1fs/iwWPLx6Gl/bt+zrqwJ3YWn0l8s2xyX9nlHKsHMW1F5LydIMGOLMqT/xay5HfRpy+FbFrSunDqdeo9s7W5goryV99fX2nw+mnpcxLbtf/SHmVM6lrIvX1N2u79leIvSxqz21JjjiquUwN3r94YsfnP125fofDiSfl75mP6CnyV8nVjR8Caa2xkVFLLEH49JXIdvzeC5vWZg8/T8KehT37z/o1PKfSXwppWktTnjljZ0rNhVaezqZKVLXfvbTA7e34NKhExlXziXv+SW5gNLb2Y4o0D9da4t/j4mI+jn+cFoxw5JduH/Lbw2BIOJc2/n19h9/O5VZ84ariEsAQHnKyhUJ4ObCubX7o4UJ4OZpqTi5YuUpCiNr426FA6ew8VQHy97GeWeySm7+mRT7a/zVbvYDhOWxazbdtPFgZaxcsvPCX+WFF04lZigEjjb1PaLy2rH1Oxv2FZr/k5FdWJp18ud9SedV/IEidvHuNZtu2vj0Io9FbVq/Lyn5Kti52ZgZA4AJy/jasbMg9rIxkWXFndH6TfTmKC6dyqd7ePdmMYwVGSm5Fv05GfEX35yyYEQn9fHoSbwQ8aWRNZ5LSsmpk5eMBwxxNrkWE/H1+j0JSVnkfxxF5lXHVqxM/Y+Xi7kmZ+OynX8LTC7u/vX01fycrBITkYv5X8eaOgKRiF8fo5Vn1s//6uwd2a3MlGOpMtP+9lyozDnw1abN+48lZ9W8KVQl79zfUIK5cu+6Q63DjekmLNwduXpz3IHf8zQCkZNZ+S8h9R3Z/yzeVF39y8Knb21yxBd7/7YcKPoPAQCVOXs2N5RJeb0qZmV0fQ8r5uV9veLrnQeTU/PvvWn7n+Lfdv6cVpiXk3HqaPIf16WF+Rl//H7sl58SMpluPr1UF3ZErtwcdyyd5LmILUwANGRqzM5f0vJyMq7c4Yic6Td0v5bG/rfmctSnK2NT43+7cM/O3uTSvsZ2xs75P//TjWWiMOkrnR7w3rnIJbpdsAvz1MqGA+zVl1+8r6kmve+di2kus9eD3P2bIrYkHDpbyLAfYMl6BifAi+uFiK/KS7F7rw9YMHcgp7EwTWVOy/g6uaJlfwHpHYZPXwfzezm/fPV1ZMyR8yUm7OrkXQkN3VnvB4krdylcvd4oP607BP2PUj8eKQX6Z5Gm+Pedmxu7RbHI+OIOnegzbxySachUndctq1KberRWvaENQ9mizkTG+o+/OpZ0MOmysWiQHdP4cVqJB9o/t+6tFnkJ5Yc/m7VdIR7qoDm3PiT2gdjxn190Q5KQtNdKiFlXt+t19OhhOiO+nvkVMKi/CBa3Yv1OU6+wRXwoSdp6FAK//N6TyNu4et8v1ov6td6DYPutWuOnM9OgLEm7RhngZy/iCZKTr5I+b1u+JahJvVbGu1kjcPcx+z21pIRfUMV9y5puzpsVVLJ91+IPt/JEE+bNm1A/4U3wPYZwU9MLK10sr2SR1sNFpnCpsWyK9aSVwe6moClTZZVJxkYEu9LLzyTrH8L8iNj5oClJCtmeWtzXs3WNzV1GTR/HV6ZHhRy9FGBvkfRT3luLvvrctHTn6v2X314ybUiaEuZtmGWpuSI/faBQMsSioMaUob0hKYcrUraHn/yXrWlmM7+K7adN/TZy6++WYf2avgTt5ahjGmnaxjN5xNRP5rh2ylQKenGZu7c84QVtbMOw9g1aFSCUpUSs3Zfab6Gg5enqZ1az6ywn6Jt5QlnSyqi0utBJAf3qAwEKoiNlLvO+H6dz1dpM5GGafLmkWlBGEjxtgbS6n/KSxtqvNy0NAOh9/JpOdZCeAILrMfUTP96dX1ZsTy5x82mukIXfpKlvMcriV2xOLvGy6UcHAIZ9877KM+sJswHvLw0QVp1YuTbl8nC7+hn2ymvJyUrfL77z1Z2FNOvjab0/+YrMC65lVFr7OZgBSBvfqywrqCLMTSnKKi3Dno79CnoCymsJIfOTNVU1wpELw1zhz2/3Xes7b8eXluVH1n8dk2EzteXWrP7vv+eWeahX2Cp/oebGzu3NHcF52YAJgoZzkOB5TpjlZV6esjIy5fIQC/gpQfJ2yA534s+oL5IkXsFNJQAJpqdbh9vrWdG7ZJ5f7PI3K4lfuX2/9Sq/po6s8sx60BYmRSVc408Nm9SbUf95ZuKmWpnLTpzT6WG/2OYPUJX27bqEq15fTJp0/vqR/qEr/czK4ldvlry3Mrgf/Bn1RQKA7Ez03jK3sK0BNozGIyW4Pv8dlXrtT58vP/Exq0pr+bU4fNZ8TZ7oO3PDrN5ESdLK5nYmNce4qjmWlTe2bG/RAy5gQCsNB1j+e+TKxppoWpZZLLRISKcHfrnRE6/IvRg0ysoaMDXVuYZT9WdMq/hq2V+833H4XO2rzNqXKZi1I1zEAACNbdn5hnGdMjMNADQ3U1oOQUMn6BXoIPpd/ywibLwnBZxtHB/+HvmLbvR9Oe8tBgBA+Znolq/PbL83dOp3VrfOXgsAwMxt+aoAG51e6lFbCWVG8em0EplIcw3MofCajDTNquK5mxfHbG0Rkkv57bQS/PLoffodPXoeOuUhHITAK6APXfi2nwMDlLJSJcPOxowAM8v+vJpy2d22dqCbErpnQk1xemFlTWFSdML5ypqS9Lxyjam9C7cyKy1TRnewsrQ2q7qcniFliOx5BBBcz1krd8d9/8VwTdL2hILGFbLmfT15sowr13L+rLLzaXFFmGA8fGFg1eWD29esjfpqe7KksqaDVcAEBUCrgao7JVLy/MF9W/alltO5un0Bw9rNWpN35eolpZWfD/3WtauXSugD+vWQyTTcftamQLCt+5oqb5KaFl9CVcHRhGuCSXPccWYCtaJ3wrd5ZyKFzSCA4FnaM2okldrmXSkAWs3dO6Xl5fnx0dE7D5YSPI7OOUZ3mDTV9cr6ydPCNp5pvAmEYNu7s6VZeVdK6D7D7Wqu5F25WiMYZNnGeAkACLopnQCgEADtRU270URhMxhAUOgENFfYzHXqNEHKkmlzQ6Izmlfjm9n5WNdkXrlxJavGelDDiLMyK+aDgHFDp22v8p75vj3dzJSuqcRbVdCTYNiPX/ddyJy+bILHZWhqZDLCug+fAYTQms+ouiXr4F5gZbsdQSMKaLSgqZFJSemZ/Vu2xZ1Xss3olOb32w43nrqkmmHf25wAhsBSAKS0WqvTkWkqs47Ey8Szp4rbTUMaOxeN9NzOb9d/tXb73iyyw/C4W1lCElZ2wrbjHKDV11LefG8KwTCjEwBKWYt25j8DdGK56k4bPWCrSjNMCYAa3ZrolUlwPYMmEXFBH8wIj7/8bO+3QZ2CYJixiZoaTdO/98Piq+WJ0Vb4EFqZDHh92+mSAO6SekPQGv0COR2fRTWVetFXpenw9aZj1ekNtXfbCHkKu53FhA9rJczsPARVf17JKwBRQF+i4EpeZpWpp5VJWyHZZivRVkePnofOuAIGQFDoDDqDTicAGDxLhvKWRAnmxJ2CKro5rwcAaLRaAK1S1k5uoyw9f5P7/ieL/MwBlHlbVidlyjz97EVETEKmYFSAGZ3Rh34t5pLZcD9zAjTKKiVhakbQzQXcFhFoLvIRHIn76Q7RZ6ZNO6NFAkADGgA6AQRotBoNKJU1Sg1dW5YR93vNqC8X9pclrdxe/fDjpXMFPK5w3NSAhvlOTTGDAkqNBoBgWLpaVe86WmM/ya+fLG3T0Ryz4Z+Ym9bwGCnXZDWeZhrJ9RpGHy4BureimjqM9eNd37fld+6nnbVOGr2o9E94CgGgrdRoQVNd2dSzaKuVGtBUlhUr2W+ZUfRK6MG1NDfXTJg6oSEuNOS1xkAARu8J4d/7ZEav/Cm12GWqAwMACHP7AYyDSak838X9uJKzCclgOc3aFEoaSiOaTvXHP5amfdtn+tasiN0jz321Oun8203XE0wdBlnujUlIZljObrzFy8xl5rpVAcLGSgjd7TRRCcneiwKs8R4w9PgIvsckcXJUwp/uU3k8yLxJavpZlEvLlKaepvQaAI1GAxpNjbL+3CUANFoAAIZeR9Be4XQejytwmbTAu2FmUHmlsYS2w83CrIqtzCqt1Fiaye5IgevRg1KiU5yZy/gJ9JytMXZh89yarxU31apZTcHBhGuCRevG0c9/G5naURV7mFlzlWcLJcreer0npb6pIOh6X4tZq06WwWvZzgBAUyx7vs9jVOn2gPSWXbBOMXTdmrRRpvu8711GJa1dn3DVq783t6NjQl2AWR83gTLul/QBwd58Ato4kUzpD3vamX74VKWlQ+rVUqWriAGgO66r37wHV28ISgeZfonmbZxFTeWYmlm3jL6GpRX01q+32xtSeuiFfOWZh31THbUSpg4u3L37UxkuU993uZQck6zhjXpfSC/uKCRbthJtdPToOeicBEwHYe0bNHLfrsiwOCB4Q6YusOdqqrjl30YuSbcU0IFoa8qu8lraNcIuoP4thoUrrzrhCun3tsjeNK5c0NucIAgBn6EptXbhEwCVJSlbYtJKlFqNlu4xL0TnTDLtP8hy65nSgHmWDIA2Hh1DsF2HWyZv/jxk5Lzl7o5m26NDlqVZ8yhA0CmmltbE/k3LPjUntJUwAAi6uWnVlpgE11VT+7d5pjLsAoYTK1d8FE+nEwzR7NBZ/V08ed+uXyIbv3yRv42LhfJstYMV15xuodyv8enHJRjE9JluW36KXKIBhtWooLf5hCyvRdXM3RaM4++MXL8RPgnGHAzpUOqd8GaExkqzcnVYSR++qaZpm6SQaUkMU26/cbN8BERByxIIvtsoXuTKoFQGncKwHr98kVtjIEwfozz+YxapqdKYjfukafKb4In6MfYn8SzNeVwHgsw0neRgBo0JGCFsPNWDxz/uoTTv+6G47S1k6ds37rtRWVOtsZo0ndccBwx7T+uaL670DWxnbgUY/cbPdl8XEfTfnTwLc1MLv3mLJuDTONDjYNiPGm/9RcJBMmzmJOn2fSHpGqD3njbPTci40w/2f70szMa6YWDEsPbxITaHLCuds3SmXkfwVtvXpEz7j3Q7Evnp5H10BsPUZ+Yn7zeXMM+nrXBjeE+dVrLv6xUpQJh6zJz5lll1iW559F4+i3zMotZHRMMXs9zq77FsqtUHU6ybtjPvyy+Pivwo3RSqasxcOjp8nvfU6SXbI4KSCJ542iczPesTOzORX9/kTSvCCmZ9Mqfl12LeqgRC0KKd+eCt/B9/aYxlS0ezlj2gmaxFF6xbjrluTRaOGsVb31Tm4vHaPd8lSZU1ldB7QR/Mvl4EZgPmTLq08tuFI6I4Ap6p9biFwXonkjblYUXoh8+E/069tnn73Glg1mfU8qW+TeO6xVYAAISV3hCUrmmZgGnvpKxZ3eos0hkfho3Ti76GTcz1o5LQtNsbsvXq7Pfwb6rDVqLPAPOqPIq9hZmgxrQqRTuutzmYmumH5J0W5TW3EqpJxmf3XdLv6JHhGd29q276w8QEh/ro1XXvXudejcf4Qq8yjC+EOg/GF0KdpzPiC3+IGSGEEEIIIYQMBBMwhBBCCCGEEDIQTMAQQgghhBBCyEAwAUMIIYQQQgghA8EEDCGEEEIIIYQMBBMwhBBCCCGEEDIQTMAQQgghhBBCyEAwAUMIIYQQQgghA8EEDCGEEEIIIYQMBBMwhBBCCCGEEDIQTMAQQgghhBBCyEAwAUMIIYQQQgghA8EEDCGEEEIIIYQMBBMwhBBCCCGEEDIQTMAQQgghhBBCyEAwAUMIIYQQQgghA8EEDCGEEEIIIYQMBBMwhBBCCCGEEDIQTMAQQgghhBBCyEAwAUMIIYQQQgghA8EEDCGEEEIIIYQMBBMwhBBCCCGEEDIQTMAQQgghhBBCyEAwAUMIIYQQQgghA8EEDCGEEEIIIYQMBBMwhBBCCCGEEDKQ7k+zc21trUbzoK6u7lnVBqFnwtjYqHv37t26GT3viiCEuijsv1DX9HL0XxhfqGvqOvH1VFfAtFqMLtQVPXhQp1Zrn3ctEEJdF/ZfqGt6OfovjC/UNXWd+HqqBKy2FqMLIYTQiwf7L4Q6D8YXQh3De8AQQgghhBBCyEAwAUMIIYQQQgghA8EEDCGEEEIIIYQMBBMwhBBCCCGEEDKQlzIB00hPrJ23+phU8zwrIUv5ZubyQ8+3DgghhJ5KVf6pc0VVz7pUTdmx0LlrT5HPulyEXmU1l7csX74lp/oZFqnM2z1z7KRRDf/9N/TEHRzWoWfipUzACFPR8In+DqbE864IQi8BFZm2+/uNB/Pl7b0vy45dMaUvx4LND9iWqzJo3RDqZMrS9MSkzCoccyHU9VF6DfZ/Z7Blj2dYJEM0I+bQ/iOHYr6d5WI54J3JbhY4tETPxFP9EHN7EsM++mPA0sgJvQgNeSryi9Pij2fA7jVJIOCCkqzQWnjPWTTR2ZSoyju2I/rQxVI5YTcibNUMJ3pzCVU36t8CK693F8wabgV3/ti7K/ZShQZ6WPlNXzyBczEy8jTbATLOysSLF7IPbC59JzLUm0dobsavjij0WeR0Pvaia+8BvRhw5499u3anFJAazsD5ocvd4GKLcnqRKbE749KvazjOE+YsDrBlNFdBczNp9Ur9Olefav7cpd8GwuFte47n/aUxtRkcOGeOby8GaKTnYrfuO3td86YT/64GbDvj60XIoOQXtn0TecqGOXKEI4um/6ZKkjhrRNBRnMhHLwvljd2rtst7W9w6ntHjvRlvnN19rkwLi95L5I//KmpaL0Jns9DIKww+W1NVUUX0HDNvzpjeGt0OImoeJ6e+9wGOk+/7QVM9BAQoS0/u3PbrH3cIKztOlYbyPI8Toeej5vqJPTuTCqq0YCoas2DWcCudsR9o7vyxb09sSkEV22HErKAZYorextyy5vB8f44wJVE1PeLjQaagzNsduu3u5M+G5MQnatiuTq1GmPzSY1v2HrtZDQS33+R50wfSCxK3xybmVBC93WfMmz6YT7RfBzZAzfX4rXvuuC5f6i2gtzoghJ5Ip1wBG+j7ZtWlgjINQHXBRZLjNeANCgCwXeeEfrn5+4jJ9MydcQXKqsu7tx0i7SZH7vhh+9Kxli0ikLwQd4wUBW3f/fXy8f24dI00ZVcs6b584/dRocM1Kb/9UaYFTY2M5EyM+CFmkYujl7spmZ5bDaD5K/fSXStP+9cb8kqNNHnXjoweYz7ZsG9HxJwBLJleOQVXf40v4M6K2Ldl6XS3N9uY1dCrM4DO576ZF73rFAxZvnHz+kCLG3u3/najRnnj2KboAv7UVft2LHvXEjtX9OypstZ6cSx4k/ZKVKDK3TmKb8H2/z5XpSo8uHaKv1tPvn1f/5nhp6Vt7CnPj104sa+1Bdt68JQ1JyQqACDTdodM8XfrybHgOQ5veFGWvm3hFFdHK57j4FEL92blHJgyIugoCer00LcEFl5rsvWucNGoHM/A8Oi46PmilvUsOhE+abAd36LnoInBB4vxuhh6gdRU3dGKg2J+/vL9kR9FLnLh2o2JOrB/u0721YDgeM0LXb9lw2o/bWL0ses1uh2EQ1Xyrh0ZPSau3By9cgw9Y8/WlDuamvw93/5aJgravmPDcn8OzqOjV5DyRuLOZO2Y0A0xGz92Io/F5rSYvVMWnozNoUyM+D46YvYIyx5tbtwUnu95eIqJWxcLqwFqSjMKQOTuxG4sSG+EqbkcG33GNDBi+/cRcyyKfk26Wpjy6/Ea77Ad369fNMaJS3RQBwBQ5v369b6s3JTYTdFnbtYY5ntCL79OuQLGEw2xij+Ve2cIvTRTxnV34hJaIAg6m04HAG5vMUdz4tatO3dvam3fneDdh9tqf4Iu4FPKUn79zXTsCM9+PLibk3dHVpr4ddhJiuYuWd3Dqgb4QJiK+jvx6QBAWLgONj17MY8caFlwsabXaBEHMuoLuluaV2Hq+fEIcf0l4+o/9MrR/MeKXv1b3G/88e8Mc+O26g7160xq3oSmz60pyi6jOM8a7synA3fMiJTIi6UVpPZKFd97tFsvBgFcSw5xozO+XYRaIc+sC9tyFAZNnu5IJUm1Qq0CaHGxSiWNXTol6BB15KLIxarD66JCQkWOP48AWZEcBIPGi9RFKYePRq3i+opnZkWGxuXbjnhvJlclUytUTMehvuK0PTly7qDJY71dfAX618B47vM/dwdVvoSq86LsxJJps2KLgSvyGyli0uRqtV59EHpSdXV1//777//+J6usrFarNXV1tbW1dUZGdQBGj1WOr+/g9t6i0C3EA2wfvoidQjelEwDA693fNOFyWQ00dxBQXZpXYer28bDeXALcJ7qd/DrvFmlZdF1r+65/fx4dNBa9TInLj1Vh9EpRqzXnzl0Ui/uambH/+ONiz578nj35V64UGBlB374Ot25JpdK/vLzcKiurcnJyhwwZpFZrsrJyHB3t2WzWn39mW1i8YWHx5rVrhUZG0KePXVnZnf/9T+bqKq6urs7Lu+7m5lxbW/dY23frBo9Vn/aOq6qwqKzsTuz6sF9BW0VWC2q0GoCmUCPYFtyas7/FHYOAYQNFUJWmv7FWNzyJXoMH9NiScatKRM++AU7TbBlwq74cJVmgO8JU3ii4XlZRE732OgHaqr+UvdV0MRcSjsUmUMb4uTu3jPSWdSCgYRXiu9Kcs7HRsVviLSKn2eLsCXp6nZKAAddxqGXi8bwi+o0Knlc/AQE3H7pL1fmI4KiL1QDAGvhJRNisr6LcMv84cSjiROaciMkA9D4BH6+e0DQBSZ7S3ZfgiD05pzIKbtRc1ti908cUlO1+jF45AA4bnTLSTyd/90naxNWzKHuWN9Vh1eRHONCmcnSuduGFL/S8UG09ps70tWHRQFV0IvyHE6QaAIBq4x80VBGfUsEdG73hc3+ehHX6UFDu+WL5OJ8JX26bAACgkvyi8FqUQ0oU9QXRWOLxi0a7CmkA4BLo9+OenEKb0Ys/n2anzo9dsyGNVAEAMB0nL5rjyWujHpL0A0eLgTs2+txO/7beR+hJVFVV/e9/JElW1NbWAoCRERgbd+/enUqhGHfr1v3+fW0nf3yLTmpxi6nDdm4Ro9R3B5QW3QJ2EegREATF1tbqtdcYAGBjY8lmMwFAIHiz/l0O53UqlQCA1157zc7OmkKhEERtr15COp0OAD17CplMBgC88UZDA2xmZkYQBADQ6QxLy54UCqWuru6xtn/c+ty/3+59k6aiyatXeTd2DZqbe5d/knBbC0CxHBMZMTlso212xpnj27447fvxHEJvY1C2mNemW3m5MqLSc/PYN4j+0y07XB3I7T8n4uNBpk1/e0R9dfliysndX5zMXvTZsJy17dRhaeOIkS4QDxuTd+brO2QNYAKGnoHOScCA3cfXNnbfr4lg8e4sLoAGQKOpLiqr8uYRty6m3CIs3+llAVaUM4lJ5/njXfmEFkw9wnZ7NO6uUVZpTUUe71qyybA9OXdgtIgtTTmZ7TV9EJfQ1FRr9KOMEIiH8JITY1MoVlNtTaEpAethKeJUJR06Lp4+1I4N2u6WeuVQKNqaHn283rHia25+e6WM8rFuHW4m6deZq5tJ0t905mtjUy7LRB700szTJMvJksPVvknEn7lY6i7orSVLK/AeMGQgXP/IHeEQtmH19CGrqQ6TN8es4p5J2POrpP5dG9boflRSAeShWb0PNewhVAMAmfZdSOiOM7kksJhqOTBVQHWasTGaDFm9I3h4XDDXN/TnHR856X6QSnoqbl9C/ZoRaolT4FRPXusrWyoVqVABCIUCVmceNHp1KBSK69cLlcq79X++/rqppWVPJpOpu42JyeMNiu7de7QHaxAEaDU1WmjZSYHyBmhryDKyBkzhxrlMGdvRiq471djDUsSpSjmZGzDHGQpOX7rL9+vF5QIP0k9l3Bro/2bVnVv4YA/UASMjo549+fX//+abTXlRwxo7Or0Hnd4DACiU7kKhRf32FhYN6RCPx6n/Hza7oQ3u0cOkRw+T+u0tLN54su0fqz7tMbWzpcSfPJ7Xf4aIDTXVVcC2mvb1wWmNb9dUVxG9BvlP5sNfX2bcMpqgv7He9AVh4TqQ/W1iPIVwm2NFB2hcH8jgOuiOMAmugxXsOp52yymgFwNqqmoodM1d4PYfNq0XnVz9243qGe3WoYgUV98kKZZ2FlCanphRzfO3wLvA0DPRSQkYmPZ271Nz9oLdWKem+YaavxIj50aUanniMQsC+zNMYcb8d7ZE71mUFAVc9xVf6cxMaKpzE3btOVcg03KcfCfOsWMLLGfPJXftDJ76pYZl6fbOgvnu+p/HdRxssWdjqfuc3nSdyUhC4Dt7btmu3asX7tRSek+NiPRvWc77trl79yTm3K4xdRgWOL25qk306gy6i5W5A2fNvrltz6IpUfUP4ZjYm87QvDvdbe3Xn87cQ3lTLO5B4CQJ6iQqwT/0lQAAH1BJREFU0LuriucxJyb1vZCDG4KW7oqN2vfBoXVXK9Y1b160l0UFqmj21mV+9RkTSyCmZm0IjUguFL0bGeHPytoSvKMYAIBlM+HL30YuSv9xWXDo8V3bUsZstQFq0/JCnn9M/p2Yh1SOxhJwWACyomISHIXP6pDRq6qkpPT2bWm3bkYA0L07xdGx9+uvmxns003tho1gb1s55RR/asT6CXq3gd3NjVudmPeXlu86fd4YK3qNTgJGCPxmzyV3bfloUsNDOHwtCIIzPTBrVdSn47f36O1mS8EOAr16GL3HLAis3hn10SiSwrVznTh/+js6V66UZZk7ohMvllbTLV3fneVu2Rv0NtZfN0xwxG7s2GjN5Pk9W8STaX+9EeaM+e/siF47NVpOWDgMDpw+QntyZ1z69SoKX/zODN8WjwDQqwMbMrOTErfc+EtD7+kcELTYr9W9oAg9EaO7d9VNf3TWDCJobiZFRuQMidS5jtzlvYh1Ri102vn8hB63Pm1SFe2d6BOaBtZDRziqs5PTpGpwDj23w/FUVDLJYlLlxUfjkiXO4ef2z7HTvTSlKo6dOzHoOLiMHeMppKpVCqrL7PmCAxNHbCl0nr1xOj8zbsuP6eqhUUnhsC8mG1gsILMSY9Opk+OSNtiemeITfFptPTLQf+i4qZM9Wt0GBgCq/I1j316dJ448/ut8JxrIUoPG/je2GITOo4c6c1mi0cHvO+PVsFfck8XXrVvSmzdLTUxM7t27Z2JCGzCgL43W9u2EBo535Y3doVHyyS0WNSH0zLzo/Vdn1wehp9EVzueX8nfAEHpp0QT+8wOtQV2SlVdh+2HoZBugAgBQ5UUntkVt2bQnuYjrF/75e3Z6Y1SazeTNP2+dbkOm7NoUtWXbnmwSqCzR1MWB1ursXUERh+Vcm/pbWqhApsXt2hS1KzZd7TJ3dYgHlyb0nh/oQFWXHN2zKyFL8Ui15PlE7t06391ann34xx0HsvAh9eiJyGQVN2+W9uhhotWqqVSqs/OA9rIvhBBC6AVimCtgCD0HXe18fiZXwBB6QT1ufGm12vPnMygUSrduRmq1xtm5f/0DANrT1eIdoafR1c7nrlYfhJ5GVzif8QoYQgihLqes7H+1tbWvvfbavXsqGxvLjrMvhBBC6AWCCRhCCKEup7y83MTEpLKyksl8jc/v6LlqCCGE0IsFEzCEEEJdi1qtvndPRaNRa2tre/fG3/NACCH0UnmqBKwbpm+oq6p/aDVC6EX099//AIBcrnj9dbNOWnyI/Rfqsl6C/gvjC3VZXSS+nipE6m+PflZVQehZ6dbNiEKhPHw7hFCXVP+by7W1DywtO+uX5LD/Ql3Ty9F/YXyhrqnrxNdT/RBzt25GVGqXOAyEEEIvDa1WCwCvvfYak8nspI/A/guhzoPxhVDH8CIxQgihrkWlUgEAj8d93hVBCCGEnj1MwBBCCHUtWu19gDpzc0zAEEIIvYQwAUMIIdSF1NXVqVT3jI27EwT+djlCCKGXECZgCCGEupC//66sq6vrIvdJI4QQQs8cJmAIIYS6kPLycgAjCuWpnhGFEEIIdVnYwyHURdXW1mo0D+rq6p53RRBqwdjYqHv37p30jGm1Wv3335UUSneAzn2GNcYX6po6Nb4QQl0EXgFDqIvSanF0iLqiBw/q1GptJxV++7a0rq7OAHd/YXyhrqlT4wsh1EVgAoZQF1Vbi6ND9GrRau//9Ve5qSm7W7dO75swvhBCCD0vmIAhhBDqEkpLb9fW1vbsKXjeFUEIIYQ6ESZgCCGEnj+F4t+ysjtmZqZmZqbPuy4IIYRQJ2rxEI66ujojI7zvE72KXqz1SN+n3/nqzO2qe/f1Xjc16b7Ct9e8gW8+l1oh9MQePKjNz7/WrVs3e3u7510XhJA+HB+iV1YnjQ9bXAF7scagCD1DL9DJf1dTu/pUaevsCwCq7t1fefJmjeaB4WuF0NMoKLh+757K2tqSSqU+77oghPS9QF0kQs9WJ538La6A3b//wNgYFyWiV9GDBy9M0tKD6HZPW9veu3c1tXTC+Fl/Zk12VNhuelDkLFtGy9elOWd/izt0upAYHfHVXBH9WX8ueiVIJHcqKv7mcP4jEFg877q0UpV/Ko9w9rI1Bc3NpMiInCGRq7x57W2sqc6O27ol+Qqp4Tj5T1881ZVHQNWNYzuiT96o1hLsnkOnzXlX1ONm0upF0cXNe1mM+Paz/okrIs9VN71EES/a8IUvkZu0Z0d8ZmlND0vxO3PnjXVqvTaz6nzER1EXa+r/eHPiV1/N6E38v737j4uq3vc9/uHHrEEGZab9cGjDoIAiprAljIvp1jymj9Ad2dFse+i6cWd4Ag3znrI4xzLMnTt3ZYcd4uWHR+txOHaxtmyPv65kaW6Lh0J0IR6hBajgjcU+dwZjENYC5v6hmaG5rWSGH6/nH/6xZs2az+D68X3P97vW115RtGnrvipVrNGzUzOS77Yq4mzYl7tlR9kZpxI8fXH6iqTIALm2MPMP/NN8c1pY4MhZ/cqV4k0JGVszpxmqt2es3a9+83ViHn85KzFEq9jy+Pojl1e03pO1OX0y54wBgvYhhqw+ah9+J4D19Li6u3s4xjDUdHV18/Pej6A1Ht+xs9IUPjFcbfB0LRioTp36orHxvMVijo6+w9O1XEdb/fGSPaaIhEjLTTwYv7ksP+eYzM/84xTDp/mv5ueEBK+dpZcW7nMkrMpeONp+4JV1hbtjNiwdn/S7/0y69A5nVWFWjj0yKCT2me1vPyMiIlrjBxvWH4oJMYm94ZxMWrohJUIail/dkrcn9tXfhPWqQnO2a9a71jz/9Iwr2Uz9S17hCeuSDW9F6R8V/mtOblhE5lT7gfxdjqlrc/7ZXL/79dwtReEblo9ruU5hPy4OWeIvFW+vLtr0ZtOUBbEWEYleum33UhHn53u25FSEJCeEKCJOXQ+487GNmXNC+3yWAdxitA8xNPVd+7D3RMy63u3t7cVIXwwdLpdL1wdM99d3eUfFRrw0/Wfjfbs+rz37P/53y5nrDEu8rDRrZZFzZJA4m9X2oIR/SF82LdRZuXl9sUSbqw7U2NJeXm09mVe4++P6dlN4/KJlKfOjzaKp5TsL8g/WtFknRIhTj+69TcU2Z+2mOWI/8XJ1w5WF9up9eYW7P65vVcbNfXvT0r742hgc/vrX/6qra2hrc4aEBEdGRvST605b7fZ1W1ujQhr2l/k/vPTnR7Z/2KhLxsMltgUbVls0relI/tpd5bUOS/S8FRkPTf5OLFOrjp0xJay6N9oaIPck3/fBhmM19oQwp4jJ4q+IEhQeZjFo35ngSa3cVyFxabFX9WxpdYcPNYbMXBFuEmXivMs5LWy8VanQdU1E1Mqiwh37y847zRNS1mXOF6cupqtzk2Y/06gHL4oOs1hk9pJ5H64/XuWYoJxqNY2LjbKaFeui5LJP8z9saAtXrleY8/MDO/L31Nh1sUTPX7FsToQ0HX2zoOiTFk38I+5LeXLhxIDvOS3YK4o279EeeGrV3dYrfxPn5+9s2dEUv+apmaEmERHN6TQo/lfP8abZK0sKi/d/8oXdMHpKUsryhRN5AEu/RfsQQ02ftg97BzCXy9XRofv6+vj4eHt5CUcaBiuXy+VySXd3T1fXAE1fYgz++Ut3eWdvLzvy9U2tb4p6aM2yiRZ7Zc76gqKyyGeiRXO2qIYH1+atipCazWt3q3Gp2ZnBjXu25OQW2zalWD8s2FxmSn7+jdm2lpKNf3jvZj7DXrk9d7canbwxM/Z7h2lhSLLbvx1g53C0fvVV88WLHcOGDZs0KfpnP7vNg4Vdy2lv0pPSt2VEWhRJHHHxn/aErN2QHKFodXtEN5jjFj+Wajpfkpufv3NCVFrst4NytXa7XSwJgQEiIorFahZni125Z8as0RtyszJr50U5PrPMSo36Ni1p58pKay1T1467KkDZa/aXtcf8Jj7oqpTSVv/B/lpDzH3BAaIeLSwodU59cvO88WZNTIpW325vPL5h+RFdCZ6yIGVFUqzFOtpmqKyqd8ywmBUl0CSORrsyJSTQWV/T6AyLMInJbNCaHLop/trC2mpL8g/q8zNfm2E5s33jlqKKCSmOgiJ16prNc6zqoU2v7DqaMDqm+nqnBfuJvOySCoehMVvXH0+ZYVNEpK26eNNbJ1U5/brIimUzI0ya5tTVitzHH8xWrJPuXfbY0gSrYgqbsnjV7AyrST20YWNJ+fTI2VZ6x/op2ocYItzTPuwdwC7p6uoeuK1SYIgwW4bf3vX1Vxdvdn3FbDKJiCUsLtyw41RLW7QoBnNU3IQIi9JWW1OnRy5Kig+1SmjSnP1lh6oaW2yfnLckrJodZVbEEGE1Hb2Jj2hTa+r0yEULZ463/vjvhQFh797Sn/L24cMDIiPH2GzB/bAZZzCFxN153TGHisk6aXJ0SJCMnDsr7OPDDaoWG3DjvKA5muv1qGVPJ4c7Pt5TY3c6nJpc7gJynt5/uCUiaWrEVVto/mRflTJpzdW3Y6kn8l8pscelr4kzifN0eaNh8rL5d4d/k9mikrcWJ4s4m2tPbM8uyLM+/8z0+KXLzuRsXXm/3d9mVexOf5v4j1+Y+lDhlsylRWIZadFatKjrFqa1nTrd2NhU9OraYtHtqiPUeeF0dVNzfcmmtYcMWrvq8I9wttZe97RgiX9m+9sr6k/senNH3tYj4c/PCVUkIHrptt2LzlUcKSosynknZONvIkOT1r2dJKI56sqKNxcWlIY8Nc/qrN+zJe/wF07FIDJ6svYT/tvgFrQPgVvi+gEMQP/nsDsdw4ePHya1N9cD9rcZLv1rUAy9Fl3mrM7PyCpVdRHThNSXM+fb+K166Bo16oc9MMPHx1dEFMWgKMbhw01+fn59U5d7KJdDlOMvG9Zkf+wQkcAp/7R6ikXs9a1tYg0Qza46xBQb0HI8v9r80OLIUIuEWg0564uKoyIvPa7GXlH6sTZhxZ1X/VbhbDh64HzQrJSIK11i9sq8jVvKrckbH4+3iMj35hNTUFTs3bZdxfWt2nRrUFzy+rxkEdHq96175XSUVRFT2LyMTfMyRMTxUXbWrpAQQ9PxXb0L++e5Ipbo5KxvnzLiOPqJaXzSqqyFV+49U0tFep0WrggIj38o6cTRwtOqfuUuL1No3Oz51R9salKdEnl5mWKOiIuP2LmjVtUnnyraXh+5OmddjOHEprU/KdIDwABCAAMGqk61OftMzJYnpr3U1fXVmbPp7/zf2u+/B0xEs9c32bUwi1r5XrUeviQkQBquvBZgnRBhOF5a1jAlMbix7EidhM21jbSE+Ktlh6qSUicrLXWqUw8XU3TqtuLUG3xGgHVChOGDkj1/sS2Itym6YuIZZ4NWTMwPe2bGxYsDs3dDUUTXnLqIIiKa5jjdaJ8ZpDR8fLhBCZ9ntcau3T7tyrrNMrroreL3Eh6bYvi06GCLbcEEs/+nirOhqt5xt8Vsb6qpcxpmmAwiIlrT0YOnLbNWXf1gQ3vtofcckZeeVyEi4jxd/GpBRUjKxrSZl/OMJXiyTc97t+Qj6/zJVtHEpDhVp8lqUURr/OyjRkPErJGKaG12PcBiEq3p6DuH7FHJ4y0iTkebwRygiL16365q84ykYMVQc01h/pZxkYZ3Du2vjl0abRanwy7+4dHmc4cPlU9PuduqaE6HZjJHXHNaEGdTecV5U3hkkH66ZE+N2B6yGURrrPy4yRA+LkTqj5eUOYISQ0yitdnbxWIOELHXVtbpI+dbXfbqFk2ZaDUrzlNnmnWJcdt/KwB4FAEMGLC6tIN/Lh/z55teXz3y+srcKrs5JjHlyQSzOK96yRK7NG1eXuFLv97abgqPX5S2aLJJkaSUuadeWffbUoN10mSrcv0fvXuxxC5Nm5dTuCNjT7ZYp/5n3qof+p2AfsUybvZcc+7zj5TalqxbqSiKwbF/4/INp/SghPkrFsd+d1YGCUpIXVG/JWfjE/nayJjE1CdnhQQo5tSFn21Y/49/FhEJjFv29L3hioi0nTpUqgbPTRj9bSeyppYf/FTuTIv7pkusrfZQSXWLQ3LTjuWKiJinZm1eNWVZSl1u0esrS5wS/MCGDYu00py3jpfXtyjWCTMWr0pJMIvWVLGzYPuxGlULjJq+aM2yeItIW/3x1wt3l9e3KiGT5i5LmxuuKHLPtYUFyPwVix352SvvVw3WcfEPpaXMm/XYcrUgf/WS32mB4QnzVqQ9OP46p4X2xrLdJVu/ULWRUdPnrVkyM0iRNt1Rvqckp/a8Zho9OSn9yfvCFHHWHtuxfU9lraqbx8UvykifbQvQZs2JOFyQsfzQ+KjgmzvFAMBg4NXe3unpGoAhYdiwHzZg7wY9BgHP3eiGrLYXZ1y7sDRr5f7opzYu7P0Ya+DHuYX787VOnKgQ8YqPv7Of1AO4GfszMLgxpQMw8Dx61+3XXe7n650xrf9NZQsAAIBv0AMGuAm/aGIwoQcM6Dvsz8DgRg8YAAAAALgJAQwAAAAA3IQABgAAAABuQgAD+ilvjk70V97eXp4u4afi+EK/NQiOLwA3xiUI6KcMBgOXYfRD3t5eBsOAn7OJ4wv90+A4vgDcGBMxA/2Ut7eX0chlGOgTHF8AAE+hBwwAAAAA3IQABgAAAABuQgADAAAAADchgAEAAACAmxDAAAAAAMBNCGAAAAAA4CYEMAAAAABwEwIYAAAAALgJAQwAAAAA3IQABgAAAABuQgADAAx4LpfL0yUAntHTw84PDDAEMAB9qfn99LgQc9yTpc2ergSDGm1QDFns/MCAQwADcEMd6rHtb2z+02et3/d6c3nRvzzyi5EhZltSblWHW2sDvtHV1e3pEgDP6O5m5wcGGF9PFwCgf2v9KPcPG0vHjvjV3ImBfr1f7Dhbsmxu+l7VE4UBV+npcXV39/j48Ksihpaurm56wIABh2sVMJB0nHxp+siQoF+/ebZDOqry77eFmBPfqOroOPWnlx5JTBhtu+MXiY++8N6567yz9bOiJx76xZgQ85gZj7x44GyHiKjHtj/7SGLC6JEhQRPnXF7YfDz3iUfiJ0YETZxx/xNvnqz4X4/MTd+rSufxzP8WGjL9xfJePVx+xpG/XPxC4c7CtOjvLG8+mf/o390RZIudvvy1Y9crB7jldL2bO8EwpLhcLl2n+wsYeAhgwMCnfvD7tTl7z4X+KuXhe0ONnRc6ew8E7DhX9NQj6TvPxSzd+Npi64nsZzP3n5OOzubTrRJ694KUB+KNNXuz120uV6t2bszc+ZFMfvjRuXFWudAxYsy9s+ICRcR6d/LyzN/OCu3dBxY0Ne251IXTQq3GqxY2v//7J154t1rGTZsZGdjxfWMXgVvL5XJ1dOi63t3T4yKJYRBzuVw9PS5d7+7o0D1dC4AfgyGIwKBhjJy25NFZYwP9pOP0gRf+5wG1U0TEODYx/d4L7xxusT5Y+NpziUFnA9/bnV71ly9a//7vFv4ud6GISMfZ/7gwPaNCPXvh0ob8AuMWZDwQP8pPRO5afN+/7ag4NfaBJ5/7zbjOz4pefO2Y2iEiMmJickbqL4OuU0dzecneL8T64OZd+YlBze+nV//3Ivf8AQCRrq5u7gcDAPRnBDBg4LMmbsx7Qda+lpVyT5ZxQvIft62zfvDujuKzl14dG/jAJKN6QdTdy6J2X37HqE4RUY/967OZeR9UqRI4orNVRnSIMWbp5kL12ay81XN2rrbOyvz3vJUxV39Qx7nSnW+9e+mOL+OXMYuX/DLomtvCpKNVbWwVGRcdGtiXXxoAAGAgIoABA1CH9BpkGDQtddv7Dz/7p9fSnyooyn7rt7t//39afv/t6qffDDSKMfqxLU/fdykxBYbGGU++lrnh4KnoRRs3JAaezFmd94WISODYhb/b9auM4//29OrM/QW5h+dvGSvGK8MLgxK3fda07W8U5+cXOMJPpPULtVUmXpvPAAAAhjICGDCgBNoCjdJZXpD5xEed5QePdYqIiPr+5uyDauAIY+u51k4xjhgZaPzOm/xCpybPGnlsf0nuTvnlKGNnxwXjXda0UBERMQYGdpw7UX2uU0Sks+o/1m0rl8BAUVs7RYx+I4wSaL30iVlrG+/9+yXJ0665Dewa1uiZMSMOHtv5bLokjpPPSs+JhN7yPwQAAMCAxEM4gIHELzQxbfEY6fzyZHVL5D9mJo8Vo4iIsfX0gdzsnNd3HDxtve+F5x4e1ysk+Y1N/uO/b0kZqx4ueD07J3dHuSrGwOglTy4e01lekL7hz63WsVYRETGKemxnwevZBUXHO+9anvXsNKvfqJlpiycYO7/cu6Pg3ZMXbqrIyIdf+2Pmgsly8k8lJ1ptMaQvAACAb3i1t3d6ugZgSBg2TPF0CYDHXLyo3fzKJ05UiHjFx9/Zd/UAAOAp9IABAAAAgJsQwAAAAADATQhgAAAAAOAmBDAAAAAAcBMCGAAAAAC4CQEMAAAAANyEAAYAAAAAbkIAAwAAAAA3IYABAPqXnp4eHx8uTwCAwYkrHACgf9F13dfX19NVAADQJwhgAID+RdN0g8Hg6SoAAOgT/MQI9FM9PT2a1u1yuTxdCPAdPj5evr6+3t5efbT9ixcviojB4NNH2wcAwLPoAQP6KV0nfaE/6u52dXbqfbf91tavRcTf39R3HwEAgAcRwIB+qqeH9IWhqLX1gojcdpvZ04UAANAnCGAAgP7C5XK1tLQMGzbMz8/P07UAANAnCGAAgP7iq69UTdNvv93q6UIAAOgrBDAAQH9x5sxZHx8fmy3E04UAANBXeAoiMPC8cbzp5Q/O2C929VpuGeb7L7PCHp8S7JGqgJ+ooeFse/vF0aNtBgPXJgDAoEUPGDDAtGs9WaX116YvEbFf7Hr+UJ1T677Vn+ksz179ROHptmuWn6vYt3nN8vsfXJlX7ez1mta4L3P5S6Xqra4Fg1Rzc0tdXYPJ5B8WNtrTtQAA0IcIYMAA4694X9R7vu/Vdq3HpLhpAiWt8fiOnZUSPjHczJy5+EnOnm2sqfncYDDExsb4+DADGABgMGOYBzAklGatLHKODBJns9oelPAP6cumhTorN68vlmhz1YEaW9rLq60n8wp3f1zfbgqPX7QsZX60WTS1fGdB/sGaNuuECHHq0b23qdjmrN00R+wnXq5uuLKwrf5Qfm7x0SYlYtxIu0Yww99w4cLXDQ1n//rX/xo+fHhMzB1Go9HTFQEA0LcIYMBAFThq9L7F1q+aLsow7zOVdVkn21pvuL4p6qE1yyZa7JU56wuKyiKfiRbN2aIaHlybtypCajav3a3GpWZnBjfu2ZKTW2zblGL9sGBzmSn5+Tdm21pKNv7hvZupyfnZjleKGxPSt66bINUF63Idt+SbYpBxuVwXLnxttzuam1Wns93Ly2vUKNuYMeFeXl6eLg0AgD5HAAMGMMf/U9e/feZT3xEvLY5IOV+Tff46N4ZdoZhNJhGxhMWFG3acammLFsVgjoqbEGFR2mpr6vTIRUnxoVYJTZqzv+xQVWOL7ZPzloRVs6PMihgirKajN1FPW+OJz/XIRYmxQSbRQsIsSuUt+qIY8L78sl7XdV3XNa3r668vXJpn3GAwhIePDg7+udGoeLpAAADchAAGDHxd2ue6cabFW87/tO1cGjBoMCiGXosuc1bnZ2SVqrqIaULqy5nzbd/TaGbg4RCwd2/pD1rf29vL19fg6+vj62sICrKOGDF8xIjAgAB/er0AAEMNAQwY8IzDA2feplfav/fJHCIiotnrm+xamEWtfK9aD18SEiANV14LsE6IMBwvLWuYkhjcWHakTsLm2kZaQvzVskNVSamTlZY61amHiyk6dVtx6g0+I8AaGSSXt2NvarBrt+YLoh8aNeqHTdU1duyYPqoEAICBhQAGDGDm26zPLxwuw72bP/pixw3HH4qIqEdeX5lbZTfHJKY8mWCWq58bb4ldmjYvr/ClX29tN4XHL0pbNNmkSFLK3FOvrPttqcE6abJVualuLUt8yuKT67KfWbDVPyoh0sCwssErJuaOH7T+xYvEcQAARES82ts7PV0DMCQMG/bD4sgNGqwBz93ohqy2F2dcu7A0a+X+6Kc2LgwjE+GWuIX7MwAAQwrzgAEAAACAmzAEERh4Hr3r9m0nv7p2uZ+v9/KEn1/3LbPXvTG7j6sCAADA38QQRMBNGLKFwYT9GQCAH4chiAAAAADgJgQwAAAAAHATAhjQT3lzdKK/8vZm9mQAAH4kmnhAP2UwGGjmoh/y9vYyGG5qWjgAAHAtnoII9FPe3l5GI81cAACAQYUeMAAAAABwEwIYAAAAALgJAQwAAAAA3IQABgAAAABuQgADAAAAADchgAEAAACAmxDAAAAAAMBNCGAAAAAA4CYEMAAAAABwEwIYAAAAALgJAQxwE5fL5ekSAM/o6WHnBwDgMgIY4Ca0QTFksfMDAHAFAQxwk66ubk+XAHhGdzc7PwAAlxHAADfp6XF1d/d4ugrA3bq6uukBAwDgCgIY4D663s2dYBhSXC6XrtP9BQDAt3w9XQAwhLhcro4O3dfXx8fH28tLvLy8PF0R0CdcLpfLJd3dPYy8BQCgFwIY4G5dXd20SgEAAIYmhiACAAAAgJsQwAAAAADATQhgAAAAAOAmBDAAAAAAcBMCGAAAAAC4CQEMAAAAANyEAAYAAAAAbkIAAwAAAAA3IYABAAAAgJsQwAAAAADATQhgAAAAAOAm/x+neC08FwDjCgAAAABJRU5ErkJggg==;" parent="1" vertex="1">
          <mxGeometry x="520" y="390" width="1152" height="230" as="geometry" />
        </mxCell>
        <mxCell id="cj_N3vQUKj-DD6KUi9ZY-12" value="" style="endArrow=classic;startArrow=classic;html=1;rounded=0;entryX=0.002;entryY=0.209;entryDx=0;entryDy=0;entryPerimeter=0;" parent="1" source="cj_N3vQUKj-DD6KUi9ZY-6" target="cj_N3vQUKj-DD6KUi9ZY-11" edge="1">
          <mxGeometry width="50" height="50" relative="1" as="geometry">
            <mxPoint x="610" y="500" as="sourcePoint" />
            <mxPoint x="660" y="450" as="targetPoint" />
          </mxGeometry>
        </mxCell>
        <mxCell id="cj_N3vQUKj-DD6KUi9ZY-13" value="&lt;div&gt;vpc-0350cab0596911533&lt;/div&gt;&lt;div&gt;vpc-CloudguardNetworkSecurityCheckpoint-VPCStack-18C14SQZCJZFP&lt;/div&gt;" style="outlineConnect=0;dashed=0;verticalLabelPosition=bottom;verticalAlign=top;align=center;html=1;shape=mxgraph.aws3.virtual_private_cloud;fillColor=#F58534;gradientColor=none;" parent="1" vertex="1">
          <mxGeometry x="264.75" y="870" width="79.5" height="54" as="geometry" />
        </mxCell>
        <mxCell id="cj_N3vQUKj-DD6KUi9ZY-14" value="" style="shape=image;verticalLabelPosition=bottom;labelBackgroundColor=default;verticalAlign=top;aspect=fixed;imageAspect=0;image=data:image/png,iVBORw0KGgoAAAANSUhEUgAABIgAAAGLCAIAAAAj4j6dAAAACXBIWXMAAA7EAAAOxAGVKw4bAAAgAElEQVR4nOzdd1xT19sA8MeRoUlJQpuEShJlKhAcAYogWEApWsVtpVpHRa1gteIqVIqLirUqFuuoCnW0FLXiQBGqDBVRynAwVIbYBH3JpSUkv0STG6vvH6wwHRWx7fP9+I/h5uTcy3nOOc+554YuDx7oACGEEEIIIYRQ5+na2RVACCGEEEIIof86TMwQQgghhBBCqJNhYoYQQgghhBBCnQwTM4QQQgghhBDqZJiYIYQQQgghhFAnw8QMIYQQQgghhDoZJmYIIYQQQggh1MkwMUMIIYQQQgihToaJGUIIIYQQQgh1MkzMEEIIIYQQQqiTdX+uo7t27dqtW5euXbt27dqlgyqEUOd6/PjJ48eP//rryePHj1/xR2N8oX89jC+EOg7GF0Id59XEV5cHD3TPdFyXLt27d+3evVvHVQWh18qjR389evT4yZMnr+CzML7Qfw3GF0IdB+MLoY7TofH1rFsZKZRuGHXoP6V7924Uyitq8xhf6L8G4wuhjoPxhVDH6dD4eqbErFu3rt264dNo6D/n1bR8jC/034TxhVDHwfhCqON0XMt/pkJxLQT9Z72Cxo/xhf6zML4Q6jgYXwh1nA5q/M+UmHXpgo9yov+oV9D4Mb7QfxbGF0IdB+MLoY7TQY3/GROzjvhohP4BXkHjx/hC/1kYXwh1HIwvhDpOBzV+3BmMEEIIIYQQQp0MEzOEEEIIIYQQ6mSYmCGEEEIIIYRQJ8PEDCGEEEIIIYQ6GSZmCCGEEEIIIdTJMDFDCCGEEEIIoU6GiRlCCCGEEEIIdTJMzBBCCCGEEEKok2FihhBCCCGEEEKdDBMzhBBCCCGEEOpkmJghhBBCCCGEUCfDxAwhhBBCCCGEOhkmZgghhBBCCCHUyTAxQwghhBBCCKFO1iGJ2TQ7UzbXZtrPsoZX5CmL+3NN2RbTYktk5xY6s7mm9f9snMYGx+YrG98sz41ZNsldYsPnmvLtho6esepoibYjKonQv4xWmrZz4SQnO3M219zaxXfiwu8y5O0dr6yNSpdVGcr2Dusgykur3LmmbM/12craqJ/mZGfO5to4jV28M0WmBZAnBvTnmvYeu6cYOwDU6ZS5qz1NG0cugfPwuXvaj69O0XZQa7PXebO5pv0XJv2tWsuTAiWmbMGknfla0MrOfb94tIsNm2tu7TItaF+mXAvaksMTLUzZdgFHpRi36JnVx1fvKQfqO3xt/jpvNtd89L7SzmlJ2tKdY82bTWX/UbTF+2b3t7BxX/b3Qr4djb2BsrZ7MfzXf1maUlkYOcKczR0alEJ0UBX+lTokMRvlYASgyk4trG8NypLUPCkAy9HHUUire83Iwl5swQNVSebBQL/AmNrsS5kbOW/ykv2X82UqHYCOKMs4cyJFquqISiL0ryJPC5nyUUjc5RKCJhJydaV5KcdOZMte1YimlcVOsWELfHfmP9snaktjNx7OB6NR86bb02Sxy/2X7E8voUmGuXKlmUdCZgbuzFHyh8yZ4ADKzO0bUrFPR68LltDWXiyg6Spyjq+eOHN99ostajxvvACAPGm2Xacto9RTZu/eHCsD0fg5E+whf3/QtNAjGTKum5cdvTT9h+X+gXGlYOUTMN4CiJMbvs/rzJqifyZl6t6dl569w9fmf+vL59pM/KfmTi9Xs6uhI0pkUpWquESm7JCJgGFvQGNZ2rk5SBwdJI5iCx4AANCABiy7iZ/48KAs9pvD+dgdPLMOSczcRrqwAIiC9JLa34S2Iju3AoBmP9JVRK87xn5W5Nm0C8UFRxaLaUCkxyaWaUGZHRW8JlMHNIsJ4dEXc4sqZUU3Mn8JduR1RCUR+jeRF5xIKQXg+UTnXr2Rl/V7VdnvuTFTxfSnv/Ol0Mnyn2cBRVuSdDRXBTyXCUOEdOLy0UtVYOSz4/iPR08k/DRTALq8+DOlWpbdxJESgKqUuHRcfEevB8GEbb9cTMv6PTVimBHock/E5rzQdOM54wUAtIRM2ukzG2VhbGIRgMBtnISvrcg4lqcDwdT9v5w6lHBq9xgeqDKOZUq1LKfxnlYAJWcOZ79+dxTRa68sNurEM69XqKSlhK5Dq/NP0uxqsNy+jDm1P/rc7unWHTERMOwNgG794dZTSQnnko7sWGRHB6CJ50Qsd2UBiFzHuvFAl3s4tqDT+69/jA5JzHhDRjgaAZTmnitRAoBWVphRogOaZMIQQfPmwbdzc+ACgFKm1CkL4xOLAMBxeWTkJyPsRSw6nSWyshSxOqKOCP2r0KEutnR1HTOdxRfy6QDawsgRpmzuwNmJBAAoLwU33+mkKoxZNsnJwpRvMXTaujSpFup3PZm7L1wfMtfXycKcbTF04soTdTtM5LkxyyY5WZizBQOdpqyKzVdqSw7P9py8sxRAlxfiZcEWTNqZT+QfWzVthHNvrnlvF99p65KaZlbaktTkHB2wxB5OPACg0ekAoNIqAQDoNBoAjSdkAdBFQ1zsAZSXkrLxnhl6ndCtHNysAEBFqFQAoCw5ETLF21pgWhsUR2sXh9sIvdS8lvGiBS2R8X3AcIkNm2tu7Tl7dWKT7VvyxGDvkatzdACle0dbmrI912cTRMa+4GkjhloLGvZVGryjlaBuoUUgA4Ay50DQFO/+AlO+3dDRc5vvhVYWJGeUAvAko8Q8AKDRAECnVem0ADQaDQBYPBaLDixLDychgOxyfAHGLXouNJ4R6DL37mxll4RWmvjdNM+BfK4pX+I7+9s0aU3hzinvTYurAFClLBrM5tpMO3Bx51jzht2PdU/QeK7KVgIoM0NcTNlc56AUArRExveLh0ts2FzT3hLf2d9nGox6NhO/PbB6hndvi6FBl/9n8OnK7G99+VxTtiSg+cM1WiJ73+LRLjZ8rnl/z9mrE2XatjoE+YlpFqZsybSQlYsnejrzuebWngG1twdrdyD3Hhu8etns4RIbtsDGfcb6c3Vx2+LEa19WFsaunOZkZ84WDHSfEhxbkNf8avxcmr8/cOJM/9HLk6W15aR8N3uEM59ryrYYOnrhgbp1k7ZrpZVn1j0cIRjoPnZxTNNFqGa9QS35pS2BC09KLcfs2B8ynA8AAHy74Q5GAGUZqaWYmT2jDknM6DyXUY5GAGU5uRVaAGVBWr4KaA4+bsIWabu8MKOgCgBYQtYTojRfBgACe0fLp+diDx7u+uF+v6DfuyyUDvzhf3f1j5J+lLHX/Xnlwd+uvZ7c9+3v7G+Vd/XNf6L9U7MrTX2rlY/468qJ+/02V1958PKqgdDzYIk9HIUARHKg6yD3ud+dfvZ9A8Tl+FSZjk7TqcpOR/kHxjXMCHX5cXvPEVz7IRYsVVnK7s0/5CpBWVi72ZgQuUzwEipT9wYu2p5L0lhCQe0eZZ6lreMQS5PqUyEL957OVfHEFjydLPvSZanhqqa2Kj+zFABEYjsWHUDkEeDnQlNdXuL3UdC6LZHHy1gOc4JGWtIBWEKJFQ9AVZghwy4dvU6UsnwZAHBFPCNtyeHAcYE7U4sInRELqkpS9/qP849pZ82f1jxeRCxVxrppo0NP5ugsR43z4EuTty4M/sGwBJoRT2gEAABGVmKJm9iSpc2L/f5EhkzHsrK156lyjq+eHZrcmEa1GdQN9W8lkLNluZHLQ35ILdIKba2NdPmZ6fmE4fu00oI8KQDNUmLFAqBbjlr0gT2tKn7htGnL1m+ISiZ4HkGfePABgGXpaEUDqMgveGV7qdG/gpFk6iIfHlQcjTqcrWxyJ0yeGDx6ZsTpAprTyDFutML48KCQk5U0I2HdrjmhraODi5VpHzcvOwBd8aVSpVYpzSyUAkBJYQ6h1dZOL4WS4WJaxrppo0OP5MhUNCMjpSwvPnTyxNC0+thRpYSHbD1TpFQZfrpOmrJlSXiejma7eNuaiVaG81hlxjfTvJcfyShV6Yy4oCzMyCWU7XcIsvSdxwvBUuIk1BEFJzdENe4HUWYe/OGSSuQgsQJV/pntG46VaVs98WMy0BbunDEpcHd6CaGjsWjKktxsmab51eDRDOoJ8sTg0X4R8bkVOiMjmqosIy5ktOFO7FZqpcz4Jigk7rKUJrC3MpIXXE4pURmEc9PeoPalksNL5m3P0dEch3jyoeECcu0dLAGgOKdQjt3Bs+mYb2Wkc91GSmigy08tJLTK/Et5BNDs32/cxwgA+fuCvD2HWjtM3pqrA57H1Pct6Nra37qRiEZrq+B6j29dUizO+2ugB+fYLPbi/hQ2pUPOo6knNXfVG86qrz180uJHXfv1f2OxR89+PV9BNRBqDd9jdfgcexoAqPKPR0zzsu0/pWHJrV2Wc07lZd0ovHp2kYQGuuy4pIYFQZHfjlMnYmJ2b10sBoAqKaFSlpyIz9TRXFefPfNTzIEdq0caQcnlG499Ind/MdwIgCYJ2p1w7tAGr+6/y3UADgtijp/NzrtWnLTGzXCtRUcUEyoAI56QRQMAYNmP9HHjARCXf4jam0IY2Y/0qOvr6VwRDwBUUmkVdunoNVCVs29LyMrFE8cFxhPAG/npxw40aerhcwSAeMGp0pu/F55c5UAD1eUfUgvbarFUwdhm8TKKVhh7pgh4PtFnjvy0Z0f0Cheaqm7JshZ/2Bcx4T4iALD8IPJ4wqltH1iLRuy4fPP3wqzstLNnD4W40YAozWvc69h2UNdqNZBz7vxBKAGMXIIPJFy8nPV74S8B9oZzUJ28hNABsHhCFh0AgC8eM8zBCHRlKfu3/5CrEjl4ONbGLd1IJOQCgLygChdU0POgibwWBLjSdLl7tyZWGLRZWUpcshQEH8clnDqwM2bbHCuoys/Wj9oWGeRKAzByWx5zLilm9TBh7SYLojRPqqzKL6gAANAVZhRUKaV5Uh3wHEY4Ql7smSIA7qio87+XXb2xe4wIoOTM4Yabwyyv1adyiyqrsiJd3qh9RUukrQ7dmw/cUeE7g4c0fbJGnhd7rAjAyC3819/Lsm7kZZ370k7ZfodAk0TEJRzdszP6yzE8ACVRKm9IYSzn/JT0S8yeHZF+FgBAyAhdqyeeWVhScCI2UwU028XHr8oLs27knY0c6T67+dXgGlS0thwQ+UXfLrz5e2b9TuyG7YUta6VSETIVAHfUlz9dTLtQXJb104eGt1aa9wYAoJNm5hMAoMvZHzTa4b3ZP9euB9FZIi4LQEeU4a7TZ9RBX5dPFw3xcTICZUFavqwwI7cCaHajXC2a3C9TleUXlBE6IyvX6Tvidsy2ogPdiA4AoJLqnv7b0z54AvCkBrr2s3ljlgOdDQAAyuqHwVEVJitk4048qAHQ/vlgw44K9sLf+2yo2ldBpsdV0FdVpav0cbul9HV/XFGR+76Vmnyrqr8z9qSy6M8Rq343Ca/aeq/+lRKF3zopPUjmEfe/63drZh3S/v4/3YerZX6/PTj+Q0WXhb93WVHhd+JBpf7xtSzl4pPqa403yh7fyv1jxKrf6UGycWk6nFOijkcXvb/mYuGVU7tXB4y0ZQFIU7cvibr8zE95sKy9JCIAHVEhbz6ZotHr10qUslIpgC5z9TtCUzZ3cOAZFei08hbxyhKPmepqBLkR7pYDRy9r+dSvTqkFABqLZUQHAHlSyLzVKVqPiLiTP4X6WNFUGeH1a/w0Fp9GA9ApsUdHrwVd/vG9O3cfSSnV0RxCftr2gTVdJy2R6QBEDh72LACWpZuDAADkBRXPnpNoVTIpAUAk+ztYsLkW74Re1oFOqWt/4FDm7wsYLjFnc837jovI0AFooWUgthXUrQcyw3bCSFtQXV7iaus0Zf3RkmZnoFMqdQBArw1brSx2eeDWTKMJ3xw5FTXHTQjSM6v9l52oXQti1W5zVKlw8EPPhU63m7roAxFUnY462LjfXkkUy1QAFT/4DWJzTXuP3F4CoNW2MiiwrDzcLAGkhfmlhRklOquRkx2NVMWXCvMLyqRgZO8lYdXGGs1ymKOADnSRg6eVEQBRKq0fYlg8oZWIZTBZVaV8szq+FER+G7bMsmy26asucml2E7ws6tcen7lDMGrrDgSt8d5EGyeukpVKAcDK03AbYXvqyuE6ekn4dKALXYdb0QCqpCUtVjwbakXjuvn5iKAqft7g3p6zI1Oa3f1u2hsAAADLcelPmVdupP4YMVIAUBG/u27opxkZ0QBAR3TMd5D8C3XvoHLpQtdRYlpGZt7pVF5xCdDEPsOb3P8F+0Unz37pYPgSnWdpJYSM0qr8nFLtEId2H1bs2s+NNf/mn9+e+9PmXPW7Hm/GjaEBAI3SfdwYdp+8P/yy/pfuSYGTf25Q9TweyqxMJOb/2DXBh9Ynj7xyV3f33hN4SF6pIG9Vw0Bvuknt3TbVw9WH1NeMjY770dJ/qNoAAA8fbohT1wx+65qlbvEe1c8OvK3eDwef7brrc77fm08qLXj/N7Fr5Y0/RpxUJg3m9mlWwYe6XYmayv7cu94ULXR7Vd/AgP7zWEK38XPdxo8dtmzSpP1l8pJSpfZ5vzvn6X0ny3XBlhUetRvIgcazEtOh2ZjDcgg6kGC977uY48kp+4PczyTtOL5jqkEPQAcA0Om0OgCQph4+LQOR3/QJwxz4w2IcxYu9/Y6kxCWV+H1qDzot6ABodPpT76Ij9AoIPj7+62qjw9PGrc4oSM+RznGyf3ll8zwivllgXze/o/HEzWeBhpSXtgcuP5kv9FgcNccNktcsOpjfXtGtB3WLQBbyHX+56Lg9cl/S6dTt/q5JKft/2fF+YwdSF4Y6nRaAVpIUk1oFlnMCxrs6sVx/GWLnPzLodOrBczKf2VZ1KSKNRgMc/NBzoQF/yJzFXieWpB7cSjTr9gUTvtkw26ruRZbQjg9Vzd/OshzmKNgZV5iSmFRMcJ3Gj+URJ3fmJqWUlIKR3ShHbvPjof4j2l764/G4hKxKmpOUI/UYJeqUBt38xFm5Jzr+Q+mi8RvO8iRb9508fSZ5jV96/LwfT33l2rD3xbA3YNXXzJ4FAMKPF02PPRORT5RKteDEanjw/el74VCtDvsD03SB2/sSGlQcjTqcowP7kS5WT23PLLuJXrYAupxvgpd8n5YvVwKAVimTtpZl099kbg0WKT5/K8Kmy/mMmn3yxwBAf4MyuA+1D78rHQD0j27JH7P5tH58ysA+3aBaf8+4h0ePv5JyNdd60P34j5NuPLwGlHFW3WvrpX2ov/sQBjowBhp3N+kBAKBTPbpV/Tj5ZJXNFlXy/x7X6A12MOofXTn7x+BV9wYf1cn1T7T6Fpsbe9DmezPYuVUDN/8ZV/EXLhOgDqdVNgaKsoqoXc2iN6z8qZSESgtaZZuLVtrinDwpAE0oaefrdlhCSxGAsrRUZ2TnNsTVbYirm6Mlv/Yz6ACGE0CW5ajPth49k7DFlQZEXobhd9DRWDwWDUCnVOm0oNWqVFoAJVFbM62OUCkBQKfS6gB0SkIJADQej4YTPPSaYNl/EOxnAbrLkVHJUi1NZCWkAcgL0ouVANqKnIIKAOCLBfVh1EboGcQL3Ugo4gEQsnwdz7E2rIY4WDcLQ7phBGjlJXnFACKvOUEferqJLdqY8rQS1NraO1ptBjLLfvwXMScSTi2yBSjLvmT4cCeNZUQDAKWySgeg01UpdQAqom7/pFIpVwLoaue3OiWhAgA6zwi/ugs9N7rlxEUfWAE0PujF4lkLjQCqpCVg5VAbIK72IhY05lUNQw/PfqSEB1Xn4pJLaJZuYjs3MVdXcDI2V0UT+zgJ6XWxpiut3SosL0grUQHwLEXCtrIGI6dFG1a5GkHpkaDQw83+qGZ9aYWnLzVsvHxqh/A82jjx2viFkssZTW9rt7gajeXYC7kAVfmXCpUAWiIvQ6YD4IqsuO0OrHT+kBkRe345u3+6CHTFuYYPiTXpDaDJBESZfym9GAB4QhEdALRKQqUDABaPhaP4s+mwxAzoVq4+9jTQESoAW7ch7S3+1WO5LVqz2NUIdEWxoR+5i23ZXFMTy3cDj1W0mEo+qal4kF708JoKTIy60ChdTShdmh9C6d6P37Xm7oP0cm3SjUdgTOnDpY/o0+V8nraG39PPsuu1vAd3jegexnVXgN6je58ecOvGw1uqxzWPAABoRt37GXd5dzhPsa33k6/f3mBFge4A+sd3qx9V/q7ZmvWo3xj+rY979m3yeFsXOoD20WPtoycmtpykUJPVxuSGMw9afo8IQi+XMnfLcKEpm2tuLXHubfle4PEKAMEwPxce24jPMwLQpYROekdi23/eyeZfd1W6d9oIb3fPdyeF5+lAMPETz3a+WpclHjvBlQZEcqCXLV8y1N3T28kz4KgUgM4VGQHo8tb4vTd8SvDBg8vcJUPdR/gOHzl7Q6YOjOzcREaNpdC59lZcAJ20QKYDOl8ssQZQpoZ4u3oP93xv+KJkJdAcx/lYs0CrrCgmAEBgL2y50olQZ2E5fvLpKB4Qx7/bmauzHjdnohB0udsneXq7e04KydQBb8zi8XZ0etuh1zRejqrspo60BSiLnfeuiYWzu6e3k4tvUErTKZeRgEcDKN07zdN79MLD900sRQDSY1uClgWM9lud02y9v7WgZglZNADizCr/ZUnaVgP5yonZLs5Onr7DR0wK3FcEIHAaIjSYTbJEYksWgFJWKlcCS+jiJAQgTvp7DnX39H5n3OocHbCGjBkmpIO2qlhWBUATiduc7SLUDpbDnKCRhn2+cJifjwh0Obs/6isc6OTp7e4ydPS3udq6EFOlLPJ1HzEtJIUAAL54hBMPdCodiFzshUbWQ+xYoFPqwN7L1YoOwHcJ+MSFBlXx83ydPL295x2RAs1x3py6rxBsFc1u9qY1o3hAnFkd+H1uk7DkuwTMlNBAlbL8vXc8fYd7eo9el8dvq0N4kSvR+onTxB987GUEurw1495z9/R19/QNSiSg+dUwvJ0oHP7JWHuAkv3+7p7e7iODThPA8loQ4NB2tqgrjZkytL+L9/ARvpOWH5YCWDvY8RvPoUlvAECkLHuvt91Qd0/v/ha23uGXdcAdNW+6PQtq/5yaEoBnaYdfsf6MOi4xA7qV6ygxDQBA7DnK6tl+IXzX1YfOn41aMMHVlkcDGs/C0WvMBLFRiwb9pPJmzYidVZ47//g468m4kZxx/BaJGXQfMebNYD45f0vV1oc9tn7EHtyz2+D+ND5APxvaQFsq+yH06d+jT0NaZdQzeEwP+s2aQavlW2ufy+nRY/VHrD43qzgLf+/yuXxXxZM+tm/48R+FRFUGV1FGCJ4kxxMjTugqm3xo14HODA/9w+BkTexJeb+VlatVtNVjGP1exXeToP80mtBluJfE3tJIKatQGgnsRy6ITv01ZryQDsJhn0x3NALQ6YDnsypq9aimext5XnMmiHTFBRVK4A4LjYx4X9jex9DtAnb/uGqchAegk1XItcC3lIhYACzJx4vGWAEAUZZTIHtsPMiKVZGfm5dTUEV3nbzlQOTUJnfMjUQOljQAeUmhVAusIUt+OR4ZMFLCUhblFFTRxR4ff/NjzCcOLABdSV6JCkBoZ9/yC10R6jx0kc/ieRIaFMVuPFzMGhFxaEeAly2NKMqX0ay85kTHbZgookM7odc0XnRg5PZlzE+LfKyMAFQVxYSOzrNwavqlanSrsUF+tjQApawoX6p602VJZPgYe8iLjytkeU12e3pQ061HLgjwsmDpKooJlQ5aC2RTgb0VSAvycnKLCJ5HQFRMxPtNyuWJJSIAkBaWKLXA99xy/MctMz3sWVX5BUVKlmTUvMhfomZY0wGI0hwZAAgcxe2vxyPUBrpw1KIP7A0igP/+mp92zxlmSQOoKpGqtCyhvYgHwHNbtGAYDwCqSnJLlbVb5niSUWIjABA52InodJ6liz0NAGzd6v5cE91+5o6j4ZMdhbqSgiIlTzIhNLp2uGkHy2pMRPgYEehywoNWpxiubdLtP4ncMc/DiqaTFuTlFKhYQh6N31aH8CJaP3G65dRvdqwaacvSVeQX5OUTNBGP1vrVaDiFISE/xYWMcuDKC4pKtBZufhF10doWmpFIzNOWFuXk5uXrLEYtio5e4Wp4lZr0BmAkGuJirS3LLyiS6gSOXpMj4n6J/tCSDgDaquKCCgCa9bN83ToCAIAuDx48/an6Hj2or6AqCL2eHj4kO7T8/2B8aUsOTxsRlKJziUj7MaDNXc7KjJW+o3eXifx+PLvNs50FTfSPhvH1j6EtjBznuyaXNmr3rz+Nb3MFR54Y4D7zJCFecPb4F044F+tsGF+oQzxbb9A41p/5sem3vP5LdER8deAdM4QQahXdymP2+wLQ5R1NLGvzCUx5XuyZMgDbCTMlmJUh1PnoFqNmurBAlRGXVtxW3GplGXGXCaC5+Y21x6wMoX+rZ+kNQFuSejhDBTyvD0Y9/XsmUJ1uK1d++dSDKJRur6AqCL2eHj36q0PL/0/GF0NkxfuzvEKl7DnoXQd+az22POvnw9e72/p/ETrBivnK64deGYyvf47ub4r6sYjS+39q+IM97N9s5VudtffTfzhTxhwwZ9WSEb1xJvYawPhCHePpvQFob5/+KZ0wcgn6aoEbv6O+BL5zdUR84VZGhJ4Ct4Ig1HEwvhDqOBhfCHUc3MqIEEIIIYQQQv9CmJghhBBCCCGEUCfDxAwhhBBCCCGEOhkmZgghhBBCCCHUyTAxQwghhBBCCKFOhokZQgghhBBCCHUyTMwQQgghhBBCqJNhYoYQQgghhBBCneyVJWaKjE1BSw7dJgEAiLT1QcHHyl/sr7KRNw/OG/3xukwFAFl66PNZm7KqAaA6a92MaUtOVZAA6psHP/0s+pr89tHVn8/y/3RewOdhx26r2yhNnR29ZH1qZZOqkJXZF3+rfIbakeU/L/98z03Ns1deXZaVdlPx7Mcb0FyL+jz4WEXH/qlI9M+lfkqDr07fPG/1xcrnKPGZA8GwFvUB1dDUSVlS8GdRv1U3Flt0aG1Yu+Hf8N4WdW77vZUXw/xDj8pqf0JKT62dt/6i7Hr0rIR8FBYAACAASURBVAkfT/X/dOqMoPprQlZnHw0LmDfV/9N5y6OSZRhP6Jmo69pS0Cz/oCWbkkrbGlEMVd9Oyyx/lgM7ooQ24/2ZytSU/ror+LNPP92ZV5p5dN3yoFkrDyZEhYadamMAIhXX0rOkGEzobyBlWdtXfjp1xqfzAkIjM4mXXnzDcNbarO9Fynl2bY+GL0NH9BKoU3V/VR/EeWe8W/ym5N+8zQbKLybI+/rNN3uhPxevKb1xm2rDk6UXVLu6m/S3ZmYWSNXOVHmxnKSqb91Tj+apb90mhRPo1+OTqaO3RLsbt1sc08kv1IZi3KQqNTfPJl8bJXnH5KX/PXuy+kZyAskbYsN56UWj/7jKzGdq8M/jRQKhPqBIaX1Tb3EI1Xb8wsXQTgg0hslzvNdE7GlxKCGH8BUKqCRx/bLCYpSYA8VMmwkrVvmK1HmRaw4m9AvzhUNhu8o9l0WutWE8+0khBAB1bQkqEtZs/vmG85euLdtnE2r5bwm/ci0czZgv2t3//RJesMzq2wmniSHLtvjyaxLWHGJ+EL7PiQFqhSe1jbBVl6edzhjY31n08nof9N9Snbd9/UH1+OB97wk6ZnbUOJy1Nut7kXKe+S3tjGgvQUf0EqhzdVu58sunHkShdHsJn2T8NuPWiVN/vN0t81eZ6/QPB3Qr/3VX2ProH49mFFFEDtY9rkV9ua3KZqg1/d6pr1YmvTG41/U1S/YkJp1IuPXmYFdBj9pS1OXHj5YN/HB4t99+69LftS8L8s9e7jLA2fju+evdzJiKvyyc+bJjqUrXcUO65SRk/q+PY38R06DyZMXRsFUJPZzdhD0qf90cfOgve3pi2F6Vk3O3hJVffn868XBqBUWTHXsy9/q1vIJqnkC174tYGOLeu9vNg8s33hC6isqjv1q+LS7h16xyprWD8PHN1Bxy0LsO3NqA0FyL+jz45N2qu9fPnUy7ybBxMO2hvpnw9cZdPx1LuyQ3Mut+4/uYc3lXc67c1HW9tX9XmcjT+vG5dUHhN8yGOzNqT1/y1/lNYZu/P5x8SfaGzaDePe4nray7CByrbiUlLMkQ5tWvg3cV8B3fMe3x938p6Fk8evRXh5b/UuJLLcto0uDVt/es3Fps4WZvrEpb/8WPfzm/A1ePJ2Vdv5i8/+fkIkpfB2tqUfPm+rj015jwqJ+OnswoZZqxiw9t/6UuEMTcm3s27vrhl3PZmredxDwqAFSmhq2MB2dH7t19ny6MB2c3M9XZlWHnKMycyH0qW25xfVMHs77dCtJzyu78lhB75OiNrjaDRJWx67besRzCygpbsufy/criy+dOZKmEdpa1I6X6ZuLmPXXvFZn8mZVbXJ5z9qeDCZe0gsFidum+dVvvWHr2IRKjtm4+mJB8A6ydLY27AUAPVrebiedB4m7ZQ54Tl673meTBVV09V8gY4tGXxeymykrNNx3IzTp6pde0BSM7aOxHL+IfEV+kvL4tqaXnzl7tNuhdhx43Y8I3bt4fn5BDvGUnNlEkrgxLe8vd0YTMi1y+5w9hjyv7jqTcKMzLKeshdjS5n9gwEIjFgtoYrU7fHPD1+Xvyu9mpiWlyzkAbHlTnHf5667ZDick5ml4ibfKeQ3UlmKgPbDjeMtyMnEXF+yLWbIs7/GsBKRTbG1f+HFw7kP2faS/tjfumnv0fJ4evPfCH2WDxW1QAqM7bv62uTMqbipiw6NoRVsIv2Lhy455jyWmFD3tZvVX6y56fMooL8rLOnU6+cEtWXJh14dfEn3+MzzZy9uyjvbw7ImxbXGImwXeUmPYAIIm0mD0/ZxTkZV2/xxU7MG4bXpb68VdzLerzsNi0o79cfmht0+Pqwfp+xtrhrf8zjGVqccLXBiPgw4sRSwyHYEejc2F1J9inv6D0YENN+j68GNNYZp+/8g9tDd8ef/x8MdNmkBnrJTSAf65/RHxVX409cGvQgnmDufWFkdV5TePr7Mqm4wVkths+/W1NHub9/PXGiJhTl8p6sGuS98bXDWd9/zoRtlfl5P52ZYrhFPQtdfN4pBQ1b0Vk6a97ttUPixJxtyu7DaLPpH5KRhJpBq+bKdIaRrQWo6ElU92kztSszZ99nZhwLOFaN7GLtVG35+kl/tL/tuNAjdhdpDz5hf8ulWSYLXlxc3DsXxK7P382DEmqtK1eQsK6savZQI+epiPi65XdMYPam2ZxKzfv4biHLhJAWcKO0+D31Xdu1ILINQd/tlg0oOU7qGyfVet8DFYm1GUZNymDfGzEfGFy8g3C8z2zd4SatJsV/Dsaoaun8a9pZWWCIgXvHQuGCd8/sGzX3sWf7OCLJ86fP7F2gZwqGPIuLy2zuNrR7HoOYeEt5sDV+rIpFlPCglw5QFZocyqk48KDnBiV6cnNTyEgPDYAyLKE4F1ppf3dWtbYxHH0zPECdWZU8OmrvjamCT8WvLPo6y855XvWHLr23pIZ72aoYf4WfzPyujLlcLH0XdMiDYepvy2thOsy9hAf5c87Moxnfx07QJ+2KWLHr2ahAxougv5aVCIpy4hML6BOXzrXqUOWXtA/l4lr0wYvbOUYpoVX4CpfkTw1fP3BtAELhU2bq4+xZu95buA380XyhLCojCchU3wH1AYCFEVHyB3nfzfe4C63sXgIJ/laWY2wgqDy9UWymgHqq6SFT196BgAw+vk0NHWQJQGVN2T6Uh/+vZ9X7kouc/ZsrJCpz5Tp7zArjq7cllzmbjmAAQBMm8b3qtM3U40HfbjMV6RIClufes3bunZFvvpmcrLaa+23Xoarlsb93CwOJV+Xu8PNrGoLH1tjAFn9z6orihRUEw5FrdAzbRg43qAXoL4ZHxyQTCo0olELQ53gt00Hb/afv/srs8pTmzfGZFlOb3o0a+CHHzhnH+8TumqEiLy9Z1fjQHBJPmiisK4NUvluE/3dTSpTwyJSr71rCj/GS98L3u1K/S1qbYLUPaihBCCAk9Iy3N7Mid4rd1u7d4Rx2dGwXYcsVvk0DGTV6ZtBX5wQFX9TMD10Sl9m7ecZSxpqZSJPumgwwq7dOQJAkbFpQ/wN97VTply6dWpgSJiPccXRNdukH4QFDYDfotbGA8jTow9UOIfu8LVk1p8plef50ei0m795frXU01iR0fSy2H7ReA+f2n/2Fv++1LKEsMZ+Ji2vm6IxltW3t+9qMgIuYEILdSdY+WtEWH1NyKZllopM4zMZfl9FuuEdvH8GUl2tAQ7H4J6P4reYFvHVdLz4sP3wudFfnXMwW+i/e7WYCQCkVcWlunmdOjsDAMg7qU2noCETmxVoK/61eSuiWnpM8T1fPz/8NeJnw+j7av47TACAyvTopq/Pbns0tB9w3rDO7gsAwNh5xSpfS4NR6ll7CXVWaUpGmVxM3gQTKL4pJzg5Cr6rSWnMjiYhuUzQRi8hqIw+2HygR53hlX75B1Xo7tuPIXrPx5YJanm5mmltaUwFY7OBfE2l/EFrb2BwqIYtRFOaWVytKU6Ijr9UrSnLLKgkOTaOvOqcjGw5w9bczMJYcS0zS8YU2/CpQOW5+Yfti/turTeZsCu+qH4Hrkl/N7486/rNvN8U1p5N7ixTmU/fYKi4dmzXuvVRX+9KllZr2tllTKUA6ElQ3CuTEZeOHdx+MK2SwTMcI5gWzhZkwfUbV9XmPp6MuzdvXC1jDBrQUy4neQMsOEBlW/TnqO8QZJOLoCg6HX9TOGWuK65koBaaNfhWn3yksJlUoPLNbJgaabW+8a0UAD354F55ZWXh0ejoPcfKqXyuQRtj2E6Z7nR989QZoZHp9Q+ZUNk2rmxZTsH1Moant7XmesH1Gxqhi1kr8ygAoDI4DCoAhQrQVtS0GU0UNpMJVAqDCo0VNnaaPkOYumTGvODorMbd/sbWnhaa7Ou3r+doLFzqZqLVOTEf+44fNmOXwmP2hzYMYw6DrMZHYdCLYNpM2PBt8Nz+bCqfxyQ1cjnVop+ACVSRhYCpuCtv51ljdZsDQT0KkHogNXIZIUs/tH1n3CU125hBafx56+HG15XVMG36mlCBKTQTAiGr0RsMZGR1zqmjcsmc6ZI205P6wYWUXdyzafPX63cdyCHaDY8H1WUE1dxa1HqcA7S4LJWNz75QmcYMKoBa3qSfeWuQQSwr7rUyAraoNJNDBdAY1qRZmVSeW+AUalzgx7NWH732cp/nQR2CyjRmUzUasuH3/bT4atowWgsfql4uB37/NoYkgAdEsymopnmB3PZbkaa6WfQpyHZfbzhXg9FQ/6CVkKew29iU+LRewth6iFDx2/WCIhD79qcWXS/IVnDczHu0FpKt9hKtDfSoM7zKO2YAVAqDyWAyGFQAJt+Mqb4rVYMJ9V6RgmHC7wkApF4PoFfL28h51OWX7vA+XLrIxwRAXbB9TUK23M3HRkyNic8WjvY1ZjD7MW7GXDX29jGhAqlWqKkcYyrDRMhrEpkmYk/hqbgf71H7zbZsYxZJBSCBBGBQgQqkniRBrdaoSYa+IivuV83orxYOlCeE7ap5+vkyeEI+TzR+um/d+ihZyqSAmiQBqEwzJ/Oavac1NlN8Bsgztp7OM/ZeasLR8JmpN+UaN2NSekvD7MejguEjsBzbcT78Wwe3/8r7vKP2YaN/quYNnkIF0FeTeiBrqhtGHH2NmgSyuqJUzX7HmNKshJ48MxMTcuL0iXVxQRI36wMBmH0nrv7OMzs67Me0UsfptkwAoJrYDGIeS0jjey0ewJOej08GsxkWHCirK43a0NSf/1wa3ts2zjv+4ftGXfx6TcKl9xruP3BsXcwOxMQnM83m1D9CZuw4e8MqX1F9JUSu1mRUfLLHIl8LfMYMPT+qYMgUSXJU/G+u0/l8yL5DkANMK2UVao4bh6EBIEkSSFKjrm27VABSDwDAbDYQtFU4g8/nCR2nLPCoWzFUX68vofVwMzVWsNU55dWkmbH8ngx4Q3pSygyKM3acMJGRtyPGOnS+c+O95YZaNdIUHYu/KVy0YTzj0qaItPaq2NPYgqc+XyxV9202elJquwoqo9llMW4xyDL5TfsZAGiIZbcP+UyF4QjIaDoEGxTDMKxJK2W6zv/OcXTC+s3xN9wHevDaOyf0GjDu5yxUx/2cOSjIQ0CFVhoSh/G0b1lrHj6KjExIu1GudhIzAQzndbWH9+Q1m4IyQN68RJNWWlFDORxji6bRV7cVg9Hy9TZHQ0rPZiFfnf60K9VeL8GxdeQdOJTGdJz+oePV5Jhkkj/6QxGjtL2QbNpLtDLQo07wahMzA1QLr8BRB/dGhMYBlf/u9AU2PFLBq9wUsSTTTMgAamtLfNU3M25SrX1rf8Q0deLXxF8nfN4T23DiKoV9TahUqlDAJMstHAVUgOqy1O0xGWVqPalnDJkfbNDCOANdzHakl/vON2MCtPJVNlS2k7dZ8rYvg0fNX+FqZ7wrOnh5hgWfAlQGhWNmQT20dfnnJlR9NQwCKsOEo9geE++0avrAVlsw09rXmxq28tOjDAaVKZ4T4j/Q0Y2/afMS+YQVi0ZYOpqqz9fYmvNMGKbqQ6TnAB6VSZ0523n7jxFLSGCajw58T0CVFzSpmonzgvGCPRGbI2FpEOZmyIC6WYM3ppLmZNia0LJ+Ag7ZcExC8IwEJoc3YLy/p5Ba1LQEqsB5ND8iLDCNyaAwLSasWORcHwgzx6rP/JBDkArSePzShsVyKl88gHkogW9mwufZUolszhRbY6hPzKii+qYeNOF5T6XxvZ9IWj9Cnrkr8uDtak0NaT5lJr8xDpg2bhaatdf7+7Wx5gLMARPmuG4ID/xoD9/UhGPqM3/RRPwWEPQ8mDajJ1isjT9GhM6eItt1MDiTBEbfGfOdRcx7A+DQxuWhlhZ1EyamhacndVvw8vK5y2Y3Gwjeaf0eFmfgKOdTEZ9PPchgMjmes5d+2FjCfM/Wwo3pMX1G2cGNK1OByhkye/Y7xjVlhuUx+ngu8jSO2hweDWv9nWuf4Wyo1cfTLBqOM+kvqIyK+DSTAwqNsWN7p8/3mD6zbFd4YAKVL5mxdLZbbcJnLPbpn7x1ZWiR/9K5TS+LSYsSqMIm/czH7xT+8HN9LJvZGTcdAY3lTYZgw3JMDGuycPRo/uaGMhdP0O//NkGm1lRD3wX9MCv7JzAeNHfK1bBNC0dGcYV8jsX4hUHNGpI+9WlFNA+fiR9Nv7lt17wZYNxv9IplXg3zusXmAABU82ZTUAbZNDHT30tdt6ZFKzKYH4aObxZ9dYeYNI9KKtnmaMhuVmefp1+pdnuJfoNMFAUUG1NjoYajSNWP72sCHOPmIXmvSXmNvYR2SrfzB682H+jRq9flwQPdUw/q0QNTAPTf9fBhx97Vx/hC/2UYXwh1HIwvhDpOR8QX/oFphBBCCCGEEOpkmJghhBBCCCGEUCfDxAwhhBBCCCGEOhkmZgghhBBCCCHUyTAxQwghhBBCCKFOhokZQgghhBBCCHUyTMwQQgghhBBCqJNhYoYQQgghhBBCnQwTM4QQQgghhBDqZJiYIYQQQgghhFAnw8QMIYQQQgghhDoZJmYIIYQQQggh1MkwMUMIIYQQQgihToaJGUIIIYQQQgh1MkzMEEIIIYQQQqiTYWKGEEIIIYQQQp0MEzOEEEIIIYQQ6mSYmCGEEEIIIYRQJ8PEDCGEEEIIIYQ6GSZmCCGEEEIIIdTJMDFDCCGEEEIIoU6GiRlCCCGEEEIIdTJMzBBCCCGEEEKok2FihhBCCCGEEEKdDBMzhBBCCCGEEOpkmJghhBBCCCGEUCfr3hGFPn78mCT/evLkSUcUjtAL69atS/fu3bt27dLZFUEIvaZw/EKvp3/H+IXxhV5Pr098dcgdM70eow69jv7664lOp+/sWiCEXl84fqHX079j/ML4Qq+n1ye+OiQxe/wYow4hhNA/D45fCHUcjC+E2ofPmCGEEEIIIYRQJ8PEDCGEEEIIIYQ6GSZmCCGEEEIIIdTJMDFDCCGEEEIIoU72z0vM1OXp29cEfTR5yuhxU6YE7bisIM6t+XTp0bvkixSmyY0KWhhdon7ZlSQrEkPmrT9HgOLiN1MmfxqZV1P7ujpvx/wVsXdarStJ5KZeuqP5ex+suBa5YMXuAsNSSFnqnqXzPh497qOPgtbvvnjvhS5UU5pr21es2J5XA0DKstIvV7RdJFmTe/TbpfM+Hj9uyujJn4Yl3FXc3rdwwbeXFX+/Eggh9OqQFWeXTv5o4YH68YK4FLZgTWJ976fO2zN73EchSfdIAHnq+injpow2/LciUdbQTZLE5eg1s6d9NHryx/NDdySWt9rpk3cS1sxeky5/oZq21i3X5Cd8u3DWR6Mnz1sYcTy/SQ+syY36tL6q8xZuOnvreYYhdfmlc3lE+8PKUy5IrdYGr79xEdA/kKYkMWrN/FkfjR43ZfyslfsKav5OA5CnfjN7xfHmzexva5jdtd8hNH3Py5jdQcu5bgfM7qDmwqYVSw+UqJ8e2qQ8KzY86NMp46aMHvfx/Ih0OdEyhJ/qhWOclCWtn7+mRTfyr9Ahf8esAymyt0fszTd9f0H4cHsBQ6PQMBhwpbMr9RT6qgsHE0f2ndqP0e5hmpIzR89LrJ3MGdSX+elE9v6467wJX4S696JoahQU9ksondJn6Ij3wawnkFX5CSfyfQa6CFotlbyT8M3GeP3g6csWO/fhgEYBbArx9z8evR60REbc4WyW5+zxdqxWfy7PjY/asmF3upQmiThzJMCe/qpriNBLpi9Pjk1xDxlr1qzH09zOKmFY91JkXJd7mQq9vjjkBaAp3L5ip3pG+OfObMND1QUn9mdRxoZsGWbG0CtqSE77A8Pza7VbVtyTwYBZ4TPN4e6RzTt2JwzcPKOPwY8pAp+wTQF2VEXJmahvt8f1ivC3Yz7bh1VcTDyhmTpYwmtnZOG3e0EQAgAg7yVu+mYPYTVrUfjQvlzQ1JCMnpryzq7VU7TVITT1D5rdQc++Xu+PZXCZQN5qN7TVBbGrNp1njJi5ZqmTgKPXaIBDufsSPv9ZUTli70kcLuelXtHXxCtNzE6Efnph0LKIiX2oJHEuYm2K5LNZsG9dAgh5oCaq9KYecxdNcuBQFQWJu6OPXylXUq1Hhq6aZW8wbMmvns2HAfMCprrwAACYDAaAwUyfvHfh4N59qUUEcO29PgycPkSouRT++QnB0vBZfanqvB2LDlKCwufaU4jcuL17kovUPFtz0OjFUJv6b40+l69h24u5CoI7N2wOJyE0/N7YzSFDOOS9E2sjct3C1nrB5bj9sanXyzXsvu5jF/h7m5PXItceATE7P6lIEPD1CrPre3YeuXCPam7NVZCU2koxzBztIXN/qusa3z6NVdXcu3Bgb+zVKhJ6mvvMDHSu2hG680oNXPl0+h7x9MWiC/v/HLs5ZAijPHZpaKb50q+DJJAfvWa7ZnLE/F75zc/RoA4zZnJqrwSRvSdif8WggJUj9CRQODwuh8EABoNZ/9PYnUcu3HsAjF5Dp8+ZJeGRxLXY6P1nsu5r2LYzVy11uLi22bmvMEtctUvZ1/Tumayes776oOLoCZLJv3Ny456CB1DwycVdjoGfsE8eejAz/DMXDqgL9oTs1M/6wjs39T7P54sFI6yoAAAMJoCaAL3mXkr0+v0FRXKq1Uj/gFnOPGrTq7F4oh21SX1CJrff66FOoby885uIc5ZGo0basVrkXFrpCf+RgacxD0f/IlSOpbtpzYm4zMFLPfiGP1AUXShmDJ/+7q2D56/cGy5st7/S6x+QQOHw2EwGFRgMAABFy3FqJgNI8t75PaG/5N6u4YjfX7BokgOn5lxExAmKrUBzv4KoArOxQQHe5gzNraT9exKKFHrgiMcumG6Vv3lNQ7e84rvlQ2uHBI7d+761n9+nH4+ap9eTAC1rSeX0thezTly9ryHt9MW1A/EDhpnTZP+ZY8U97xxoNiYum3xvR1jC73pY65fMHRn29VxBUbORpc2rQBLNB1MAUl9TkfDtwk1FFdBr6IzAuV69DN7Q9DT9vc1fdj6LOhd5LzulmDp8aeBYCQMAgMEAIO80/lxzJ2n/9vjM2wqKQOI913+SA7sqcW3ERbeQNSNMqcSlsNBE+5BVk81AdjF2x8Hzt8he9oIHJFgBAFlxaU/U/nPler7YlkNU9V20apImdlk0zN0414FB3ooO3aiYvHmZrSL1yL6jmfn39Hyx69T5M4cyip46u2ujQ2jSVueNpBz56mXM7gJWDK2/UueiNsVq3g+dSWk5u4MWsylmw8SY5A4OWDa5YsfXzWa2zvcNPmXl8LxfjvCMmRk/rmsI7UUTFHEJnEXhC8QMUGR/HXqEv2hx36QcRd+pK6d7CKkAAEwGgAJAX3M7aW/Izmu3atj2E+YETbTjPLU+dSeluZP8bXgSY1aIv+BqRFibeUFjd6QoSIzNcOo7qA/zXzc9fKVbGQd79VJcLaogAWqKrhBc90FvUwCA7TQ35Ktt34VPZWTviStSK67t23mcsJ4asfv7XcvGmTXpfElFeZWeZ2fW+nIbKUveuzur56SwbdFhYxlZ+3ektnpjl5Sl7o3MYowJ+y4mfHJd1qe4vi86E9yWRe/+OnAQRd3WvVEqw9xrauj2mFM/LRtckXikoAYASE1VBcUjdPf3a52r9m86UiEO3LV7y4oRXGrjm+zG+g1QJx250HhPmJSl7o0lXFdEfhcV4k2m/nIFXFeEz7Hn2QZ+d/BY+GgHV1tGxfU7ClJ++66GQlYU3Fdrqm7d1ps591G3do6NdXBjA+j1imv7Nu2/MyhgxQw7Js9pqi/38tpPZ6/Zd+52bQ2IK9Gxt81mRu3esmYC40rcuVsa4kr03nMap8WR3x+MDBhu2noz1yju6SWBMT99Nda0OwBAd9HYkC8mmXHdl35/6qfl7zt4SKglKQUEgOb2xRKQvNuXcq9CwzAX92pZHEM8dmXkllBnzYWEHDnZ/GpcqLj3LPVBhrQ56925pvwpB6Ra0ObvGS0wZY/4Ll+rLT62ftoI594Cm/4jZq9OkbXyTmVh7MJJ/S1M2RZDp61LkmoBgMjYFzxthHNvrinfzrvuRXnmzoXTnOzM+XZDRy88kJN3eNrIwNME6DJD3hGauq/L1TYtlU7juvmtjo6LDhA3rWdJ0uopQ60Fpr1dJgUdK232LoReaxS2w8RJfStOxF6tMRwlFMWZdxhO9n0HDjWtuZL3e/ubaziDJk21/j1ywZKQnWfzifa2/egpbIlfyK6Nnw3WpO+JK1IDAKkHhtO8kFXbwmealyeeuK1R3z6xJ1k/NmRLTORn9kRibEFPw265LiszoC5PP3ObYj+oV+s3xMiqWwVKqmkvhubavp3HCfHcqN1fLxATR3YeyW2lpj3t/VeFevUS+ITFHf9ugUTTYmRp+9xaG0wBAHjeQRu3RPhx8w/sv2CwK6z5aebhks+/Dam4r6D0the0nnCrb5+IjCsRTA+PjvxsGJm+/UB2q89DqG8nbo0uEkxfdXD38slmFAAAkrgQvT+XMS5i9/eb/KzINtskgyf2nhseeej4dwtMS44kl6ifYXbXaofQrK0eqbR9ObM7rzcBADRVF3ZtitV4hy7zNu/TcnbXcjalrp0Yj1265eDu8LmD3qK0evEbP+UtAADoITYMbS/JSDHkXyxRAygKMss5rkNNnxCEhmfdh990dkYCAGfAzJDIqPl9KpIT8xXPWJ8Hd5J3bExiTA0JGFp7n7/VvOAp3dG/xyu9Y8YXv2t+9Fz+vXcZ5dlynqs9j6oHKpXBZjAAgNdXwiWT7t699+CO3mryRI9+bay1UYDSxjz9QXlBFcf5s+F9eVRwneR8dmPBXY1zy8Nqbl+9z3H+bHhfNhUo5jzGBQANUVIBVpNHDOQzQC3oxYEHbZ2CpuCXyIOZ5WRPCoC9hgQAKoXdV2JrzqGqb2ff0tcVQpr24VCvNbyLLZ48te+a/XHXzZ0bqnpPXn5iY+hZCvmAqOlprgEw6I6YZk7959gxyAAAIABJREFUqPuvlN+3L9bbew0kykuICsjT9xlpTSlPbXmOjIY6gAJIfdWFqJ18988iZthxAAAY/Xy/2DXo2pXU82cilvwi+SzCn5JbXnWnfG/IVYpeUyWnuGo093MrKA7+Y13q8mCy1S6PwjCVDLLiUAFa/dvojN7D3bgbM4pkfdkXihlDF1kxoQoAqC1+WxSG6WBnOyEHqGZc6m2ylavxx//dblIf9KKI9A2h20+Dy9SZdjSC0Kl0WoAmN7e0sthl0wKP00YtilisPbkhKjhEbPfTSJCXKEHoMkGsK0k9eTpqFc9LMjsnIiSu0GrkB7N5WrlOpTWyG+Ylydifp+S5TB3n4eglbH7PjO8a8KUraAulNIMX5UlLZvjHlgJP7DNKbERX6nTN6oPQi3ry5IlarVGpVErl/x48ePjokf7Ro78ePdI/7x+09fIa2s5PqTynqRMzvzp6/HZAn/rXavIv3mUOGitgsDnOfTQJ2XdGWLW3cZ1qOnzZFvuCzAup5yODjpj7r1oxqPXjGLwBDmJTPnBHevW5knqXIHsBAJXHZlAB9GwGFRT6B4rikoqKe7GbQ4+AXkHUCDX69tJCInvPphMKSeAKSbP66SuS1/olAwDwnGcG+dkBEXtHbzXZ10nIA6Gv95mss/kVZHvXBQA095uPLO0f3upg6mxrzmOA+/sOCTvz7z3sV3cs2fI026/Lv5hOR168eEUi6W9szL5w4Urv3oLevQXXrxd16QL9+9vevSuTye67uztXVyvy8vLffddFpyNzcvLs7GzYbNZvv+Wamr5tatrr5s3iLl2gXz/riop7//d/cicnSU1NTUHBLWdnh8ePn7R1PJ/P02g0//d/8keP9Hw+//79SmdnB41Gk5WV26ePyM7O+vTpcyzWG25uzklJ6V26PPHx8bxw4cr//qceNWp4UdGt8nKZm9s7VGqPNs+NCpRW8wYgFcUlGoH3JOc+fCoM9x2YEl1UoenT2mHXFQKPMc59mFTgmXGptwEe3M8nGPb+7/bjUAFMeW0Hpp7I3r/zlyv3gEEBhrsenm1216JDaKWtGobki8/uAAA0dxK+3SN4PzT8fXMGtDK7W2TVYm75oLygiuP22UhJ7Qq34U1Igwvf+Cmtzn7Zfb0GUHZm5hO9NBn3eG6TBFTIBwowmv+2qBR2X2enfgIGCVZ8uEbqW851W9aHVBTEbiy3mrUqcLiACkBCW3lB0+5oWJu/yX+8V/uMGc9umNmJMwUljNtVfPcBQiq02kSaUFwKD4q6UgMArMFLw+eacSHvboUe+G3dRKkLawq0Ht6NxzX9L9nKay2Q5ef3xNcMDfl+s7Xm3NpNec9ScN2LbAe/SSlrjpxgsAFq7/cx+vl+tmZi4y5/ssLgeEafwWYQm3WNJLgOvk75xekXsvRq03ftOZAPTz1HCodHUdzOvkUMcKnfG8wUDBw+Y+Bgyb5lUen5972B0WuY/6p54vouSnHtwlNO/VlQBc6uvNTMlIuMO2zXSaZU0HMFDLK8ooYUP3VjddOrobgW+RLqgxrQrIZMn+1lyaKDtiRp9fdJhA4AgGY5InCY6mhqFW9c9JYvR/ClrJTjgfmXSpXjPSd+tXMiAIBW+rPKfVEeIVXVFkRnSSYsGuMkogOAo5/PD/vzii3HLP5yhrWuMHbdlgxCCwBgZDd10Vw3fiv1kGYePl0KvHHRF/eMaO3nCL0IhUIhl/9BEFWPHj0CABqN2qNHDwaDQaF0p1AoT548fpkfRqEK3aaOvLgpNqk+NyCunbt6Pz/j8wkHa//f60L52H7i9heVqHyxx2Sxq8PRNWGp1+XiVh/SbDy45fKWIY546ppVBjupNCWtH6e4tjtiRy5vasR8pxY30igCn7BN/ty8qLWxwBJw6h8RqBtqKNSnDY4AACQ0H1naOfYpgym15fpr89P8r6JSKVZW5m+8wQQAS0szNtsIAITCum2fXO6bNBoVAN544w1rawsKhUKlPu7TR8RgMACgd2+RkRETAN5+u+5CGhsb1zYvBoNpZtabQqE8efKk2fF//PHn22/zSfLR1as3+Hy+UGhaXn6XSqXXHs9g0FmsNwSCXgDw1ltvCQQmhvUxMxNWVhIAYGoqUCj+x2KxHj5sfeng/9m7+7gmznRh/BfIDJIJMrEm2CQIQXlZSAShFLS+HdTTylGxVlfWSnFF2VqsLatrf2x59OCPlqPFsrK1uiJdkc+yWLQrtfXliDyKFkELakEKUglKQmVoO9FleJkB8vwRVISAYEFAru+HT4vJvFwz3PfMXHPfcw8pkUv4vHKGm9rtU5fE/f/1XBzNfPv4XjdcRWZKNiyMywiUMxmxOwzmpjF/ddflgNClrPK60ofT/7qrO0pCCczVi+VBGp/2nmOPXN0xLl2uLQ39cXUHYtfZMyW7zpzP41nFXB8FSRpkMpK7oefAqW9Xd+biISkpJVTlF9XMUbn09Ghrnw5Hw9lTHpWRdg90YXMys/SKmVNMLWI8b6jQsQBcVX5OFalyclJ4OBMVWce+qWR5nuN4yUsxBw59dfTQV0f3xcyQ2atnabhzuxOOXtQaeACeM9Q/7CkvUqml7JXTxSwAW3rmSoNS7UQBSUBDLWMA4HRaPc8DAO2sEDEFp4tZAK6ukuEEAErmYg8V2QV6HnhWV9PeXkQRPFvHcsAzVWUMDwA8W1ULInuZCAw15WznO3bi9oVU8cCz+ir20YMPKfMLW0gXnrxWK5hCpasvnC40LZYz1AOQJEEAf/8+IOXs78QWHC8mXFQyRw19Kzunxt7fRWJ+Gx9dESH1Df9TmLJ0d8LhYg4AOJbleAAATltUUU/QErncV9aQf/JyNQ8AfD3L8RK5r1Io/CLroo7jea6eN7Pt5hEERcCD+0Gk0m+usiYr47op6wbKaaa/tCxtV/LJ69Ucb4rE3FK67I2u8fCGsoLL7YMasRUXCypMu7deezm35DEDgo1oslfi9/33EllRbNgsx0nz3vpX9V3m7BepmekZmekZmX/PuKj76QfmHjBHw92kCtr3ra8ZgGYAYC7sWj3D05mWesyIOXsXoAmsNasSUyJ87mZEzfOd6Lr8k8t3H11RU3V2RpppsempXxYzZrsoNjUx95oA7Cc49HwdilAv3bt379Klb69cKWaYuvHj7X18vGbOnPbSSwE+Pl4ajYe7u+vEiSqN5jd9+nn8WknFnJBZ/IVzxQYAgNqSPJ0iOOEfpvPUXzf7C0Xnq3oa6Zcz3D8k15SV1JG0nZjoep6CridHc8/gExJXF0J7+oSpKyBnYLnOh+X7K63I3Lm/SBEWv2meQ3dXUqQs4I2lyhuHDxQYxDIPZ+KW6XRWWXCuEpw0StLseYGkgOcaBACQdDmzdL8PzJ5MecGg09XxAGzJ2SJOqlHYEAAAAvCkmc0cqSwsLBwdlQRhBQByub1IZAMAY8fSY8fSAEBRIlPSRRBWEyYoTNMrFHLT9Pb2UhsbGwCgaTuatgMAkchGJpOaplconu86fVNT83ffXb97955M9pyXl8bT0238ePupU/2VyvGm6UeNGjV9ur+dnRgA/P29FYrxAODp6erp6QoADg4KP78pAGBnJ37pJb8etotU+M1R1mUl7c8q0rM8AG9gOb5jAaCYs/laDnimKKeUV3koJQRJ8Ky2jgee1ZkuCUiJSk7qzuZrOQADo63jAUAkdZNwhReu1vJQz+jb+w6TBAh1tSwPXE2lzgAAwDMMR0hktBjqKvWdTm+Pubp79IBgpqz219UdAGn/8rqYJVRu0qdZWs7M1R3V9dpSpFJL2QtHT5Qw9Txfz/G9vbrrWLUBgJQHTKfLMrIY5SyNDABo90Avsih1R8o3ZQwHwNezBnPL6kU8QFKqoM0bZ9Uf27W7/fkjs3lBl8PRA8/c9eHTHi5f4jbNnbvFKqZpHtyy42qy4iNeXRV7ggqKDPEWS7xXrQuSlKRu+H3okqj9hZ061cleity6RsNlfxD1hyWLly+J2HVGL3J2tatMS0g83+Dw8poIdc3u9csXrN+vU/9ubaCClHgEL3QsT/rj8oiELD0lJgkA0nlh2HxJ3tbfL381Kr0cSAIAJH5hIZ66vX9csviPnxYYAAiSJJX+QVPh+MZVERtTrgFNAglit3nzZaU7ItdvTDrLdc3Z2xfy3pLFf9iRY+hyw490CFwRbOr0DKRD4JoIdU1yVOiCZREb95zVcQC093x/MisqdHnM6WoeJK5+ztBAqV3sKVrlZicI8gA3GQBpZhu77GSClAdt2LSMPJuYdLqarclNSdjw+vIFi1dHn4KZ4cs0lCwgPGwml7Xp9eWvrorZcayCA1lAeNhc4vJf1q9e8tuY9BtC1203j5QHLPRgU95esMo0Aj6tCXSRSDzntGfdlHvIOzEvS4vTtq17PXTB4tXRaaXm7kN13Rud4uHAcP1wSvqJcg4A2BvHk1OOm3JO7cn0A0dKOx8lR7Im6JQS2b+09rP/m39p35oXrEvTk9Juq//nuzq9wfRzMXaqQmlnDda+a1IyMr86mvnV0cx//Gmq9bf7o+NO3ZAtit/3aXyIT3tXRLtJr31w+FJJZvx8JZOzf09ONViD9YNuivavfHb9/mJ1x7oZgHG0nYPUDqC24gd8QAT9ejdvar/99mpDQ6Or68Tp06e6uk6kaTsrq6fRDUTsNm9VoJTgAYSawpwaif+0+2NRyDTTXfiSc+XdvxGEZ66mx7+3ctnyBa+/l2zwXhXiJzFzngIAkiQMJ+IjXn39/snRfCTBkSGK4qT1Cxb/fnVs+kWG63JYBgCoLz+dVVKnu7Bn3evLFyxevmDVrs7nVtMqZdPClkiLMzILwXvVuiDq1IfLF6/ecooKXrfMlzJzTgSgVIFBztpdoYvX7y6hupxZetqBXU+mJEHBldQNry9fvadKExI2VymWqBzJktStadeh62aiAXb7dvWPP/4okdDe3hpHRwcAeO65Lk2t/YhUBG388yqVPnPbH0N/u3zBbzfvLmjoWACilijyd/5hwevvpQt+kW/4SUDmu3C25EpC6OvvJebcFVMAAGLXZWH+Qvp7qxcsi81kCJIEIBUzwxcri5LCf7tyU9o1DgiKJMSq2YtcDalRq1fHZpaTNAkAEs/5/kT2tqjV76UW8n29uutwQDBbJfvv6g6AcnvtnfcCucyE1NyqW12u7rpeTZEOgWsipjRkxb4d8tvVW0/+JOvl1d0jVZsDIO19ZjlLaJ9Al/bhhHzC3t8wDQr2bIpYvWBxaOi245VmekE+Np4fBQAAQqJeEbPOQ3tw14GiuwDm84JHD0cdVvLMXR9aNDQ0P3YiG5u+jb7QXVN1F3zlsfi4olnxg98/ga9nG0gJTYKhOOWj3cy82OhBD2k44soOJiQLS2N7O9Ty4Biw8vyE+hqPWU0VB5f+R/QFmDhnvmdz4akL1c3gG31+n2d20inGboz13R++zjh12/e/zx9a69oxaWr6IT1i6Vsn4IXFwdMnWDc33bN+Yc06h8+Xzt99w3dNYpjycsbuv+c1z0k69t+Q9lkh2NkB821Wep71ioxjH7ucff0/os40T/yvkFfmvBq64qUuj5kBQNP1xMX/GVtyf7j82v/71uKV6T/ABN9Fc3xldupFUb/zxdazEe7J6ldVVXVlpVYsptRqD1OjQXeGWn1H6Nd4auU5L6/Ayop48UWfIRLPE+M5A0/QYpKvLdi/NQPWbnnLdyATzGcVW5Qc94U0csti54Edjm2Q84KhUJ6H23vMBkqDNid537FrWk6k8gmKfHMaZmV9xTNnd2zekw8vvBvXYy9hNDBGO7yyLmT/hdSb35bIlvwhesKB/z4CAGB9t+Lknrw6AACHl+P/z29dOyVPoyet+Os/4P/f+j//2v+XewDWHiteiLRTh74bcjI8Y/9b1T5Lpk2SwXUAsAbmQsaXFc0AMOaFiP/5/16SjR49e12Ix4V9pV+n7r/rELzipV5Eaf8f8Qc/tdu0Mz3vy78Xjpkes6if9wIaGWpr60xZmY+P19NpIkNo5Lh379+jR1tPm2Zm8LThiC05uvtgXrG+gXKdtuLNMMzK+oyvytoWm1xCz4neOsBZGQIY7BYzhAbBUCvP/dJihtAw1df6JQjCN98UEATx4os+RDeDuHU01Oo7Qr/GUyjPZ89eGD16dEDAC0MkHoSemqFQnvFeI0IIoWFDp/uxra3NNCLcYMeC0DNowgQHsRjfVYPQ4MDEDCGE0LBx584dkchGLh8/2IEg9Az6+WfW2dlxsKNAaOR62qMyIoQQQk+mubm5sbFJLpcPdiAIPYOampquXSuuqHj8K2YRQgNkQFrMLC2hrV9f6YlQf7G0tBjsEBBCT+inn34GAJq2HbhV4PkLDVkDff4aPXq0l5dmQIfFx/qFhqwhcn04IC1mBEEMkc1DqCNLSwt8LgWh4au+vgEARCLRwK0Cz19oaHoK56+mpiaSHNjBqLB+oaFp6FwfDlCLmYW19ZDYPIQQQs8MQRAsLCwGdIh8PH+hEauo6DueF2bP7s3LT54Q1i+EeoaDfyCEEBoeWlparK2tBzsKhJ5NKtUEnhcGOwqERjRMzBBCCA0PBEHY2eFpC6EB8fzzONgpQoMMz3AIIYSGh4aGBgB8QAWhAVFS8j2AUa32GOxAEBq5cLh8hBBCCCFkHOwAEBrpsMUMIYQQQmikw7YyhAYdJmYIDTNtbW0832o04q1NNLSMGmVhZWU13MfCxvqFhqanUL90uhoAUCoH8AXuWL/Q0DR0zl/YlRGhYUYQ8KyGhqLWVmNz87Af0g3rFxqankL90un0Op1+QFeB9QsNTUPn/IUtZggNM21teFZDaKBg/UIjVkCA30CvAusXQj3DFjOEEEIIoZFOp6vR62sGOwqERjRsMUMIIYQQGukqK6ssLEChGMBnzBBCPetVYmY0Gi0sBv95OISevuHY7+LL0n9m3/jyas2lOu6OlBrvLX9xruuiRR6/G+y4EEIIDV1+ft6DHQJCI12vErO2NuOoUZiYoZFoeCVm+nu3t5yMzLuV8+CTOu7O6YovT1d8mVWSvu2V3YoxEwYxPIQQQggh1J1ePWPW0tI60HEgNDS1tg6nwv+nr37fMSvrKO9WzuavVnf9vDBp/YLFyxcsXr5gccTGpNOVnNm5+cpjsatjz9Z2/Iy9mhi5eV8JB2DITdi88WBF/ZMHbm75vZ2VKcz5pmvY9drLmQmbly9e+faRKv7JA0OoA67ieFLsm6tWLli8cmVkbOLJinr28vaIiLjzBgAAvipz88rlMadreQDgq0/GroxKL644HR0Rm6V7WAZ53emNy0w1buXKqI8yi5jHlE/2emZ81Mplyxe8vn5jwvFi1uxETHbs+o1PVtTZ69nnK7oslasuOp64OWLB4vX7Sh6tXVzFgcjl7QeN16Pijlw3H5F5fHXB2Yu6HsPkKvY9WP79Q1NiUecaXl9+4O3IXRcfWfev2AkIAAC+/fbqt99eG5RV87rTG5etfPvBeYT5Zktk7HGzRaXTMZ83FB7ZtTHi968uXv7qqs1b9nxTzTPZsRGr91ytBwDgilOiXl31kamo8Nqjb0fEHtfV1xalx0VFvLp45crNu46Xmz/tITQoepWYtbUZW1vbBjoUhIaalpbWYdRi9kVJ2hV9fg8TFOkvflGS1uVjQvnyloyjh9K2r5CVpyceeYL8SuQWGBTsLxX3ecb+wFWcOHKujOU7f3jwaDHpolGIyEGJCj17eP3xhI+Sy+n5G+LS/vFJ/IbgAJkIJC5TVWTllap6ADDoyxmBY0orOQBo0JXUiV29FDZmlkRKvN7dl/bV5x9HTTFkpWV3czekfa1lx1KzWL+oxM8y9sVtDnlBSfXzZtVr87KOXe5UgXhdXmrGVVB5qmjCzDykdMbGv311NC0jLpjI2X+gwNDblfF1xceycrUNPU1DuUTsPvTV0UMpb3rJXH+X9Pmhr47ui/Lp781G5nh6/sbDw33w1i9oT6Wf0T4us37kmM9XHvtoxxd65ZJNSX//7LO4sPk+NAm0m7+Cv1Gq4wB4Q6XWIHA1xQwHwNeWl3K0lzvdoNPTM8O3fvb37RHKqvS0vGrM5tGQ0dvBPwSh1dLSAp80QyOH0WgUhOHUXHai7PD9X60nem55z/8/J1rdvflD0rZzX+paH06zRB1qdnaJ27Rg/+M7tHqOZf7yXpZyY9wqN7K+6NMNaURUXBgFPK8/lxxzuLDcIFEHRW5Y6vtw1obynMOZMkWAGw3M1fSU1BMFNRztEbY1epnKlBZxlTnpyRl5ZbzU97W1707v5fJLE2NSOTcXYPQ6RlC+HBb5mqcEuLKTqcnHSlkBJOrgiPlE5gd78g2Qvz40Wb0macs8B9MKKZdlWz9YBkx27LUTA7O30UjD6y+f0VLzN60JVlMAIHHzdgAAADd/OZwsZXhvYEpZ2bQAgSlnuKmkvkhPuIUqxNDdGHckkBRFkSRFkwQAp889uD/9Sh0PIueXw959zfP+bQ4BBAFIWiajxCSIKQCA+qLkTSmwdsdaX4ovS4nZwS7buckRgGevZG7NKS1jCPfAsLfCX5JoD0Qn3XJ2EzG6mlqODnhj3Sp/GfnoilYpz8UlnNMJsOG3Wcol25PecDJVIFI5L2bHPGAvby+p6n6XkGKVh6/scFa5gfcndCdTd3+RV84SSp95a8OX+tJ1x7fFn58eHfuKgmS+2RJzXLNpFXnww+SSBij5w/m9L2z+5E8a/fHdB49XGoCUea14M2ymstu7KDx7NSsl88SVH1jCMWBhWMRrngSAwFWdSHp/d8ktQea1YsPaYLcOM3S7P1FPxo6VDOLaScmkGQpDVkZewMbZ9vc/7PSnX+VflxzT4Zi/0Sk7p0a5ZGvkK04kAEg8pyoBAHg3L/svrlWyvDtVVcY5zVBzuhsG3o3SldRRbp4yscx5YZBp8SoVDTpsMUNDSG+HyzcajU1NgiC0trUZ8eWA6BlmNBrb2oyC0NrUNCReNdh7Zcx3pl+s7d94z2v0Z4f85uybG5HzMCvrOI0ZfF2ltoFSKbq7NS0QtE9I9N4d7wRwZ5MzSs01rDH5KfuzOb93E/+WlrhuruL+ZRZbmnmkVBYel7Z7U5i/vLuLL3PLF4gpSzfHfZCwwaP21PFiFurLs5JPCcHRH3+W+I6GOZ55x2Nz3BqNzOOtT9L+FXc/K0NoAPBsDUvKNV3qh8TV295QUcZwTHkN6TYtQAU6raGeqajknXxVdDeLuvaXiOULFq/elFanWfiCM8lX5+xPZ6ZtTvwkKXoen3M492EPLsp54YqpbPq6iPcTj12t7vkCknBZGr09KToICv6ZWsAAAAiE28K34ndsj3mFzz92rZbvvKLvFGviN7wgcw1O+vzQ3vtZWR/2CXOrkAGlG82XZyVmVChD41IS35nDn9198LKZ/o2EY3D0n5eqpDM2/u2rf/xpJlxNTzkrCYnb+0ncWkVF5jGzh5R2JOUUEPLOzr8fOhQ3j8vJKmzv/knYz1i1c3fcWrea9L3Hyx7unB72J+rJxYuX8/MvD9rqCdr3taVuuqz0K4YHf7BOf/pictojx3xBr+MoZzdpp6JLyjw1VF2x1sDqKxjaa6a/lNPWcKy+WE+4T5E/zNLZihM5ent/b3s8d6Aho2/D5be0tOLzZggNcWNob2nL1bqmXk4u6E5tCzkFAHZugcuiXnMR84y5yUhK5uWrVtiDdH6gU35OFSM4dZ6EqynUEb7hwVNVj168klJnynA447BySdBcfxlp/uLS7PJFEglFAgAtE0MNL/DsjQqdTp++MyYTBJYxOHACXnANNV9/nf0Ec5EkQZKkra1YKh03duxYS8s+984wGo319dy9e/fu3v13Q0NjS4vQ0tLa0iL0tTdyYODMHsIEAOCu747adoIBoKe9n/jOVJmHD326WFtDannZDEc3lj5xo0YHpZxymhsFYK60kxKvd+M2zZVBbdHhv6TsyZKtk5Toa7VZO2JOE3wDYxA5d5iLlPlFJn4ypyDvTE7qpiNZK7ZumtNNbBK1t0YpI5WzF6mzU0vquEAAgpLQFABQFA08B9Cg7X5FfcDXnd/5h/M7AUCkWfLOu1NE7KkKTjlvqb+TPQlzF3qfSSnVcU49L6OeKS3T1XEpH5aRILA19W5cj3fCOO2xT/fl/MCRBICjLw8AQFAKnyku9hKQLJx1Ir60Q7NHP23mkNTczJ8/n+/jM3nsWDo3N9/RUenoqLx2rdTCAiZP9qiqqq6urpkxw/+XX9iiouJZs6byvHDp0rdqtSdNj2GYOltbWxub0d0t3MFB0cOqGxsbbWxsjEbj99+XK5XKMWPETxBPz1tHyvxWvJb3wZGj5euc7n9m5k//KIIAADDkxkftKGgAkC6K2x6hlvu6ivaV3NIpa0iln7sKyAsVlXqRFpwWPTg98frsvXvOwOyYV/p8SwKhgYPvMUPoGeEum3xBmw0A9wxl98TeE0fDzS6XI+6yyV3mI5Qvb0lY16Grz2NyHZLs7iTW3YyU07K4RE1B3plTuzZeWBobbu6pld4sHwAAJOoVsVs7dHTRlfa4NPS0TZjQ07VdV6NGWQEYm5v55mb+p59+/vHHWisrKwcHuVKpIIiei0o7lmVra39imLqWlhYAsLYmbWxsKIoiCCuCIIzG/nlAmpTIJfxlnYEHlWfkvkNry9Ojk+oAAEipxo3ILfgGGFqjoCW0gsy5nMsZZGoXSU8lmQQAezc/FZlXrGucCZT7wndiX+vmApGk3WcEufu/oIqPOXG+Zqb6sbES0O2qO6+INXsf5jHLl87YGBelrkretr9WJpWQUAsA0P7HIqBXfzUAAJn32rh3pvai91zthfQDWpeo3Vs1xOUdMb3J/Hvcn8MZSRIuLs62tmIAmDRJRdNjAMDBof3NY1Lpc9bWJADY2tq6uk4kCIIkjSqVk1gsAgCt9rZC8bxSKW9sbDKbnimVZt5gxnENFCVqaWm9ePGyp+dvZLLJ6i9pAAAgAElEQVRxvyaelpYeTzAE6TB9xfzzCekn2/P0x/zpKYWS4rQ6A69WzIz++0zu6u6YdNMXSh8n4cjliwZOFqigZIKSz8o/D/WKue6m8sYzuXsTkrUukXFLNfgAIxpKMDFD6Bmx3GuNKTFr/unzz3T/+CC84r0WQ53ur+9/ffBm68NperEkkoCGWsYAbpROq+d5JwAA4HlDhY6dbU9W5edUkaogGQEAwiM3uSVyX6Ww74usi7JgXxnwQIlNl0U8x3Ii9xlBzkq+MuGarmFar5ffOTCJqwtx5PSJEu9Vaho4Awu0hCQI4Hu+2Y6eJo3mN32avrHxkQu1+vqG27dva7W3dboaLy/1mDFjepj33r17ZWU36usbrKysxo+3l8nGicWUldUj5zUbm75dnHeK5wFS4TdHlZWcsIt8Y9nMKU4diielnOIi7DxXrJgXLCHFlIeM23WGkS8NkZKPu8tRz1RoOTsf5XMqNV2dc7pwRthUGclzBp6iH9wo4VmGo2QSEnimolgPYn8RkAQINbUsD1BTqTMAdX9CrZ7lnSTM1TMlgipUQUHXPmmirisCkgSB5wToPpczj5R4rwjxiE5Jz1W/E+DqQh07m6+d5qDiinJKedVSpYSoJXhWW8eDlNNVtI/UQBAUAaZ2brHMwxn2n7hQpVnoJAaO5QhT67g5PKur40lPGU1yN27VCqABAACBY3QMBxIoP3+5lvZ0pqCS7HYzn5lnzCwsLBwdlabf5fL2O1Rjx7Z3mqUoEUWJAIAgrB7cIlEonjf94u/f/mjwxYuXPDzcxo9/cIOrXUnJ9wBGtdrjwSeNjY0FBd96e2vGjpUEBPiJRDYA0HGAkCeI5zFIxZyQWbnbDpeDywxzf3qy4zGfks8MlJ5J27UbViz193DosBiJyktp2H+GcQoLFZESuZukLvkC7xbqJAEAMBSm7Tqg83g3Lmyq7NlL3tHwhokZQs+IuS4Lp6vmXtBmQ2vtuf+dO/1/O08QOOm/5rosfPyCJB7BCx13JP1xeZqLj5oSk6ZLUJIkDCfiI+JuCPb+wZEh3mJK7yYzfJqwSxW35v5FjywgPKxyT/pf1mdxIF8UFxehpgAAuKrsvalZRbc4icfckDCNk1TSm+XD1a6hid2CI0MMyUnrFzCEzNVv6bqwIIX3fP9zu6NCD6vXJGzBx8yGPbFY5OHhLpPJSkvLioquqdUe48Y9Z3bKmze1t25VW1pauLpOlMvlT9D7sW9IRdCGPwspyZnx7yUDUDK50jXI9GiKWOWtIrKLlR72FAAhd5NALrho7l/w8Wxp8vrQZAAAIFzDdq4jTM+Y/QWAkHnMD30rWCUmZWsimP3JUaEf8HYq/6DIdYvdH6RbN47vzvi2WFsnAMimr4mZoZDA7EWun6ZGrT6s8tJI6PbVkCQl5P1l/Z5ilta8EvauPw1aM9vgENhlRa5z59N7tryerQyN29nHJiaJ/4oV52MPZFzWbAiOWmLYvfMPqSyh9JkXGe4nAdJ34ewzexNCX5dqpjiZhi0BUh6w0CN379sLDk57P/GdVeuC9qV8GJpyl1R4zAxZs3aGopu1k86B85xz9m+IOO3uJifv58QERVZmxC4vqQGlX9ibwc4UAa52lWkJibK497puJraKdDB16oumFrOmpubRo607fPOw3y/LsqNGjRozZsyDfMz036dA7DZvVeC5LSfB/J+efuSY777wT5shOTktft1eICipUuW1zDSUKO0SoIB8xtFZQgLQzq4ivsjOVy0FAGCuZ538gRF++CDC1AQnX7Q9LsINiwgaEiwaGpoHOwaERrT+uqMPAJW/lL96IIBvNTOBiKC+Dr8y3rZv3cwQ6qv+Ks+NjY3XrpU0NjZNmaKh6fYb8JcvFwFY+PlNqaqqrqzUisWUWu3R8/ViP9YvhAZdP5bnqqpbt2/rZ86cZvbb69e/JwjS1XXiU4sHoUE3FMozJmYIDbJ+PxB8WfrP7BtfXq25VMfdkVLjveUvznVdtMjjd78iRoR6qx/LM88Lly4VtrW1vvCCjyn7MiVmEyYor1//XiymfHy8OnVcHNB4EBp0/VueO7WY6XQ1ACCVPmdlZTVq1KinHw9Cg2solGdMzBAaZEPhQIBQf+nf8vzvf9cXFl4RiUR+fj4WFhaXLxcZjcaGhkaCIF580ac3o4Ng/ULPkn4vz9XV+rq6Oh8fbwAwjZVvaWk5ZswYd3eXQYkHoUE0FMozPmOGEEJoiLK1FU+c6FxRcbO6Wj9hghIAeL6lra1NpXLs5ZiNCKEe2NiMHjPG1vR7QIAfAPz00y+PPniGEHp6MDFDCCE0dDk4KO7cqdVqbz3//HgAEAReJLKRy8cPdlwIPQvGjXvuwfg6Ol2NIPAqldMgxoPQCGc52AEghBBCPXF1ndTa2qrT6drajEajUS4387YlhNATKyj4Vq//sbJSq9XeZpifBjschEYubDFDaJixtIS2/nllLkL9bIDGrLezGyOR0Ldv662sRgEATdsOxFpMsH6hIWvg3gnh5OQ4Zozt2LFTGhubxo4dO0BrAaxfaAgb8Heu9A62mCE0zBAEMUQOHwh1ZGlpMXDPfalUE1pbWwWhBQBEItEArQWwfqGhakDrl729lCStmpqaezkY4xPD+oWGpgGtX32CLWYIDTOWlhbW1kPi8IHQU0PTNEWJGhoaAOCxQ+T/Gli/0MhUVvbDnTuMhYVFYOCMgVsL1i+EeoaJGUIIoWHA3t6+slJrYYG32xHqf+7ukyhKBID1C6HBhF0ZEUIIDQPPPy8FAEzMEBoIo0ZZyeXjFYrnBzsQhEY0TMwQQggNA9bWowEs2trajEbjYMeC0DMoL+/S+fN5gx0FQiMaJmYIIYSGB0tLAICff/5lsANB6Bk0btxzEgk92FEgNKLhM2YIIYSGBwsLCwDjnTu1D16JixDqL2r1bwY7BIRGOkzMEBpm2traeL4Ve3OhoWbUKAsrK6uBHgvbwgLq6n5ubm62trYeiOVj/UJD00DXr+bm5vz8b21txY2NjQEBfgM0bj7WLzQ0PZ3zV29gV0aEhhlBwLMaGopaW43NzcLAr8fSaDRWV+sGaOlYv9DQNND1iyRJkiQEQbCzowfubWZYv9DQ9LTOX4+HLWYIDTNtbXhWQyOXhYXFmDFjdLofnZycrKz6//IR6xcamZqamgIC/EyjnjY2NtnYjB6ItWD9Qqhn2GKGEEJoOHFymtDW1qbVVg12IAg9I9ra2i5evHz9erlOVwMAFy9e0ut/HOygEBqJMDFDCCE0nDz33FiJhK6u1tfXc4MdC0LPAktLS3d3V4OBvXXrNgB4eLjj+DoIDQrsyojQs+bL0n9m3/jyas2lOu6OlBrvLX9xruuiRR6/G+y4EOo37u4uBQWF169/7+fnY2mJdxgRenKC0GI0tsnl46XS9mRs/HgZADQ0NIhEokENDaERB89nCD079Pduh3++8L2v15yu+LKOuwMAddyd0xVfvvf1mvDPF+rv3R7sABHqHzY2NiqVE8c1lJdXDHYsCA1v5eUV16+XAcDdu/fu3btn+pDjuPz8b+/e/feghobQiIOJGULPjj999fu8Wzlmv8q7lbP5q9VdPy9MWr9g1Ue5DA8AAHxZyua391yvN33H64/HrFwQkVzIAQBXmBSxYPHyjj9vplTwvQ2NrzwWuzr2bG2ftwkA+OqCsxd1nVfFsxXZBz96c9ny5U+4WDS8OToqx4177scfa3U6/VNYHa87vXFZe8l/NfLDA0WM+cLPXk2M3LyvpGMfy4eFv778aHTUrtxuZgUA4JmLKbGrX1+5YNnv34z59LjWbF/NX1GbeKYw55vKHnuAsuc/Wt5ex1eu3Jycq+tLf1H2evb5CrbnEHTHH+zJ9p9lH+YynaZismPXbzxS1XFP1ZcfeDty18Wel476oqmpqa2tzc3NxdPTHQC+/768tPSG6SuKogICXrCzs306kfC60xuXrXz7YEX72Yf5Zktk7PEuh32ALmWYNxQe2bUx4vevLl7+6qrNW/Z8U80z2bERq/dcrQcA4IpTol5d9ZGp2PDao29HxB7X8Xj6QEMWJmYIPSO+KEm7os/vYYIi/cUvStLMfGH49kBGaderHZ4pzWcd3YiK3HIDAOW7Yd9XRw99kfg7N5nXu/sOfXX00N5wF7Lfwu8eX1d8LCtX29Ap6OIv0s/oaY1aSjyFGNCQpFZ72NnZ3bhx84cfbj6F1ZESj7c+Sfvq87/G+AvZSan5nXOJxxMrPecvnKWiu6039SVZqQVEcPTHGQc+iX8z2FdG/aqIu+IqThw5V8Y+5o4K5Rqc9Pmhrz7/OEpddWDv6cpe34Cp1+ZlHbvc8+JJZdDOzENfHf3b+9Olype3ZBw99FXmn2fKersK1I8uXSq8dUtHEFYkSQKAl5fay8vzwbcikaitre2bb/J//vmXpxKOoD2Vfkb7uNL2SBnmK499tOMLvXLJpqS/f/ZZXNh8H5oE2s1fwd8o1XEAvKFSaxC4mmKGA+Bry0s52std1oCnDzRk4TNmCD0jTpQdvv+r9UTPLe/5/+dEq7s3f0jadu5LXevDaZaoQx+ZjSCUU6ZRJelZ5S6r3DqepHjdlTzWLWgVnX3gQgXr4yfpaeVcZU56ckZeGS/1fW3tu9OZv7yXpdwYt8qNrC/6dEMaERUXRgHP688lxxwuLDdI1EGRG5b6SgzZ8fFZhIeSq9ExdaAKjlo3z5niyk6mJh8rZQWQqIMjQ12Kd8YmlzRAyR/O731h8yd/mtkeB+0bvtUX+MojsYUl/bL/0PBjaWkxZYrmxo2bt2/rf/nF4Ozs9DRGLCBlvgvnul84XMYYlCc/jNMH74x+ScLrs7bFF07fss0feMGgO7br7YRSHchnvvHW2kD5g1l55npWRkXwFG8H0Oem7T+QU8rw0oB10ZsDFaZcTRAaeCAkMlpMkUBRAADsN3G9qU1QmhiTyrm5AKPXMYLy5bDI1zwl8EhtiphPZH6wJ98A+etDk9Vrdm6QFqakZxXVkW7TVr0ZNlPZJV0kZW4+LuSFiloOlIar6XtST5TU8JJJM0PWrg10gqLkTSmwdsdaX4ovS4nZwS77PzMub084pxNgw2+zlEu2J71G5B/cn36ljgeR88th777mKe52n3KVOZkHjuQV6wV79bQVb4bNVAIAz17J3JpTWsYQ7oFhb4W/1PEQxJYc333weKUBSJnXCrPBo+7dulVNksTzz4+fPNlTLH74Z7Gxsek0paWlpUrlZGtrCwM5hr4JKZk0Q2HIysgL2Djb/v6HPHs1KyXzxJUfWMIxYGHYKv+65JiHZThpo1N2To1yydbIV5xIAJB4TlUCAPBuXvZfXKtkeXeqqoxzmqHmdDcMvBulK6mj3DxlJO2Mpw80VGGLGULPiDLmO9Mv1vZvvOc1+rNDfnP2zY3IeZiVdZymI0I5a9XLRG7auUquw9sV+ZrCAs7Z39NthhdZnlfcc/chtjTzSKksPC5t96Ywf3l3l0gCQfuERO/d8U4AdzY5o7QeAHgBKL+I6K1/jQtz1h7PKufqy7OSTwnB0R9/lviOhjmeXiIKjv7zUpV0xsa/ffWPB1kZQu0sLS3d3V0mT1a3trZ99931/PzLWu1tljU8+BmIlbLa0lqQu8u6HxdBNi9qx8fxIdLig6m5Zrpj8dWn9u8rEAVv/DhtX9zaKdIHVUYyZekK11uJkX+M3nO6mOmpD6GZ2gQCMWXp5rgPEjZ41J46XsxCp9qUecdjc9wajczjrU/S/hU3C85nnuBmx+z7ZOeGYI3MbK3ldOUV9bSLPcXkp+zPhlmbE/+6M0RRfvDTw+VmYqP934rf8ILMNTjp80N735DX5uxPZ6ZtTvwkKXoen3PY3H54gJKp562NSzx09JNIRUXmqfv92QiXpdHbk6KDoOCfqQUdGijZq+kpZyUhcXs/iVurqMg8VtrDjkJ37jBNTU0AcPu2zjQIPs/zLS2tAEDTtJXVwxv0ly4VXbpU2Gl2uXw8SRI//lh78eIl0yeNjU2mXxoaOnVk+HUI2ve1pW66rPQrhgdlhaScAkLe2fn3Q4fi5nE5WcXktA5leJ6DoNdxlLObtFPxJWWeGqquWGtg9RUM7TXTX8ppazhWX6wn3KfIu79BgNDgwxYzhJ41Y2hvacvVuqZez0BQqldWBBTsTy/wCL7/Wb02L59zWupKiynvACo7t4SZOaP7zkak1JkyHM44rFwSNNdfRpq/niQpmZevWmEP0vmBTvk5VQwvBwBSRlMkgEBTJLBCA3ujQqfTp++MyQSBZQwOnNDrXlRoSPj66+wnmIskCZIkbW3FUum4sWPHWlpa9Gn2cePGSiR2lZVVDFPX6f1mV670LZLAwJndfcWzpZ+uD/0UgFB4Bb+5JkAGOnOTkQTt5u/hLKNgRpDvsT3F+kb3zpM0aEvqJNPfme+j6JwPkYq5mz7WlOTl5pxLjMp0Dt+6eYrZWLrUJsEJQCSRUCQA0DIx1PAC32NtIiVKGXxxPP0LIvjlab6PxsHdyNrw2ywAIBTT1m6a5yxUZOkI3/B5vkoKZMHzc+LztQbhMZ0PG7Ql+lpt1o6Y0wTfwBhEzj0+qiYwl1P3HM7XA0UANUNoj1DtrVHKSOXsRers1JI6LrB94nqmtExXx6V8WEaCwNbUu42gtyY0N/Pnz+f7+EweO5bOzc13dFQ6OiqvXSu1sIDJkz2qqqqrq2tmzPD/5Re2qKh41qypAPDDD5XOzhPk8octty4uE80ufOJEVXfrff55e5q2A4A7d2pLS8tnz57e3Mzn5387ZYqmtLS8T/H0gJT5rXgt74MjR8vXOd3/jNMe+3Rfzg8cSQA4+po5HxAEAIAhNz5qR0EDgHRR3PYItdzXVbSv5JZOWUMq/dxVQF6oqNSLtOC0SNXf3YMR6leYmCH0jHCXTb6gzQaAe4aye2LviaPhZpfLFXfZZLPzkpTnshCPLSmZF1WCQAEAp7twuVxb88Hvz5kmoHJKa/1l9t21hVFOy+ISNQV5Z07t2nhhaWx4z/32TY8zdEuiXhG79WFXFuBw2L3hZMIERZ+mHzXKCsDY3Mw3N/M//fTzjz/WWllZOTjIlUoFQfTqARCWZWtrf2KYupaWFgAgScLKirC0tLSwAEvLUa2twmOX0EukxOOtLdFBD3vNPfamAUk8SQ870l49e5l6mu+R2C0512rVdj1P3KfaxOseNi5J/N9J2n41P+f0gW2nCzdsjVA/vGClXIPjty4lzidsPSWyp9s/f7CeXj+WQ7kvfCf2NafH7wOuIjMlGxbGZQTKmYzYHV2bOUkCOi1F5r027p2pI68JnSQJFxdnW1sxAEyapKLpMQDg4NCedEmlz1lbkwBga2vr6jqRIIiWFv7FF31JkgCACROUPS/cNEp+d0z9GMePt7ezs7O0tLSxGe3lpX7+eZkgCH2Kp6cICNJh+or55xPST7ZX29oL6Qe0LlG7t2qIyztiutz0oRRKitPqDLxaMTP67zO5q7tj0k1fKH2chCOXLxo4WaCCkglKPiv/PNQr5rqPvDKDhhdMzBB6Riz3WmNKzJp/+vwz3T8+CK94r8VQp/vr+18fvNn6cJruZpf4BC/L2ZZ4oU7yMgBXlVsiBGz8a8wMGQDUl6dH7zxXyEwL6u5BDp5jOZH7jCBnJV+ZcE3XMI2AhlrGAG6UTqvneSfTRLyhQsfOtier8nOqSFWQjITKzgsiJK4uxJHTJ0q8V6lp4Aws0BKCoAjAlrPhQqP5TZ+mb2x85C9bX99w+/Ztrfa2Tlfj5aUeM2ZMD/Peu3evrOxGfX2DlZXV+PH2Mtk4sZjq2DULAGxs+pYbdYrnMSiCZ+tYDii2quz+WIu8YGB1dbya4krOFnHSRQobggEAoUMeJ1Kppeyxoyd8wua40iCAmLofJGdgQSShSOBqykrqSNpOTJC9qk1msiXSTG0iCQJ4U59lnjWAzHvuG04UE3u4vI5XU4/sKYJ0CFwRfCHhwBfX3cLlvkohPedqrfolSnv5DGOnUdGEQIBQU8vyADWVOgOY0jeSBIHnBABSpFLT1TmnC2eETZWRPGfgKbrbLmQ8w3CEREaLoS5ff7d9UcCzWj3LO0mYq2dKBFWogoLLIAAAiGUezrD/xIUqzUInMXAsR0iokfKMmYWFhaNje34ll7dn3GPH0qZfKEpEUSIAIAirB7dITFlZb3z77VULC6Ovr/lW2gcePGn23HNjnyCexyAVc0Jm5W47XA4uM4BndXU86SmjSe7GrVoBNABkhzIMlHxmoPRM2q7dsGKpv4dDh8VIVF5Kw/4zjFNYqIiUyN0kdckXeLdQJ8zL0BCHiRlCz4i5Lgunq+Ze0GZDa+25/507/X87TxA46b/muizsfgGygJClmit7dABceV4R57JC3X73VKyaNpM+e/5K3VxlN2dWrip7b2pW0S1O4jE3JEzjJJUsdNyR9MflaS4+akrcfllAkoThRHxE3A3B3j84MsRbDGZGtRO7BUeGGJKT1i9gCJmr39J1YUEqecBCj9y9by84OO39xJF4j3xEEYtFHh7uMpmstLSsqOiaWu3R3XgeN29qb92qtrS0cHWdKJfL+9r7sT+QSv+gqQWpG1cdV6q9lTRpatUhCYq7krohrbSWmDT3jbVzlWLe4EgeTN2aJv+wvTMe6RC4JkK3/0Ds28kC4RYaF3+/WYlnrqanZF0srzEIQKhmRYX7SSRCcK9q09Wu8ZmpTQrv+f7ndkeFHlav2jRT98XhvDKWUPoErQo092go6TQndG7uzvTD0/+8InxN5Z7UDa8nmQb/WOpGibnZi1w/TY1afVjlpZG0DzQpcZ07n96z5fVsZWjczlfWRDD7k6NCP+DtVP5BkesWu3fXiUziOd8/K25bVKHKxY0mHuR4lJD3l/V7illa80rYu/60mPNUQsKOeMedWxevWhe0L+XD0JS7pMJjZsiayBl9a6dFZtnZ2RqNgx0EgNht3qrAc1tOAgDpHDjPOWf/hojT7m7y9rJPPyjDaxK2zHNf+KfNkJycFr9uLxCUVKnyWkYTAAC0S4AC8hlHZwkJQDu7ivgiO1+1dDA3DKFesGhoaB7sGBAa0frxjn7lL+WvHgjgW81MICKor8OvjLfFyxc0sPqrPDc2Nl67VtLY2DRlioam22/Anzt3wWi0mD37paqq6spKrVhMqdUeIlHnoeQGIh6EhoKhVp6HWjwI/RpDoTzjqIwIPTucx7pd+yO7/b/2z3NZJKXGA4CUGj/PZdH2/9pf+C6DWRkaRmxsbHx8vAmC+O676w0NjR2/qq2tM2VlPj5ePWdlCKHeq6i4eePGD4MdBUIjGnZlROhZs8jjd4s8fjfYUSD0a5Ek4eWlLiy8UlJS6ufnY2Fh6qxo/P77cmtr6ylTJnd6nAwh9Gvcu3dvsENAaKTDFjOEEEJDlK2teOJE5/p6rrpab/rEaIS2tjaVyrGXYzYihHrJ13fKY0f+QAgNKEzMEEIIDV0ODgpbW7FWe0sQWgDAaGwTiWzk8vGDHRdCzxqdrkanqxnsKBAa0TAxQ2iYscRai4aqARoa0dV1Umtrq06nMw0Z1/FVuf0O6xcasgZ66NFbt27funV7QFeB9QsNWYMxtK8Z2EEfoWGGIAhBaGlrGwKjGiPUgaWlxQB1L7SzGyOR0Ldv641GIwDQtO1ArMUE6xcamgaufj3w4ou+A7p8wPqFhqqnUL96CRMzhIYZS0sLa+shcfhA6KlRqSYUFX0HYASwEIlEA7cirF9oxLp7956FBTz3nPk3B/YLrF8I9QwblRFCCA11NE1TVHs+hoMxIjQQvv++vLT0xmBHgdCIhqc3hBBCw4C9vX1lpdbUmxEh1O+8vNSDHQJCIx22mCGEEBoGnn9eCgD332aGEOpnra2tgx0CQiMdJmYIIYSGAWvr0UYjABix0QyhgfD99xXff49dGREaTNiVESGE0PBgYWEEsPj551/GjRvA8QkQGpk8PNwGOwSERjpMzBAaZtra2ni+FRsN0FAzapSFlZXVwL0KprW1zfTLnTu1A5eYYf1CQ9NA1y8AIAjiwRA7CKFBgV0ZERpmBAGvGtFQ1NpqbG4WBm75HMeZfqmr+7m5uXmA1oL1Cw1NA12/GhsbCwq+LS+vGLhVIIQeCxMzhIYZfDUnGpl++YUFAAsLS6PRWF2tG6C1YP1CI5ONjY2j4wRsMUNocGFihhBCaBi4n5hZ2NmN0el+bGnBEeQQ6jeNjY3Ozo5KpWKwA0FoRMPEDCGE0FDX0NBoMNy1sLAEACenCW1tbVpt1WAHhdAzwmg0Xrx4ubLylsFwd7BjQWhEw8QMIYTQUHfzphbuv8TsuefGSiR0dbW+vp4b7LgQehZYWFhMnerH88137tQOdiwIjWg4KiNCz45P8vTbz95iG1s6fS6xsXo/0OnNAPmgRIXQr8QwdXV1P9nbS3/66WfTwBzu7i4FBYXXr3/v5+djaYl3GBF6cvfu3WttbZVIJL/5TZ+HyzcajfjOdzQyDdADyXg+Q+gZ0cC3xWZru2ZlAMA2tmw5XcnxZp/J4WsL0uOi1i9fvHzB6+vfjk+/yNRXHnt/ZVR6GQcAwBbsWrls/e4SDgCAu747cn3ceYY9/9HqqANlD5sruMKk9QsWL1+wePmC16Oi95yt/LUtGUx27PqNR6r4J5iVZwpzvukSAFdddDxxc8SCxev3lWAzy3Dy73/Xl5aWkSQxaZLzgw9tbGxUKieOa3hqg8jxutMbl618+2BFvenfzDdbImOP69pLaH1R8urFK6NP6nmA2pwPl5vqwoOfzcerHxRlnrmYErv69ZULlv3+zZhPj2vNlka+8ljs6tizT9R4wVcXnL2o61x16rWXMxM2L1+88u3O1apD5V0c8XbC6bK+1I967TfZRUzP9fQxO8SEvZoYufnRuvlrdgLqgzt3mJqaOwBgMNy9e7dvXRlxsBw0Yg1Q4ccWM4SeESLSslFo67FUgcoAACAASURBVO7bBr6NIkd1/by+JH1rQp7klRWxG72VlEF7o44gxEpXT8mRikqWd6egtlzPCYZKbR2vpoCpqBTkc1Q0aLssiCCUL29JWOciaPP2xaenqz1iZsj6dft6jas4ceScj6ufM0U++IzX5aVmXKVUniqmanCiQk+EZdni4u+NRpg8WW1tbd3xK0dH5d27d3/8sdbWVvy0RiwQtKfSz8yIDlaRj37OlRdUUK5y9sK12kCFQ+CfDwUCcNd3b95T/0bce/50x0nrS7JSC4jg6I/nqCiBNfASqp9j5OuKj2UVv+w9VdkhSK7ixMGjxRIXjcLAmpnHVHk9SbbiRNKu3Rny+HBPce9Wpjt/PItbEeAjI7ufyL7HHYIGEcPU2dqKXV0nmf5ZVXXbwgK8vDS9X0JLS+uoUXiLH41Era0DMgAVJmYIjWjFJ7+tVy+LDZ1tTwIArfF3AgAgvTSSvCJtQ5CMq9SCZroLW67nFsrry0tZmbdGRppJzNqRFEWRBEWSJADwzOX0PZm5+gag5DND16zyuZ+q8frctNT0nFKW9pgf/tZSyNyUAmt3rPWl+LKUmB3ssp2bHAF49krm1pzSMoZwDwx7K/wlB+5qYkwq5+YCjF7HCMqXwyJf85Rw+tyD+9Ov1PEgcn457C3/uk9j9uQbIH99aLJ6TdKWeQ4kAACpnBezYx6wl7eXVA3wHkX9o63NWF2tu3lTS5LE5MmTx4yx7TqNWu1x5cp3N27cbGpqmjRp4kCHREomzVAYsjLyAjbOtu/4BVuae4OaGzqrLO1cvn6uQ+e07RGC0MADIZHRYooEigIAYL+Jey9LuTFulRtZX/TphjQiKi6MAp7Xn0uOOVxYbpCogyI3LPWVGLLj47MIDyVXo2PqQBUctW6eM8WVnUxNPlbKCiBRB0eGuhTvjE0uaYCSP5zf+8LmT/40UwIAAJTLsq0fLAMmO/baiZ420FGjtsu6UsPxnsKN4/tSjuZrGyiV37LwsGC1qPJgTJw+eGf0SxJen7UtvnD6pmX6T7ccuyXAtpBT0vlbtq9Vlpqv713xzMWM1PSca1qOdpsRHBk+zxmAFwy6Y7veTijVgXzmG2+tDezY9frRzQyf59zf+ezIVFpa7uioVKmcTP/09HTv6xLa2oytrW2Ym6GRpqWlFbsyIoR6ydLNe9KRt/2vR/keCZI69nj7hWF4idpF0ulKknLyVRG6Ej3L1ZRz0oAZXmKmQsc26ErqJK4e9mYvOwVBd2pbyOLlSyIS8iXzgtU0AJOfkl6uCkva93HsEio/I/tBF6n6G6fTi4ilcZ+kxK2Zr+r+tTmEy9Lo7UnRQVDwz9QCxrQaYsrSzXEfJGzwqD11vJjlq3P2pzPTNid+khQ9j885nA/TNset0cg83vok7V9x7VkZGkaMRuPdu3fLy3+4cOHizZvaMWPG+Pn50LSd2YktLS2mTNHI5c/fvq2/dKnwp59+HtjgCNr3taVuuqz0K4aOHfHYG3mVlJ/GzXumwpBfdKvnfn2SKUtXuN5KjPxj9J7TxUxPvQYFgvYJid67450A7mxyRmk9APACUH4R0Vv/GhfmrD2eVc7Vl2clnxKCoz/+LPEdDXM8vUQUHP3npSrpjI1/++of97Oy3uPrykrukgo5xV09sOcoo16btG97pJrJ3JNZaCZSkSZ8a0ygXPnyloyjn0T6cN3VdzNIyjlwRczuz776x6YA3fHMEkP757J5UTs+jg+RFh9Mze3QG7PzZhYxfdww9IiSku9No+n4+/s6Ok74lUvDd7KjkcZoNArCQL2vBVvMEHrWWMuf//AFy6QDBef+3avpSQAAvvpk/Ia9pQKAKnT7ztecnKc4wbFrOi0wlGewylEHWZX6qlo94faKlAQwc8XV3pXRU8xVZe/ZtSNFGh9OFGrrKrX7o68QAldXS0x7MBdJK2TcucMZx2Hh3AB1d+1vpETtrVHKSOXsRers1JK6ejUAiCQSigQAWiaGGl5o0Jboa7VZO2JOE3wDYxA5cwB4K31Y0WpvmX4xGtvu3q2/e/duW1sbANC0nVIpl8mkPc9uaWnp7u4ybtxzFRU3v/vuukhkY29vT9NjHkxgY9OfXWpJmd+K1/I+OHK0fJ3T/c8MxeerxFOClRQt8Xfijl2ufMXFvYdCSCrmbvpYU5KXm3MuMSrTOXzr5inmp6NkXr5qhT1I5wc65edUMbwcAEgZTZEAAk2RwAoN7I0KnU6fvjMmEwSWMThwwpM8lgmC7tS2kFMAADL/sKgQT2DSKwWXZQv9HGTgsHDeiYLTxTp+Zs/L4Gq6q+/mJy85nJiWp+VFBICG4wGAJGg3fw9nGQUzgnyP7SnWN95vvuG7buaTbOVIVV7+w/jxMju7Mdevf08QpKvrRFtbMUkSAGBjY9NxytLSMgALLy91n5ZvNBqbmgQrq1GjRllaWACOBYKeVUaj0WiE1ta2AX2LJiZmCD1raInt+JZ/32ns1cQyGclq9Rw4Obyy9V+vGHLjY7MAAEDi5qXMOJdbALxyqYxWuMsMuQWXWXBZoXhc3kM5aXyk6ccqWM4DKPmc8K0R6s6zkMp5MYkuhQVnT+zZdiZw02bV46IkCei27YtyX/hO7GtOD77ndY9bGhpIX3+d/cTzWluPHjfuOTu7MWPHSiiq+6bULsaNGzt2LK3T1dTW1nZ6v9mVK32LITCwxwSEIB2mr5h/PiH95P3cgLmafaWm+MJ7S9JM/5bnaoPdu5T5R5H26tnL1NN8j8RuyblWqzbfHvhgYrLHhl+JekXs1g5dK7knGA2FUL68JSFcWpS0LR3slBIAU4sUYfovQRK9WAYP3dV3M9NqzyV/YZgZ/bedrlz2toSizt+TRJdN7ryZI1VzM3/+fL6Pz+SxY+nc3HxHR6Wjo/LatVILC5g82aOqqrq6umbGDP9ffmGLiopnzZoKAL/88outrdjOboxcPn7UqFEA4OjoYHbhLi6TnjiwlpZWfOc7Qr8eJmYIPWsMLGewtXW3gfJetJhpAr3I+P1xe4RVC/3cOjYt0C4+kvTUC6TmTamYFKncqH0ZeeSUt5wf2zmKN1SW1JGKeRKZ3FfWcODk5fmusx1Ivp4VSMn94Tg4A0c6TX1lhRJqPiioMDgTINTUsjxATaXOcL/Ji2e1epZ3kjBXz5QIqlCFGKq6rEykUtPVOacLZ4RNlZE8Z+ApWkwSBPB4S32wTJjQt3E4ZDLpqFFWVlZWBEFYWj75vXZLS8sJE5QTJiibmpr+/W+O55t5XgCA1lYz45T+KqRiTsis3G2Hy8FlBkBtSZ5OEZywdYU7BQBMbvy29PNV9eruB8/gDCyIJBQJXE1ZSR1J24kJkoCGWsYAbpROq+d5JwAA4HlDhY6dbU9W5edUkaogGQmVnZdFSFxdiCOnT5R4r1LTwBlYoCUEQRHwJC1npCzgjaW5MYcPFHhGuXo4E3nZBVUBr8h1BecqwWm+koQSgmfrWA4otqrs/kCMJAU82yAAgKT7+t4Fz1bVgsheJgJDRTnbXld5wcDq6ng1xZWcLeKkixQ2BAMAAvCkmc0cqQ3jJEm4uDjb2ooBYNIklalx2MGh/Xk8qfQ5a2sSAGxtbV1dJxIE0dLCT536oulbieQxh2+RyKbnCRBCAw0TM4SeNc1MbdItzadvv/RhS8udW7ffOvJjefeXpmKfsPc3Eckp+6NP7QHCTqZ0CniZJgGAlLpPoflyQqOkAUiJSk5yVUofxwcndk57YtPr7eMIKJe8/3tB0OWYekOJVNOXRYb7SQACwsMq96Rven0PTzlqAldEveFtulCr113el5KVrzVQKr9l4dNUyrpFrp+mRq0+rPLSSOj2izmSpIS8v6zfU8zSmlfC3vWnzXWgJB0C10Qw+5OjQj/g7VT+QZHrFrvT3vP9z+2OCj2sXpOwBR8ze9o0mt/0afrGxifqfNe90aNHjx49+sE/bWz6VgJ6E4/Ybd6qwHNbTgIINYU5NRL/FffHopBpprvwGefKWU/fblbLM1fTU7IultcYBCBUs6LC/SQSIXih446kPy5Pc/FRU+L29imSJAwn4iPibgj2/sGRId5iMPNgldgtODLEkJy0fgFDyFz9lq4LC1LJAxZ65O59e8HBae8nvjO1L4+ZkbJpYUvytmZkFm5Zu2pd0L6UD5fvbaBUfsvWLfOlSN4/aGpB6sZVx5VqbyVNAgkAlCowyDlhV+hien7c9rXd1HezO3C+7MMdketVbi7299vjSILirqRuSCutJSbNfWPtXKWYNziSB1O3pskTwrtu5gjNzCwsLBwdlabf5fL2FsSxY/8fe3cf18SdLY7/8DCDMqlmei+DS2Ih1BAXw4JQC6JQL9WrsCLWYqEohS3KVlEsa9deWlYWl8rVYlW2PqxIF/RXFhftlWJBfyKrqFRLQV2QC9ISrAkrk9tOpAzKDML3D9TyEKi0YiCe94s/YDIPZ4Y5yZx8PvOZewNdUpRtT1MzQVgP9ysSAPjf/71mYQFTp7o8omARQsNm0d7eYeoYEHqiPcILR8kfyoZYsO1PP3KTCEI/30gUQg+cOXOuu9tizpxZoyQehB6zET2fDYZbADDYWDsIoccAW8wQQgghhJ50WJIhZHI4XD5C5uP15yYZnT7O2jJ+1uN5Ai9CCKExSatt1mp1po4CoScatpghZD4yQlwyQvD2AIQQQj8BPo4MIRPDwgwhhBBC6Eknl2PHCoRMDLsyIoQQQgg96QyGWz3jfyCETAVbzBAaYywtoavL1EEgZMzPeRDZKIH5hUatkc6vmzdbAIcAQciksDBDaIwhCEIUO7u68GYANLpYWloQBGHqKH4uzC80Oj2G/MInmCFkcliYITTGWFpa2NiM+ctfhEYnzC/0xDIYbllYwMSJ2GKGkMngPWYIIYQQQk+6pqZvmpq+MXUUCD3RsMUMIYQQQuhJN23aVFOHgNCTDgszhBBCCKEnXVtbm5WVlRncKYrQ2IWFGUIIIYTQk665+SZBEBMmTDB1IAg9ubAwQwghhBB60k2b9ktTh4DQkw4LM4TGmK6uLkG4292Nw3mj0cXKysLa2nqsP8oM8wuNTo8hv3i+naJsR279CKEfhaMyIjTGiCJeNaLR6O7d7o4O0dRR/FyYX2h0Gun8un379sWLX3777XcjtwmE0I/CFjOExhh89C1CIwfzCz2Zxo8f7+39HLaYIWRa2GKGEEIIIfREu337tq3teFNHgdCTDgszhBBCCKEnV3d39+efV9y8yZo6EISedNiVESGEEELoyWVhYTFz5oxx48aZOhCEnnRYmCFkPj4s1205fZ273dlvOj3e+t0Apzd8HEwSFUIIoVGrtbX17t27NE2bOhCEEHZlRMhctAtdKSWagVUZAHC3OzeebOSFu8aXFHRFScsXxmZW8g+msJWl5xvv/9mmOV9SxQoPFQVbkrJm/ZGmh5t5OLirJWcbuGEu1FafvTZu5+fDXaxnWWN7LXANJQfef2NpWFjK6ZafslY0lvENRRkpb0QvX7h4+fK4lO3HG9q4ii2xsalnDQAAQlP+huVhSSdbBAAQbhxPWZ6QW91wMjE2pUD7w3kkaE+uXxq2cHHYwsXLlye8n/+jmcVdzU9LWL40bOGyNevTi6qNn8w/I++MZhbfVJTx7uvLwhYuS9iYVdHSe718Q3ZcT/xhC5clpB65Opz0Em5cPP25dsgw+YZ9D9Z/7yd2exXfby5jqT1ibz7m7uZNtrn5pqmjQAgBYGGGkNmwJS1vi12DvdoudFGkldGXBLb2AueoIhrK6g33JvENxUfO1HE9VziC9mxRwUW9aS932jTlBYUV3OMLwuheG6o/yT2lk7qp7YjHFggaJQRdUfr7mfXSwPjUgx9/mBYf4sPYAq2cqSAbLzW1AYBBV8+KPFvbyANAu7ZGL3FxlxkbTIGk3d/cd/DY3z9ImG4oOFjS2L/o6LPVusKcAm5GwvaP8valbgh/Tk494t0ymlltbBPvsjhp+1+yEl8Qz+YevtY3RNLOb/1fjh09mJcaQpTuz75ogIck6KsLC8o07UPNQyljdx06dvRQ1hvujMurGX8/dOzovgTPR73bCAAAWFZ/+/ZtF5cp+GhphEYJ7MqI0BNO0F4q51RB0dKS7HMNnOcMSnt6a9KeCwa4sCYyUx255pmyD4uui7Ap/IRd4MbkQMNn2UfKq3Wivdo34o0ofznJ1RTtyzp6QXOLdAlMSg4CELhLBVsvNlRreMY7ImHVPEabnZh2RaKQgkF/Q3CYGeAk1DQ0snpSFfrmG3Mmk3zd8ZzMwlpOBFodEhczj9FmJ2Zcd1bZstrmFl7q89qqEDicnH5GK0L8KwXyJVsyXnMiAQCAq+/ZNDj7LY2LdK3blnZ2dmLKAhnJnt+YVOSWmBwIIPJNxRnv7qq5LjLuEfErQ1S2jYVpqWelbgyv1TXzhHtE/L292HWgqNEAJOMe8UYofSJtY+GDvd4Sd++6UOoVk+wFQuORlMoaU/7P0OMn6CpOaajAt1aEqCkAoFUekwEAQOXtAMdrWcED2FqO8fUR2XqWn0nqqnSEKlImgeZB1kcCSVEUSVJSkgDgdWUH9ude0gtg6zw/6s2Xp0nuzSaCKAIpZRhKQoKEAgBoq8p8KwtWbl3pRQl1WUlbuaXb3nIEELhL+cmltXUsMTUganXMLFrTP4+ivRmy74ai5WdSjWWWRDFnqQIAACgnhipp440+PouUKFy9mMMF9QbBm9Aez9n1SXk9R8g9562MCfWS6os29c3Ht6LJA5sza9qh5rdn9z634cPfu+l6J12Uv5wc9OBzlwuy8osvfcURjj7BUbEvTyOMpHavBQY9nqiP2tp6R0e5QuFk4jgQQvdhYYaQ+bFUeThv9vu3qdaddfXf/O7/11830r3xPqG58iLvHDxNxejJ9PJqboa/fM6GVDF5U7nfxsQgOQnwH9I7SZnEivRV0yQAbey8ldOX2tNQvydl34kGzyVi9p6jrDoiLdHDHoCghBYAgbB7MfLVOPLK9rSCgnrflRQAaecX81aQvP3z9KTMa74piRGTDedTkwpOaWaEQkHmCTEk8QN/+np22u7cKvc3GQCRUAWvTlAQjYUpqYVXAjeuTovn1xfKklIjnB9cvAns53lFrHr13mQn4ASKEuuM7yFh7xcdt4qoztuZubdIlRpKgiCAY+CqxVMJtiRtU37pdZ9gPjfrNB2ZulcN1Vmbswuvp61KTuJ/2GuEBK6ZIx3cZP2bbmgXD/u8ijqWh/pmUhXkwx+9oDG0kQ2NglOIQgrGWsME7sqO2LAdAAB2LyY+50wKN07sz2V9N2yfx7Ant6YfLvNWBt2rUijn4IiZKTtXxZ5/8eWloQEek4doOiKUoYlRDFu+O+NvOWqlkTya/gKU9tnQPxMTjWRWr0hvXDxZLSpXukiNHxP2eiUL8gVSob5ge16Dc0zqBoWhLGv3rgOO2+KdBoTnGJL4Dpe0s2VJ6tt+UuAu7+qTdLWeqzwGyzWScvIJXzc3nqHYk6lpBZV+Sh+AAak994ewSwc7nggAoKbmf8ePH/fsswpvby8bGxtTh4MQ+gEWZgiZGxuHX2x+zjIj++KZ73985jZN+QXeKdRFKqE8fKiSshrW348ZYn6RrcjZc/iCDigCKD+RZ2sbReXSl+dMvbcQC0Daq329VAzJO8kpghNFAACCoikSQJRQBClKaRKAoCgCBFHkNA1arS53W1I+iBxrmMyLYs/8UgoAKEoKwiA9vUhqspzQluYfphcHzna3B73RuQhK5jldaU8DHfxCcVqtlgdnIElKSlMAQNE0ASJwbG2dVs9nba4jQeSa21TGGwjQE48EAOCv7krYVMwCSH3f3b5uJuPqKT1ZrWkmNQLj56jipMXXmrVQy8t9VRQYLcxI2v3N1LfmMtBSdXhH1p4CZhVdo2vRFGxNOkkI7azB1rnXUiQzI277hy9eLD9VmvPWkYKI5LdeHCQ2Wu3hJmdI+ZxF6pKcGj0fMDCP2jWDb2ggrubw1qzrzjGJXv1GhRD0Z7f99uw2ALB1W7Luzem23IkGXj4v1NvJnoS5wR6nsmq1vNPQh7JteEnHawp37yv9iicJAEcvAcBYat83vN00e/X1X02axEycOOHq1f8lCNLF5dmnnpKQJAEA48fjg8sQGl2wMEPI3EjppyZ1fn/z9kPNrD1XUa9pfu83Z3r+pEprW7yZQQfn4hvys0ogODUvwIHNS9n60LeWDI1WR6Qkz7G//2db/UMuR7nFbMnwrig7fjT1eMXK5JCfFQTjsTJ13cwf9vzJvpT7GT77rGRY81taWlhbE9bWVtbWBEWNnzDhqQkTJjz11LDbKbu7u9va+NbW1lu3vm9vv93ZKXZ23u3sFLu6uoe1noAAf6PTSdqBFiq0BgEU0+L2HVpZn5uYoQcAIO3cVETZxfPASt1kUloqI0sryngDo1bSQzXSkABgr5qhIMurtbf9gZoavC7lZSfjS5DSqX5BU72fU6QlFZ9t9lf/2D6QBAy66f4b4gZ5clVb/dGt6SclS955M0DWf2Wknd/61AR1U+am/S2MHU1CCwDAvfsuCXjoGzD7J92gWs7lZmuUCbuS3YiKrUkPc4INeTzHso4O4ezZC56ev3r6aWlZ2QVHR7mjo/zKlVoLC/jVr1ybmm7cuNHs5+f93XdcVVX1Cy/MBIDvvvvuqackEydOcHCYZGVlBQCOjpNNvR8IIeOwMEPI3Bg43vDUU1PHQ/1DtJiV1Yg+6/+c5McAQFt9buK2M5WsbxBJECA8+AabpEDg2kUAEFiWJ2hGKgH9Bd0toIBiXJ2J0wWF5+VLZshJEYZ9iz5BuyiJIyeLazyi1VLgDRxIjV/WkSSIAi9CrytOoY0TafWspQopm5RTxXaqCIHT6AWw47UNDwYzEHlWy/JAQ/3ZihbpNGdjEVKMqzPsLz7X5BbsJAGe4wma6rXXaDieeUY2rPktLCzFezq//Zb7179aAIAgrO3s7Ozt//1hhvDmOK6l5f9YVt/Z2QkANjbk+PHjKYoiCGuCILq7Bx0RZ1hI2YwXFQWZ6TvJ15b6T3fqdZZS8ulKcduZatm8EJqUUK4Mv/MU6xAabkcCDD1aTRvboOEnesr/TaGW3ig9WekXNZMhBd4gUNIHhanAsTzF0CQIbEO1DiTetkASIDa3cAJAc6PWcD/pBE6j4wQnmr18qkZURMooqBiwQduBGzKWWSBoTu7IKCFefmdDsHLQ7oW0R0S4a2JWbpl6nY+Lkio8fUHjO1nBV5XWCopQOU20DMxHgqAI4EUBACRGkm6wMkrgtHqBnMZISf7a9RYR3ADAWGo3koPuptl0SCZJQql07vnmYsoUhVQ6AQAmT773KBQ7u3+zsSEB4KmnnnJxeZYgiM5OYebM53texQHxERr9sDBDyNx0sC0Z1912r521ubPz5vVvVh/5V/3g95hV8coI9b1uiBKFr7/09NlL+rnzPQK9z+xKiDysXpG+cZ4iIMg5fWfkYmlg6juB3kTqpoRKhVIlJYACoD2iVwXtysqJL8wAxvfdLa8ON1qJKiQu3JCZsWYhSzAuM0JXRRltsKBd5gZK92xcViKPTN3W80W4YKj+ZH/O2doW0c4tIHSli6MkeM6pvemRy+zcpjtJ7hdgBEU25qWE1TSDfEbUGyHOFDQaWbtH9KqgfVmbI7NukTJX//AVK/1kvfZ6S5waB4V7WG5uwxve7fbtPsWLKHbyPM+y/3fzZktz878kEuqXv3R56qmnjC7b2tpaV3etra3d2tp60iR7hvl3iYSytu7zuTZ+/PBaTfrF8wNSFhT/jpiVmZ/2diYAxTjIXYLsSQAAicJDQZRUy13tKQDCQUVDGSjdmHvbFbjazDWRmQAAQLhEbVtFPLjHjGBcAyNXhygkJLMilt2fmRD5njBR4R0Ut2rx1Afl1rWiXXlfVmv0IgAze0WSn4yGOYtcduckvH5Y4e5GS+9thiQpsXzHmj3VnNRtQdSb3lLQGNmHyQEDNjQws0BoLC26oNNDVlJ4FgAANX1VRq827Qdo74iIsynZeRVu8SEJSwy7tv02hyPknvPiYmbQQHoNzEfSwSfYtWzv2oUHfN/dvm5g0g3yryKdA+Y5l+6Pjz05VeVA3q+JB6Q2AS4TGw+mb2dS3x64m+aSwRYWFo6O8p7fHRzu/U+efvreTYAUZUtRtgBAENbD/YoEITQaWLS3d5g6BoSeaI/swhFA8oeyIRZs+5PxPloIPUKP6nzu6upubm7+6qvGrq5uJ6dnnJ2dAODMmXPd3RZz5swCgK+/1ly/fsPS0mLKFGcHBwdLS4sRjQeh0QDPZ4TMG7aYIYQQGnUsLS3kchlN01ev1jY1fWNtbf3MM/IHrzY13bh+/YZEQqnVrra2OIABQgghc4APmEbIfLz+3CSj08dZW8bPwm4taOyhKNvp0z0oyvarrxr1+v/rmdjSom9s1EgklKenO1ZlCCGEzAZ2ZUTIxLBrCjInI3E+C4LwxRdVXV1dXV33RvIgCOL55z0J4scHAMT8QuYEz2eEzBu2mCGEEBrVSJJUKJ7p7Ozs7u7u7oauri6FwvFhqjKEEEJoDMHCDCGE0Gjn4PCLcePGAUB3d5et7XgHB+O9dhFCCKGxCwszhMYYS8xaNFoNNjTiz2dhYeHgMKm7uxug28HBYYS2AphfaBQbufxCCI0S+BGE0BhDEAR+PKNRyNLSYkS7F0qlEwEAwEIqNf5Ys0cC8wuNTiOdXwih0QCHy0dojLG0tLCxwY9n9MTpeXIuANja2o7cVjC/EEIImQq2mCGEEBoD7jcXdFtb41eKCCGEzBAWZgghhMYQ7GeIEELIPGFhhhBCCCGEEEImhoUZQgihsaLb1AEghBBCIwULM4QQQgghhBAyMbyFGiGEELqnq6tLEO52d2PTHBpdrKwsrK2t8VkOCJk3bDFDCCGE7hFFrMrQaHT3bndHh2jqKBBCIwsLM4QQQuieeTNS0AAAIABJREFUri6syhBCCJkGFmYIIYQQQgghZGJYmCGEEEIIIYSQiWFhhhBCCCGEEEImhoUZQgghhBBCCJkYDpePEDKFln+sDlyeC0sPF++Ya2/qYBD6Mfviwj7V9Z4w8cWN2xNUzUVZuZ9WNWgNIJUpvYIjVnobdr2dKUZuTfKTgtCUn5R0mIzK2DjPnhRuHE9LPKFMSo2YSvVaDXc+NSGjThX/58RZNAAAtGnOX+CU/p4MCQACW3mugfae5dx7kUG01WcnZtyKSF03k36E+w0Awo2L5VqZ70w52Wdiac6OvPJ6VpQqXP2XREX7yciBi3KXtyflUquSY9UPsQN99TkOD7aqPZ+99/Cp+maBdp0bvmJlwA8bFbQnExP214sAAATjHhKzIsKbMRKS8V388eMsaIsSE3Lqew+LSLhv2PWOP9N7LrYkZVOx+q20l51+2PTPOAgIoScNtpghhH6SO+y57A+3/8/VW4O93lKZ++6yX9nJpPLgPdV3HmtsCD1qsbsOHTt6KOsNd8bl1Yy/Hzp2dF+C2lCU/n5mvTQwPvXgxx+mxYf4MLZAK2cqyMZLTW0AYNDVsyLP1jbyANCurdFLXNzlfS/OW2q+1NJTaG15NdszQdCeLSq4qBd6/uIbio+cqeOEx7qr/Qj66sKCMk17n4lsRU7eFWbJOwc//svexKhAtfRhS6CH3mqf43B/Yovmlv381Rn7/pK2xLYyL/cC1+dlknZd/eHBY0c/yoixq8zaX6Z96OP2EMeZlAdtyz907Ohf3p1tJ5+/Me/ooWP5/aoyhBD6ubDFDCH0k9z6fM/7aSVTJvw6cNrEcf1fvPNNQUzg6s9YUwSG0GMh6CpOaajAt1aEqCkAoFUekwEAQOXtAMdrWcED2FqO8fUR2XqWn0nqqnSEKlIm6bMKtvqcTj4/wvNiTkkN6x9AVWelbCy8LsKm8BN2/7k6uDX3owsGuLAmMlO9Ylu8XeWB/OJLX3GEo09wVOzL02jgG0tzduWV17MgD1iXNB9EXncqa3NOTW0LqQyMWRXtLdUWpmwsJJ0Z4DkdR3v4u0DjtSaWBcWSlXELlCRbkbsnv0zXDpSDf+SKaE8oSUsrIFzlfLOW1YMiJCFGWb0tJbOmHWp+e3bvcxs+/L3/veY4UQCCZuxoigKKkgAACI0HklJ1IdsSZ9GCrmBTWuXsjZu8QRAN2sKda9NrteDg/9rqlQEObGFa6lmpG8Nrdc084R4RH+UvJ7maol0HihoNQDLuEW+E0ifSHhyHwI1b4jx7yllysl9Qz0GmFDIKmgTjj/WiJrt4yCG33iDOZfRlB/dnl9ayYOcW8OrqyFmT+fOpbxfI16dGq8i2qt3xB4k1q5VF7+15cJwzNvrypTmZhbWcCLQ6JC5m3hDNaG31JzMPFl2o1wPjGvjaighvABC4S/nJpbV1LDE1IGp1zKzJvebvu5tR/vJHXc8ihMY4bDFDyBzc+XKzn53MPuzAN3fgTnXmQrlMuuDD6jt3rv3P5mULvB3lv/zVgtf/eOqGkSVvXc1dG/qrZ2XSZ/2X/en4N3cAgD2X/V/LFng72snsp827N7GlfM/aZTOmOdtP81+49sCXVX9fFrj6MxY6yhOfnyzz+1NlvxaxcTZ2s8P/mJWXtUrdZ3rLl5mv/8cv7eUefrEfnDMWDkJjhcA1c6SDm6z/ZTvt4mFvaKhjeba+mVT5+ihAqzG0sQ2NgpOXQtpnDeyVMtbOx1Pp5m3Hnr1yQ6DcYpKTAhzk8zfmHf0w/j/nb0hd4ca4rv7w4P+kznOWOvmEr9v210OHUufxpQWVrNBWX7D9QIN8SWLWXz9MiXTtWTWlDnl3+wdJ3nxZ4ZctPS1AUvfoxORtW9f5cJfr6aANqVvT31BqCk/W8+yFrNx6RVTGvg9SllAX8krqeABBBGpGbGLyn1OjnDVFBRq7kMR3QhV2fuv/cuzjB1UZADMjItju801rXk/JLqlnf6RlipmXsPWDtHC76gM5ZVoBQBDAMXDVO9u2bAylruSXXhe4y7lZp+nw1L0fpq6UNeQXXlf0Og73q7LeDNUnKjjZDJXUyNYAgNNc1YKdQtp948T+fRdtQzf+OWtjCHUxZ3epbmCohMOc3seZ1hRknhBDEj/4aPs6N7Yot2qor5dIxj00Pjkr///b+xp14Uj5vSY6QhmauCUjMQgu/i3nYq/F++9m7dCHDSH0BMIWM4TMF3v6v5N2fQYzI6Km2bBsR2vHHYA+jVt3buS+tWz1UZtfx6e9eefT/874r0T1tI8DoaXhFkyeuUTd0VD66WcZyUyA5+tfpiXmXVUGvvI6c6elo/XOhGkvBniey6m6xcyMWDznuYDJ/dvM7H1X/cEX7lz9xqbXxJZ//PfaP37y1QS3gDlKm6unRv4AoCdHd3d3Wxvf2tp669b37e23OzvFzs67nZ3icB8YHRDgP5zZSQAA/uquhE3FLIDU993t62Yyrp7Sk9WaZlIjMH6OKk5afK1ZC7W83FfVp8QQWmoqWMbXTUrR6hlMYXkV+8Jk+RDb4jWFu/eVfsWTBICjlyBw1xp4+bzQgGn2JABAGwsEJfPxnjaZBlJhR9b3VAkkSUkpCkCgSIqkpFIJQBtFENAuGJorNfpGzf7ES4TI61sIX75nAUZKkQCilCKBE423SQFQU4Pf2Tv98oXSM8VpvzvsuS4t3t34ASKkKm9XZ4YCvyCvwj3VuttTgSQpKU0BAEXTBIjAsbV1Wj2ftbmOBJFrblPxg2215zg0Fu7cVSVdmuw7uW+Dk8DV7l4TuRsACMfA+HVz5Z0XDupp73VzVQwJvqHeJ7fWNPHeQ60aQOCuNWi1utxtSfkgcqxhMi8K9/7NxojNxRn7i2sMQAFIJwoiAJC02sNNzpDyOYvUJTk1+rb7X061DdjNoUNBCD2BsDBDyOzZKGdFvh4wZeI4uNNw/I9/Oc52AADYTFmw+sXWI6V6ZnHWB39YYP/NxFNHV1ef/+rWS//x8nt7XgYAuPPN31r94qvYb1p7VjRuoueS+EUznhkHAM+Fz/9rTtW1KYve/MNrLh1Xc//0wTn2DgDAhGkR8StnGxvPo6Wy4LOvgFm8/XDmAvuWf6yuWZ77eA4AMmscx7W0/B/L6js7OwHAxoYcP348RVEEYU0QRHd31whtl6QdaKFCaxBAMS1u36GV9bmJGXoAANLOTUWUXTwPrNRNJqWlMrK0oow3MGol3WcgC31Vaa322pWYV/b0TOAvNgfK7QbbXMu53GyNMmFXshtRsTWp5BHsgAhAObwY03tQCnZY65XIPea+5uHjmf1Wxulq1n2oohIAgCSG6LjHeKzsM2zJYEWLcOP47tQ83n/9OyGK/i1pJO26emOiP1+UvK2CYaQk9IwEQgAAAAHEj8T3AK2OSEme8xBjEhkq83KqmFczPp5B1+e8lTdg90iif0nXfzcRQqgPLMwQMl/MgrR9f4SkD1KiXkixcY3480fJzOlPcvK/6Xl1ysRF7jZsK7BHY1RH7y3xTAcAsOd2/lfivtPVLEyc0HELJtwBG7fo7Vnsf6XsS5iXl8AEJH68b41b7w3duVGSd/CTnj47Nl+7hUfOth9w2xncucVqbwG4qCdPHMmdRk+O1tbWurprbW3t1tbWkybZM8y/SySUtXWfz7Xx44d3G8/t2w87YgQpm/GioiAzfSf52lL/6U69Lvsp+XSluO1MtWxeCE1KKFeG33mKdQgNt+tTl+kqygzK1R8mBslJAOFGYVri2cva4HkkBQLX3tNkRJIEAQIvAoDAafUCOY2Rkvy16y0iuAFJuyipIycPn1NGz3YkBm3aGtxEBy+mPft4RaDLnMmk0MaJpNGCgSAoAnix32HhOQ4omiKB11Q1tBFONAVAEQKn53iguKa6+90bBdHAafWCmuJrTlfxdotk42FA30CKcXWG/cXnmtyCnSTAczxBU9D7ODw4Zi1n92/9pN1//TvRnoP0YgSQqOZFe5dvP3jGa+NchdqOKz1ZHbzSC2pPXWqXz3eioJmA9hbWACpKq9EJghP0Oc4k7aIkjpwsrvGIVkuBN3DQ07hnjMCzLE+4MDQlsrrmNtGxZyqn0XGCE81ePlUjKiJlEmgCEEUAiZHdxHvMEEJ94D1mCJmRO9DvXi/7WSs/+seFL/ateM6mNjfj4Dfq//6nXmfo+fk8ZaZMPtEGbLxWZOXlHzuaf+xo/se/n2nz5f7E1BPXmEVp+3anhXve64o4ccrL7x3+oiY/LVDOlu7fU3oDbMDmQTdF+wUfXb2/Wm3hKreBVRkAjBs3ccI4gFtfsYMN5IjQw/v6a82XX15ub7/t4vLs7NkzXVyelUon9qvKRhYpC4p/J1qhz097O/KVsJhtFaBw7elVKFF4KIh2kLvaUwCUg4oGgVK69R34vfFsBSfzvT+RtJ/uO9lQXqYBRUCQs2Zn5OI1u2p4kHoEepMFCZFhSWdIv3nO2pz42ISthTqSAACQqELiwpXaAymRr0TGpFfoh12aMT4xUf58wVvLwl6KTtpa2GC8lYp08Al25bLWLoze+fmDURD55rKs9PhlYQsXv554AvxjlrpRpNw7aCYUrY+OXZ91BaRkT2MRSVBwKSd+Wdjre5rcwqPmGh3ugvaIXhVElW6OXBwWFpeeW6UXgOpzHO4dM/2FwjMatvbwpt8uXBy2cHHY+sImY2U05bYkyosvyi7V289fEatu3rUmbOGa/Vr1qysDZCTtGhLsWJ/xu7DY9AIdJek5lD8c55OcIiQuXFadsWbh4t+8npL7OTt4h0PSzme+B1+YEhO7ObcGJD0NgiRJieU71ixfknCY946K9pYCZadiDMXpO4t41367+VD/JYTQk8Sivb3D1DEg9EQb7jf6Rt1pOBD6H4nn4NkXA6d1VJ44d6MDvBLP7ptWknGCnTjB5tZXn+Wd+Mbrj2cPrXTpXTTd+So3NnR1MTy3OGT2MzYdd1ptnluxavLfQwN3XfNasT1KXpG366/lHS9mFP4RDn5UCRMnAvtlQW65TURe4QfK08v+I+FUx7O/Dl/w4kuREbMG3GYGAHeubl/8nyk1nmnF+avcxt1pOBC6IPFcq/zF8AUucPVI3ufsZHyO2ZPu4VuoAKC09AyARUCAf1PTjcZGjURCqdWutrbjh1hk5FrMEHr88HxGyLxhixlC5mDc5AWrwp+Fjq+/rNErf5sYMQVsAABsbjUc35Oxa0fOiQZm/h//8IpLv+Jp3JSIP3+8O2oKW7p/R8auPTmVLNhMVEe+Gf5sR+X+1amf3mKm9DynxwbYc3n7d2Tszy3veC425b9mMeOembMq3NWm4+vPcvZ/8mXrQwWpfOWDPycu8YIv/6eg4pbcbfKPL4LQQC0t+p6qzNPTfeiqDCGEEBpDsMUMIRN7JC1mCI1RP6HFzNLSkiCI55/3JIgfH88BWxiQOcHzGSHzhi1mCCGExpKuri6FwvFhqjKEEEJoDMHCDCGE0FhiazvewWGSqaNACCGEHjEszBBCCI0lDg4Opg4BIYQQevSwMEMIITSWSKVPjdzKLfFTEY1WlpYWpg4BITSy8CMIIYTQWGJraztyKycIAi9/0ShkaWmB91UiZPYe47M4EUIIoZ9tRJ8ibWlpYWODl78IIYRMAFvMEEIIIYQQQsjEsDBDCCGEEEIIIRPDwgwhhNDY0N0NAN2mjgIhhBAaEViYIYQQGhssLHBYDoQQQmYLCzOEEEJjRTcA1mYIIYTME47KiNAY09XVJQh3u7uxQxcaXaysLKytrUdurPnvv+dHaM29YX6h0Wmk8wshNBpgixlCY4wo4lUjGo3u3u3u6BBHbv0Gg6Hnl++/bxu5rWB+odFppPMLITQaYGGG0BjT1YVXjehJxHH3CrPvvuNGbiuYXwghhEwFCzOEEEKjnSCI3377HQB0d/9QoSGEEELmBAszhBBCo9316990d3f3jMv43Xfc7du3TR0RQggh9Ijh4B8ImZtPa/9Wcu3Ty81f6PmbdtQkD4fn57osWuT6qqnjQugnam1t02qbbW3H3759u6sLLCzg66+b1OpfmjouhBBC6FGyaG/vMHUMCD3Rxo8nhzX/7dvCYC/pWr/ZeDyu/HrpwJd8HQM2Ldglm/DMsONDaDge4fncQxTFixerOjsFT8/plZVV3d0Wdnb/ptf/n5vbNDu7f3v88SBkQng+I2TesCsjQubj98d+Y7QqA4Dy66Ubjr0+cHplxpqF0e+XsT0f3kJd1oa1e67eG/NO0BUlLV8Ym1nJAwBfmRG7cHFY7583shoe+jNfaCxMeT3ldMuw9wkAhBsXT3+u7bcpoaUqNzUh9qXFy5dv2FlU/zgGUkePX0fHncrKy4LQMXWqasIESc9EpdKZIKyvXv3ftrbH93/fFxfW9/yP3V7FA99QlJHyRvTyhYuXL49L2X68oY2r2BIbm3rWAAAgNOVvWB6WdLJFAADhxvGU5Qm5df1C5s6nRoctTzv/YDyTNs35kqp7CQkCW1l6vvHh9rKtPntt3M7PH/3AKMYT8EZp5vrY3yxcvHx5wuZ9Z3XG3wq4y9vjNuyr+Sn/pj7H4YfNstXHMxNjly+M7r+ngvbk+qX3/jsvxW7Ovjhg2SE8xHEWtEUP1n/vZ+nmMrbfXGxJypr1R5r6bPpnHASE0JMGCzOEzMQnNQcv6S4MMUOV7vNPag4aecHwZXZe7cDLOYGtvcA5qoiGsnoDAOUVv+/Y0UOfbH9Vxbi/ue/QsaOH9sYoh/fl7U8j6KsLC8o07X0nGrQ6qX9M8kd/3RIrb8o9WH4Dvxc2O62t33/xxaX29tsODr+YNIl5MH3cuHFubtO6urouXfqnwXDr8QQTu+vQsaOHst5wZ1xezfj7oWNH9yWoDUXp72fWSwPjUw9+/GFafIgPYwu0cqaCbLzU1AYABl09K/JsbSMPAO3aGr3ExV1O9VltS82XWnoKrS2vvneJL2jPFhVc1N87nfmG4iNn6jiTntxGE5CtyMm7wix55+DHf9mbGBWolj7qt4K+x+G+louHs8+1y9VKo9sjadfVHx48dvSjjBi7yqz9Zf2LycE9xHEm5UHb8g8dO/qXd2fbyedvzDt66Fj+O/7MEEsghNCw4T1mCJmJ4rrDPb9MkP0+JyREf7MJxo3TXv3TjitXWnvNs0Qd2WcxgpBP96VqcgvqldEqotcLgvZSOacKipaWZJ9r4Dxn0ENtnG8szc3MK68T7LxeXvnmbHbH2wXy9anRKrKtanf8QSIhNYoCQdCdyUw6XFlvoNVBcfGhXrShJC2tgHCV881aVg+KkIRV85wpvu54TmZhLScCrQ6Ji1RWb0vJrGmHmt+e3fvchg9/798TB8l4BQf1xKlQSEGL30abj+7ubr3+23/961/ffstZWVlOmfLsM8/I+s0jlU709HSvrq6tqroyZcqzcrnD43/wrqCrOKWhAt9aEaKmAIBWeUwGAACVtwMcr2UFD2BrOcbXR2TrWX4mqavSEapImaTPKtjqczr5/AjPizklNax/AFWdlbKx8LoIm8JP2P3n6uDW3I8uGODCmshM9Ypt8XaVB/KLL33FEY4+wVGxL0+jgW8szdmVV17PgjxgXdJ8EHndqazNOTW1LaQyMGZVtLdUW5iysZB0ZoDndBzt4e8CjdeaWBYUS1bGLVCSbEXunvwyXTtQDv6RK6I9oX9KxgySgCAKQNCMHU1RQFESAACh8UBSqi5kW+IsWtAVbEqrnL1xkzcIokFbuHNteq0WHPxfW70ywIEtTEs9K3VjeK2umSfcI+Kj/OUkV1O060BRowFIxj3ijVD6RNqD4xC4cUuc571y1t5v9TY/aKvJrq4foiCnJrt4yCG33iDOZfRlB/dnl9ayYOcW8OrqyFmT+fOpfd+d1qxWFr2358Fxztjoy5f2eguKmedMDbqltvqTmQeLLtTrgXENfG1FhDcACNyl/OTS2jqWmBoQtTpm1uRe8/fdzSh/+eP4agshNIZgYYaQmahj//ng91ZDwY6C92utn3875A+hN2M+ark1cJ4HCPkL0er87QfP+Ce+8MNUobnyIu8cPE3F6Mn08mpuhv8QlRlXm3+klolJfVdNcDxFQv/+PT1EQuoZvmIl1VywJzMzz1W1ygEEEaQzYuM9aL5ie1JuQb3vSqog84QYkviBP309O213bk1iUuI7XNLOliWpb/tJjW26obhUZz87yh6vcMamB2Pfd3d3t7Z+f+tWK8cZurq6rKysZDIHJye5jc04owtKpROff97zn/+s/eqrr5uartvbM7/4BfPUU09ZWDymCk3gmjnSwU3W/7KddvGwz6uoY3mobyZVQT780QsaQxvZ0Cg4hSj6nMMCe6WMtfP3VKrA7tOzV27MnucWk5zEJ2USK9JXTZMACK6WyZvK/TYmBslJEAxE+Lq58QzFnkxNK6j0U/pwBdsPNDiHJ27wlgEQFHsVACh1yLsxK9hP0rcXfhk4fS4AgNQ9OnGxM1zdt2FnPf3Ou6lOUJX5VtbJer+JfFZuvWJFRrKSO7vnvbwSH9Xc/impSU0wmoDMjIjg8tRNayqnz40ID/JXMUPlHzMvIWaFUJWz9UBOmcv6qSAI4Bi4avFUgi1J25Rfet0nmM/NOk1Hpu5VQ3XW5uzC62mr+hyH4eI0V7VgFyjtvnFi/76LthEb/+wFVzK35eyWOaV495+ZcJizIVV8cJzb6nN39H4LqnJP8hu0XYxk3EPjZ6xkpOLFnYlHyv2n+wIAEMrQxCiGLd+d8bcctTJJ/SCsy313s9Z/lcfwdw4hZM6wMEPIfHW2fN05yUc6DlqG7O5FUIoFET4X9+dedA25P61NU36Bdwp1kUooDx+qpKyG9R/86gRIO2fKcDjvsHxJ0FxvhjTefEVSjLuXWmYPdoEBThdKm1jBAQBIRkqRAKKUIoET27lrDVqtLndbUj6IHGuYzItD9S4SdCV795yCOUkLnLAuGyU++6zk5yxOkuTTT9NPPy39xS8mWVlZDT2zjY3Nc895sKxep/uXTtes0zVbWVlOnDhxwoQfyjON5vqwAggI8B9WvAAA/NVdCZuKWQCp77vb181kXD2lJ6s1zaRGYPwcVZy0+FqzFmp5ua+qTxEntNRUsIyvm5Si1TOYwvIq9oXJ8iG2xWsKd+8r/YonCQBHL0HgrjXw8nmhAdN6vpVoY4GgZD7e0ybTQCrsyPqe1CFJSkpRAAJFUiQllUoA2iiCgHbB0Fyp0Tdq9ideIkRe30L49iRu35QUBwmGmhr8zt7ply+UnilO+91hz3Vp8e7GDxAhVXm7OjMU+AV5Fe6p1t2eCiRJSWkKACiaJkAEjq2t0+r5rM11JIhcc5uKH2yrQxO42t1rIncDAOEYGL9urrzzwkE97b1uroohwTfU++TWmiZ+QGHWfx3G3oIGfXsRm4sz9hfXGIACkE4URAAgabWHm5wh5XMWqUtyavRt9wuztgG7+ZP2EiFkzrAwQ8hMTGV+dU7T55rYRuLtIzXUGu70nsfosiQ1bWm468as/M8VokgBAK89V1GvaX7vN2d6ZqBKa1u8mUFbpSinpanb3S6Wnzqxc/250JQYYpD57m2NHLKKotURKclz7B/8zTcYn09gy/amZ2qUcamhboP3NUKP2cBuh0MjCNLa2sramrC2trK1HT9+/PhhLW5hYWFvz9jbM21t/HffGVpbW2/d+v677364ZXK48Tw8knaghQqtQQDFtLh9h1bW5yZm6AEASDs3FVF28TywUjeZlJbKyNKKMt7AqJV07zNf0FeV1mqvXYl5ZU/PBP5ic6DcbrDNtZzLzdYoE3YluxEVW5N+VvV7jwhAObwYkxyrfpA/7LDWK5F7zH3Nw8cz+62M09Ws+1BFJQAASQyR+IzHytR1M39olv8pRQtJu67emOjPFyVvq2AYKQkiAADR83ZEwNBvS730fwsalKEyL6eKeTXj4xl0fc5beQN2jyT6l3T9dxMhhPrAwgwhMxHmvuJBYTZBGvLmr91BMk5f+e7hXs1lYe4rBluc9gxZWrpp+zk9PR+AbyqrEX3W/7mnD09bfW7itjOVrG/QYHdECDzH2071C3KWC43pV7TtvgS0t7AGUFFajU4QnHpmEgwNWm6OPdl0obSJVAQxJDT2XxFBuyiJIyeLazyi1VLgDRxIaYKgCBjQcmaoPLgzW+v6ZmrUzCF7UaHHzM1teI8Xe1TDeUsklERCAcgAoKurSxQ7Ozs7797ttLf/9xGKh5TNeFFRkJm+k3xtqf90p16X/ZR8ulLcdqZaNi+EJiWUK8PvPMU6hIbb9anLdBVlBuXqDxOD5CSAcKMwLfHsZW3wPJICgWvvaTIiSYIAgRcBQOC0eoGcxkhJ/tr1FhHcgKRdlNSRk4fPKaNnOxKDNm0NbqKDF9Oefbwi0GXOZFJo40TSaMFgPAF5jgOKpkjgNVUNbYQTTQFQhMDpOR4orqnuwbiSooHT6gU1xdecruLtFsnGD+zpTDGuzrC/+FyTW7CTBHiOJ2gKeh+HYZGo5kV7l28/eMZr41yF2o4rPVkdvNILak9dapfPd6KgeeC7U6/jTBp5Cxrsex+BZ1mecGFoSmR1zW2iY89UTqPjBCeavXyqRlREyiTQBCCKABIju4nvXQihPnBURoTMxFxl8GzFXABo1b3/0u7ZsZ8uj80NfbfXyB8BU349Vxk8+AoYn/B7TU98fXkVr/RX3+u7KFH4+kt1Zy/1HyHtB3xTyd6k5UvDwtKuOL8c4ubkGhLsWJ/xu7DY9AIdJSF7LllJkjAUp8W+tCylmAqKC/cweuuIRBUSFy6rzlizcPFvXk/J/ZzlgXTwCXblstb2GSCbvVpw/Cv2Wsl7sZELF4ctXJywD0fMR/dZWlra2JAUZTthwoQR3AwpC4p/J1qhz097O/KVsJhtFaBw7WlVlig8FEQ7yF3tKQDKQUWDQCnd+nyDIDSereBkvvcnkvbTfScbyss0oAgIctbsjFzojFEJAAAgAElEQVS8ZlcND1KPQG+yICEyLOkM6TfPWZsTH5uwtVDXk1ISVUhcuFJ7ICXylciY9Ar9sIsYxicmyp8veGtZ2EvRSVsLGwbpg2wsAfnmsqz0+GVhCxe/nngC/GOWulGk3DtoJhStj45dn3UFpGRPYxFJUHApJ35Z2Ot7mtzCo+Ya/XKH9oheFUSVbo5cHBYWl55bpReA6nMchodyWxLlxRdll+rt56+IVTfvWhO2cM1+rfrVlQEykjb27vTDcT7JKQa8BQ2GtPOZ78EXpsTEbs6tAUlPgyBJUmL5jjXLlyQc5r2jor2lQNmpGENx+s4i3rXfbg5zvxBC5g8fMI2QiT3CB4Y2flf/UraPcNfIDLYE9VnMpUlPjVS3LoR6jOgDcP/xj7LubouAAL9REg9CjxmezwiZN+zKiJD5cH5adeV33Ke1fyu59unl5i/0/E07apKHw/NzXRYtcn3V1NEhhBBCCKFBYWGGkLlZ5PoqlmEIIYQQQmML3mOGEEIIIYQQQiaGhRlCCCGEEEIImRgWZgghhBBCCCFkYliYITTGWGLWotHK0tLC1CH8XJhfaNQyg/xCCA0NP4IQGmMIgsCPZzQKWVpaEATx4/ONbphfaHQyj/xCCA0NR2VEaIyxtLSwscGPZ4RGBOYXQgghU8EWM4QQQgghhBAyMSzMEEIIjRkW2M0QIYSQmcKujAghhMaG7m5TR4AQQgiNGGwxQwghNFZ0Y4sZQgghc4WFGUIIIYQQQgiZGHZlRGiM6erqEoS73dipC40yVlYW1tbWIzfW/Pff8wAAMLJNZphfaHQa6fxCCI0G2GKG0BgjinjViEaju3e7OzrEkVu/wWCAkR/8A/MLjU4jnV8IodEACzOExpiuLrxqRE8ijjMAwMi3mGF+IYQQMg0szBBCCI12giB+++13Fjj0B0IIIfOFhRlCCKHR7vr1b7q7u7EwQwghZMZw8A+EzM2ntX8rufbp5eYv9PxNO2qSh8Pzc10WLXJ91dRxIfQTtba2abXNtrbjOzo68P4vhBBC5gpbzBAyH7rWb2L+Hvz2ZytONnyq528CgJ6/ebLh07c/WxHz92Bd6zemDhChYRNF8Z//vGphAa6uvzR1LCOOq8rdGPebl6I3F2gEU8cyGL6ucOfaZcvDNuTW8aaOBSGEzAsWZgiZj98f+0359VKjL5VfL91w7PWB0ysz1ixcHLZwcdjCxbHrM042Gr/SEhoLU15POd3Sexp3eXvchn01PIChLH3D+gMNbT89cGPrf9hF2crS8wPCNlQX7lwbvXzh0ti1aUeruZ8eGTKtjo47lZWXBaFj6lTVhAkSU4fTC3e15GwDB/BQZ69gqDyw+fVlYQuXrknMqmgRAEBoPJBwP/XCwtLOcwAgsJ8XnubU6z7a986LQu7auJ2fD+/UHTpP+2jTVOSnbwhbvHztkab+JSDfsC8hYctFA4DQUpWbmhD70uLlyzfsLKrnAQC42oLCBvkbWw5ujZhK8TeqirZviF24eE2vTQg3SnevjQ5buDjspXvFm3DjbHZi7PKFi3/zRkpPPrIlKWvW99v0IKEihNCTAwszhMzEJzUHL+kuDDFDle7zT2oODphMyOdvzDt66OCWCKY+d/uRn1Bf2aoCgkK87Uxz1cw3FB85U8f1vbbkdDfAPTr1w4PbV7uxRfsKB1x6orGgtfX7L7641N5+28HhF5MmMaYOp482TXlBYQX3cCdWy8XMXecgJPHPWakh1MXMXaU6AUSeJ1RLtnxy9NCxo4cOJc6iAQBEUSRphQNNjmjsAHxD8YGj1aTSTWY71KYEg1Yn9Y9J/uivW2LlTbkHy28IAKLAw0RnuR0JIGjLc/Iug2KaQko8WIi7uP+9PL3Xqi15fz90KDlIToGgLdmddUUanpz14VsvikXbsyrwqxKEEDIK7zFDyEwU1x3u+WWC7Pc5ISH6m00wbpz26p92XLnS2mueJepIo4vTKt8Q76KtGh3PsTveLpCvT41WkW1Vu+MPEgmpURQIgu5MZtLhynoDrQ6Kiw/1+mHR9vrSw/mMzEclBfZyblZO8cVmXuoalZy4VNFz1cc3luZm5pXXCXZeL698c/ZDrr92e1IOr1ICq9Oyonx+VNzL02jg647nZBbWciLQ6pDYQCL/vT0XDHBhTWSmekXGxnmTezZITwsK7onNaSpDVomiADDS17roUenu7tbrv/3Xv/717beclZXllCnPPvOMzNRBQVt9dvLeWypZU/FF21eif3Em+6xWhPhXCuRLUhPoAWdvn9KKrT53nfJe96KakcALEfNPp56r5QJmtIlA0j/UMyDoitJSMmtuQc3ahVlTXlv9rMg3FWe8u6vmusi4R8SvDFFJQdCVHdyfXVrLCnY+qxLjZLXZB4su1OuBcQ18bUWEtxSM5akgGrSFO9em12rBwf+11SsDnCSUcmnye0uBLUm5UvwgAO5qQVZO7kU9rVJSnMgAAMl4BQf1BKdQSEHLA3t+y6aMKhaqEiJzZIHpW6OTts4DrmJLTdP9vWArj9fSwYkR3jISAEgpCcKNSxUt8nmrZyvtSQgMn3Eqo7yOcwQQuEv5yaW1dSwxNSBqdcysyUZDHeF/K0IIjSpYmCFkJurYfz74vdVQsKPg/Vrr598O+UPozZiPWm4NnKc/Qd+oaacUMgpYo6+LhNQzfMVKqrlgT2ZmnqsqfOAs7IWs/SW875vbg6ZKBaDuX5tytflHapmY1HfVBMdT5DDWLxLTQxP8GKEmOzGjqDpgmidbkHlCDEn8wJ++np22O/9m4obUFcmbyv02JgbJjVRebZrTxfWE23wHvLwbtbq6ukRRFMVOQRBaW7+/dauV4wxdXV1WVlYymYOTk9zGZpypY7yH53Ri8OqP4pU0CQsm3F5fKEtKjXAmhcbCAWfvKo8fTjmhneOA9p4oAQAgaUYKvJ4TBZE31B14e0kWMOoXImIi5ipkQYnJ4qa0ytkbNy1g2uqzS4Gw94uOW0VU5+3M3FukSg2lSvfvu2i7dP0H/gpKAFsK3EPjZ6xkpOLFnYlHyv2nB8FgecrMS4hZIVTlbD2QU+ZiNFkMZVl7Cvi5SbuCFEL5jk2H+7zINRSX6uxnR9nLnd5OBT6pyC0x+f7XLn2J+npWaKvKSSysrecIhXdEwipfnjWA1E5CAgCQUicayllepACAUIYmRjFs+e6Mv+WolUnqhwwVIYTMFhZmCJmvzpavOyf5SMfB/cLMGFF7YlP4CQCYqApYmvCyUiIYLZxIinH3UsvswS4wwOlCaRMrOvWfhW+u1BJeMSEzFVTfRe2cKcPhvMPyJUFzvRnS+C0kRtdvS9MUCQBSRgLNgihw1xq0Wl3utqR8EDnWMJkXh+pKxlZkphdwnqs3eFJDzIUerc8+K/k5i5Mk+fTT9NNPS3/xi0lWVlaPKqpHgqBkntOVxvoZDjh7BQ/JjxQUjH/iPn8AgddVH9m/a0+BPDliKtFnjp7N2dNAB79QnFar5dvJGj09e12gp6xn3QLbXJyxv7jGABSAdKIgAmksj0hCqvJ2dWYo8AvyKtxTrWs3Uu1wTZUacIuZ58aQwMsYiviht6GgK9m75xTMSVrg9BBFkigASDyXvpvsKGoqstP/llulDDE+J0mrPdzkDCmfs0hdklOjb1PDQ4WKEELmCwszhMzEVOZX5zR9roltJN4+UkOt4U7veQYsR8jnb0xfNa3XF/xDb4ckB7tSGmxBymlp6na3i+WnTuxcfy40JYYYZL4fWz8AANDqiJTkOfYPtqmtNT4fd3lf2u5KJiLtjRn0kNtDj9Zwux0SBGltbWVtTVhbW9najh8/fvwIBfZY3D97DedTN2RcMADARJ/1CT40cJpbbcBIQOBYA1AeD/owkpRM5a2kzulYAaYOnRn9GSrzcqqYVzM+nkHX57yV1y9tjOYRSQyVXMZeFNiyvemZGmVcaqjbw3y/QUhpiuSldhIgQTHNSwH5mnaKkYJG3yYATYJgaOJAylBEn+9nSGJAV+OhQ0UIIfOEhRlCZiLMfcWDwmyCNOTNX7uDZJy+8t3DvZrLwtxXPMSaSALaW1gDqCitRicITgAAIAiGBi03x55sulDaRCqCGAIARLH3crSDl1zc90nB50yIFwMCUPcaDQSe422n+gU5y4XG9Cvadt+HXn//wGgXJXHkZHGNR7RaCryBAylNEgQIvNh3Rr4hf9v+KllU2qo5k/Hy7vFycxveoPa3b4/NkVlIEkSBF3tuXhxw9jIeSdmzHszbAo65B/NPea/wIa7kntDLl7jSJM9xQNEUCby2poFn3OUDyh6RZ7UsDzTUn61okU5zpmwJtR1XeLTYM+pFFynwBpblCReGpkRW19wmOgIYi4QAQTRwWr2gpvia01W83SKZrZHdoexUNH+49HKLehbN6VheJAAADJUHd2ZrXd9MjZrJPFwikXY+6olbS8sbPYOchaZqHeHs5yCXzbA/cjL3nDLaRSjLqxBcVk6loRIETqPjBCeavXyqRlREyiTQ9FChIoSQ+cLCDCEzMVcZPFsx95ympFX3/ku73x84Q8CUX89VBv/4imjXkGDHrRm/Czuo9FRTErKnQiJJwlCcFpt6TbT3DokL95BQOhVj2J2+U5G64n5rG+MTE9W4J3fHmgIeHBalpsaqKQAAvqlkb05B1XWedp0bHuXmZEc/zPrh8sDQJKqQuHBDZsaahSzBuMwIXRUVJPMI9D6zKyHysHpF+v3BP9rqTxbU6A2wZ9W5PQAAUt+U7eu8sOEMPTq0y9xA6Z6Ny0rkkclryIFnbx/23ivjNLt3pa3NFOzcFqx8M0BG8k0lB3M+rWrQ8rYKz6C4+CBnsn+bM0GRjXkpYTXNIJ8R9UaIM0VCwIpY7f7slLWZIqGKTE6Y71GQkRJzztFNQUruNTAZySOSoPhLOfEHa1uIKXNfWznXaOdAUuYfs/hCSkbMKxlS9XPOBEEBAHu14PhXrPjVe7E93/g4LNqSGvsjeURNDV8dsXf3xugcnnL0eXlFrLeUhLmrY3Q7DqbEsIR8ekhCzAwaWCBJSizfsWZPNSd1WxD1prcUeHioUBFCyHxZtLd3mDoGhJ5o48cP7+JjiBaGxu/qX8r2Ee4amcGWoD6LuTTpKdOPbofM2yM8nwc6c+Zcd7fFnDmzfnzWxxIPQo8Zns8ImTdsMUPIfDg/rbryO+7T2r+VXPv0cvMXev6mHTXJw+H5uS6LFrm+auroEEIIIYTQoLAwQ8jcLHJ9FcswhBBCCKGxxdLUASCEEEIIIYTQkw4LM4QQQgghhBAyMSzMEBpjLDFr0WhlaWlh6hB+LswvNGqZQX4hhIaGH0EIjTEEQeDHMxqFLC0tCGJ4z0gehTC/0OhkHvmFEBoaDv6B0BhjaWlhY4MfzwiNCMwvhBBCpoItZgghhBBCCCFkYliYIYQQQgghhJCJYWGGEEJobOjuBgu8/wshhJCZwsIMIYTQ2NDd3WWBlRlCCCEzhYUZQgihsaG7GwCwMEMIIWSecFRGhMaYrq4uQbjb3d1t6kAQ6sPKysLa2nrkxpq/ffs24HPGEEIImS/8iENojBFFrMrQaHT3bndHhzhy679163sAsLS0GrlNIIQQQiaEhRlCY0xXF1Zl6El061YrAFhZYWGGEELIPGFhhhBCaLTr7u7W6/WWlhaW2JcRIYSQmcJPOIQQQqPdzZusIIgEQZg6EIQQQmikYGGGEEJotLt+/RsrKytrayzMEEIImS0clREh8/FhuW7L6evc7c5+0+nx1u8GOL3h42CSqBD6mZqavmlvv+3o+P/au/+gJu68D+CfhOxS2aiJM4YKURNawGoyop6jtdXj4eoojFSfio8eluIVdVQ8r0wdZ6gcDB4tow8+PXlq8Yo8D1xneOyoz1OGKepIHYWKOBR/nJSB0kugTeixnN2IWdRdkjx/4I9Wgy0qLoT36y9Jvt/sZzPLuG8+3901/vCDa7BzfT4fHn0GoxMuSAYYcdAxAwgQvZI3t9r+YCojIuFGX/ZJmyh5/M+UnFVZry/bWNwo3n2Fbzx11nbnR7f9bPUFXvpFVfDVuVvfPtr+ywYPhvBVdW2bMMhJ7tbS36fvOzfYaf1z/ey11HWhPC9j47+ueP31HfuqWsUBpsKT1NXVbbO1c1yIyTT1Eabj3BRGLRz8ACMOghlAgAhh1Tdk70Dv9kpejvV/OzuJb64XpkYzbTWtd9oRYtuxo2dahP5UIjlqqyrOdz/5rDUYbntdRWWD8PSK8LfXksvh1C1Ky/mv/9690dhe/nHdd8p+KaPAt986mptbGIaJibE+2v0Y+/oG+HsEQKDzeHDwA4wwWMoIMMpJjot1QnTCOl116Rdtwuy5nOP0nqyiehfVb00ptqRsnVLzQVWHTLvWnJgYn50T7/qs9GjdFaccalmQvCl1kZEVmqo+Kvm03n6NjYrPykkgkoSLFXvOt12xi4Z5yRmbFxscpZn5l7VmHbm6v5PCXowzSU1tNr6bjU56a1PsZFZsOV5WXNksyKS3LE9PW2xwlGYWdkREh/COzi5RN/+NzcvpSE7BGYdM2/6twvja7sI3TCwREQmt/ZumiIWr0lOmt+zNr305M3dpOMufzc6qsmbmxBPJYvuxwp37mzpkw8zkbRuWR4fYKvPzanVWg+hwdorMzORtt/di/1+rbC5iDTOTNyXpT+RnV97d693pszkiItYwJzGh/0szm3XkQMdsCPX0XG9v//af/7w6duxYq/WF4ODgR/scr9fn8XiDgvBXSBhd+vo86JgBjDgIZgCBZvyUqVVrDP9w3qAx6o5Lttwv3dceMlrqbDwvRiTOiDZ0swV1V4S5i4yxO/LknF11C7MzE4ws0b/obmYVM+sLNs/QErn5xRtmrQrVU2tR7kcn2ma/JpcWfcpbkvMzY0KJGE7qIpKYib9J+W06e/n9/IqK1gUbOCJ24sK07QnG3nMFWcVfL8jNTJ7sOpuXVfG5fW4SVRSfkJdn/scifUdp/oflF2a+ZSCSmejELRlmxlaZm1d5OT57S/428e3K8Ky85Aj2buX8uUNVvGXLgRwTCRLHyS3+95AJXbgufTNz5dC+4gNV0XlJLEkSTY3fvGIaw1fn7zp8qmN+olheclqfknfAQldK3iut7MjfnJMl3tvr+wltx045Q19ODWUffA8enc/n6+m5Lgiuri5eFHtVKtWUKcbnnjM/5kVisuxRq1W40gxGD5/PJ8tolwGMPAhmAAHI9QO/65OOy5px762JSO1sLuz0c+FZP7e9rl40JUXptFzMfK66polftNDwkE+W+YayoiP1TuIY4hbKIt9skyNXrYyddnsST8SGWhbMiTawosnIMYIsExExnJ5jiWQtx7CyTs8SMRzHkCTLgr3N4XCW7806TLLAuyaLstw/XscREcfpSBqgMcVyk42M49ThI/oV8S/PDKVuv6MYLnz2rMhQPekTf30sv9khUgSxLKfTc0TE6fUMySTwzS2ObrHkvRaWZKHTHS3KD/kKJGf1gaLPKTZrqQm57PH9/e92WZZlWZakvuvXe/r/xs8wjNk8NSxsUnDwE/iOfT7fzZuyRhMUFKRWqQgJDQKVz+fz+cjj8WIFL8AIhWAGELj6pBY5OFavps4Bhzi+aGi1d777uzP9P3KnmrvmGfQDjRbbDpdUU2Leobgw/lDunkHfIc8/vSU5Nyc29M6P7tZfOI+zpu0unNdQc/zTvOMNG3KWP1YRhpgNeX948d6eD5AGJb7mQEGxPTI9L8nKPdYGA9Vnn1UParxardJoGI0mSKNhQkMN48aNHTduvFYb8sTjU1+fB2erAAAwnCGYAQSs4LHjYyfIl4QB7whCRDVN8vy3/zNroYGI3K3lmXvPNPILEliGIelu24jlSBJ6ZSKSeF5k9AadlrrrndeII84wPYI5XVF51vjaXCMr06CzCqOPimSOnjzWFLPOoiPRJZDO/5OqWJZkSZSJ7nVQJLcg6y0vrTLr+KyyC3xfNCMJ9m6JJoqOtru3CZFF3sGLpKfW2oYu3YwIfxVyhukRdPDYF+3WRJOWREFk9NyP9voeV+PH+0od09/KS33RgG6Zf1OmhA9q/PPPPzdElQAAAIwsCGYAAUg3wZC9ciyNVXed+6Zs4HWMRHRBjEy23F6GqDUvWKQ7XXux+5UlMfHzzuzPSDliWV+QvdgclxBRsC9lhS4+7534eUzeroxGc2S0jiGOSB+zbnPC/pKybZWFZFiwc/dvB1uqNnp5+hpXceHWZTxjiJqbtDl1kb9h+qhX4nVF2WurjSl5e1eaWCKSXFf+92BZbXOXPNEal7Qhaqo2MfbzAwUpaydaZ5m0dwIYw7G2Q7mrmzrJODd10/IIjmx+Pj1m3eaEj0reSym5xoZPX7Rm/YaF4T/a693pFo6IiP+q4vg3vPzNuxv7m0Jhr+7O2xiNxtlPWK0vDGr8jRu4tSUAAAARkaq395bSNQCMamPGDK738pATWe0fax4y0f0nv5EH4El6gsfzgxoaLhCp5s6dNciiAAAARgDcQRgAAAAAAEBhCGYAgePNXz3r9/VnNOptLw3uyh8AAAAAeJqwlBFAYUO69AvgKcNSRgAAgEeDjhkAAAAAAIDCEMwAAAAAAAAUhmAGMMKo8VsLw5Va/YSfCg0AADB64BQPYIRhGAanvzAMqdUqhvH/eHAAAAD4WXjANMAIo1argoNx+gsAAAAQUNAxAwAAAAAAUBiCGQAAAAAAgMKwlBEAAEaGkJAQlQoXWAIAQGBCxwwAAEaGa9d6JAkPWAcAgMCEYAYAACODLMsMg4UeAAAQmPA/HMAI4/V6Jcnj8/mULgTgJ4KCVBqNZkif5eDxeDQa3JIUAAACEzpmACOMLCOVwXDk8fhu3ZKH7vOvXxeJiONChm4TAAAACkIwAxhhvF6kMhiNXC4XEY0bN1bpQgAAAIYEghkAAIwAguBSq9UIZgAAEKgQzAAAYLiTJPnq1R/Gjx+vdCEAAABDBcEMAACGu46Ob30+36RJoUoXAgAAMFRwV0aAwPFBnXP36Q7hRt99r+vHaHbGmTbND1OkKoDH1NPjdjg6Q0LGPPusQelaAAAAhgo6ZgABolfy5lbbH0xlRCTc6Ms+aRMlj795Utf58ryMratXrF62duvv88vP8W5b5c7XM8pbRCIi4fy+11dt3d8kEhGJX+1P35pXywu1//5mRmn/ACIiEhsLty5bsXrZitXL1mZkFp22if42NQh8de7Wt4+2P8qzhCW+8dTZ+wsQ26sKd765dvWytRnZJQ1deEbxyCHL8t/+9pVKRdOnv6B0LQAAAEMIwQwgQISw6huyd6B3eyUvxwY9+Lq7qTyn4LRoScr94C+HPti+MS5Sz2iNUTP0QptNkIikrlanKLts9m6JSOLbbHLYbLPOzwYYxrgk+9CnH3+ct1x3sbz8Av8Ed21wxLZjR8+0CD/JXm6+XYxakfX+X0oyfy3Xlh/5+nGDIzwdt27dbGy8JEm3pk2LHjdOq3Q5AAAAQwhLGQFGtSvHv3RbVuWmxIayRKSzzjMREbEzrfq6C/beBINos5P15Uih1SkmhrlbmwVDjNXAkn2gz2M5jmMZjmVZIpL4hvKiwzXOXuLCFqWsXzf7zjo0yVnzcVn5qWZBNz0+bUsSHd5eQhv2bJjDSS0lWXuEVXu3TyWShIuHc041t/DMtLjULWkvTRYvvZ9VJkZHEu908LJxSWr6yhl60Vnz14PlF7slColYkrplXveHWUX1LqrfmlJsWV+YvXgyS0SkNceuMhMREWcycNVucQgftwVPSk/P9cuXm2RZDgubhEWMAAAQ8BDMAALN+ClTq9YY/uG8QWPUHZdsuV+6rw08mOcl/bxIPfvTVznTHDNT3OQULL2t4sT5SyNrj7Y5hBnupm591PRQlvz0m2TZcWrXmhNERJwlNd+iI+LrS8pbzesLcyKF2qJ3D1XPj06exhERub8+WX6BScr7YL5OEilkwJjHRCZlphr4ug8L/6fMEpllISKZmZWUsdAgNZVmFlZdiYs0f3GwnF+w4/3FBv7knoIj9fMyd+TJObvqFmZnJhjZBz5R+u78ySty5IYof00/GB58Pl9399Xvv//+6lUhKEj9/PPPTZkSrnRRAAAAQw7BDCAAuX7gd33ScVkz7r01EamdzYWdfi48u4slIpK+O56/7UCzTGRO2b13pSlilokqLzvsxHMzlpunOqjC5mzvcjLRSyey5C+YMYxxSXbB5hlasb26aN+ekon5aUyjvdtmP5h5kZHF7i5mwd1ZrC7cIJ45cqiKEl+Zbxmo/8bqLTFWo4E1xr5qqS5r6nZbiChEr+dYItIZtNQpyb32JmeXvWJP1klG6uVdIREiETfgngpNR/aUdESkZc7R/6KvEZ4Cr9cry7Is90mS1NNz/dq1HkFweb3eoKCg8PAwk8kYHPyM0jUCAAA8DQhmAIGrT2qRg2P1auoccIjBwAp2p0imyUtz/m+pqyY/t4KIiPTRM42HztScJ8mYZNCFTzO4as43CBSZHD5w7unHmayzJ5ZXtgnidOLCfpOWs9Fy/xTWuDjr/cjG86ePFe36PG77DvPP7QjL0IPdrzvbm5b4h9yVprvvSw7/49ytn+4pOKl97Z234sIH/DB4bJ99Vv0401mWnTBBP2GCbtKkZ4OC/FwVCQAAEKgQzAACVvDY8bET5EvCgHcEISJr3Ew2/2BekbwucW70j6/i0UXO1peXfcFaN03UsiHmaO6jQ3XsrC0RP9trkly2pm42fLHeEDbH0Ft6vCE+KnYyK7kFme1vdhGR6BJZ04tLk43U+e75NlcEQ3JnlyARddocrjstL0mwOwXJpOcvfd4km1PCtdT+wMZCzBbdd6dONi5MfdHASqJL4nRalmFIuu8iMsl+8s+F1czKd3YkRuIOEkNqsMsOGYbVaII0GkajCQoJGTNmzJghKgwAAGCYQzADCEC6CYbslWNprLrr3PoaPMcAAALMSURBVDdlD13HqJ2dunM7U1xyMPNEETHjDUbT/CU6lojYidNm6aRWxmrUEbF6cxgrthtnT72by0T7se1rj/X/2/jazt/du8YsxPzyqvS0uXqi+WmptqLy7WuLJG6qNS45442Y/mDmdjR8VFJRb3dx5rmr0haYjd2vRn1YlvHmEfNMq153O7yxLCfX/Xlr0RVBZ12a+tY8nb8FlOzkuPUb+YPFGSnvSuPN8xLSN6+YpouJn3dmf0bKEcv6gts3/5Bsp6rqnd1UkrWmhIiIm7X5k5zYx/+e4UFW6+Buan/jBp5dAAAAQESk6u29pXQNAKPamDGDW1j3kBNZ7R9rHjLR/adFg9oQwCN4gsczAADAqILnmAEAAAAAACgMwQwgcLz5q2f9vv6MRr3tJdxwHAAAAGD4wlJGAIVh6RcEEhzPAAAAjwYdMwAAAAAAAIUhmAEAAAAAACgMwQxghFHjtxaGK7VapXQJAAAAIxVO8QBGGIZhcPoLw5BarWIYRukqAAAARio8YBpghFGrVcHBOP0FAAAACCjomAEAAAAAACgMwQwAAAAAAEBhCGYAAAAAAAAKQzADAAAAAABQGIIZAAAAAACAwhDMAAAAAAAAFIZgBgAAAAAAoDAEMwAAAAAAAIUhmAEAAAAAACgMwQwAAAAAAEBhCGYACvP5fEqXAKAMrxcHPwAAwG0IZgAKw7kpjFo4+AEAAO5CMANQWF+fR+kSAJTh8eDgBwAAuA3BDEBhXq/P4/EqXQXA09bX50HHDAAA4C4EMwDlybIHV5rBqOLz+WQZ7TIAAIB7NEoXAADk8/lu3pQ1mqCgILVKRSqVSumKAIaEz+fz+cjj8WIFLwAAwH0QzACGi74+D85WAQAAAEYnLGUEAAAAAABQGIIZAAAAAACAwhDMAAAAAAAAFIZgBgAAAAAAoDAEMwAAAAAAAIUhmAEAAAAAACjs/wFauaLqP3hbOgAAAABJRU5ErkJggg==;" parent="1" vertex="1">
          <mxGeometry x="520" y="820" width="1160" height="395" as="geometry" />
        </mxCell>
        <mxCell id="cj_N3vQUKj-DD6KUi9ZY-15" value="" style="endArrow=classic;startArrow=classic;html=1;rounded=0;entryX=0;entryY=0.19;entryDx=0;entryDy=0;entryPerimeter=0;" parent="1" source="cj_N3vQUKj-DD6KUi9ZY-13" target="cj_N3vQUKj-DD6KUi9ZY-14" edge="1">
          <mxGeometry width="50" height="50" relative="1" as="geometry">
            <mxPoint x="800" y="550" as="sourcePoint" />
            <mxPoint x="850" y="500" as="targetPoint" />
          </mxGeometry>
        </mxCell>
      </root>
    </mxGraphModel>
  </diagram>
</mxfile>
